<?xml-stylesheet type="text/css" href="../../src/pages/HomeIntro.css"?>

<svg width="592" height="596" viewBox="0 0 592 596" fill="none" xmlns="http://www.w3.org/2000/svg">
<path d="M154.171 305.406L476.335 415.63L341.495 525.482L12.9728 398.697L154.171 305.406Z" fill="#D6D5D8"/>
<path d="M12.9675 398.671L341.398 525.019L344.029 537.683L15.3034 409.914L12.9675 398.671Z" fill="#737373"/>
<path d="M341.399 525.02L476.149 415.632L476.149 429.403L344.085 537.948L341.399 525.02Z" fill="#565058"/>
<path d="M154.469 387.474L219.576 417.033L196.813 437.488L130.806 406.286L154.469 387.474Z" fill="#F5F4F4"/>
<path d="M219.576 417.033L219.867 419.309L196.938 438.464L196.813 437.488L219.576 417.033Z" fill="#D9D9D9"/>
<path d="M130.931 407.261L130.806 406.286L196.813 437.488L196.938 438.464L130.931 407.261Z" fill="#D1D0D0"/>
<path d="M155.828 410.662L182.509 423.524L179.298 427.15L152.49 414.194L155.828 410.662Z" fill="#E8E8E8"/>
<path d="M150.697 408.26L155.221 410.412L151.883 413.944L147.119 411.714L150.697 408.26Z" fill="#E8E8E8"/>
<path d="M146.426 406.295L150.09 408.01L146.513 411.464L142.721 409.656L146.426 406.295Z" fill="#E8E8E8"/>
<path d="M142.395 404.408L145.693 405.952L141.989 409.313L138.564 407.675L142.395 404.408Z" fill="#E8E8E8"/>
<path d="M138.363 402.521L141.661 404.065L137.83 407.332L134.419 405.803L138.363 402.521Z" fill="#E8E8E8"/>
<path d="M142.096 399.377L150.13 402.934L147.048 405.771L138.986 401.997L142.096 399.377Z" fill="#D9D9D9"/>
<path d="M145.434 396.746L151.507 399.333L148.943 401.73L142.734 398.981L145.434 396.746Z" fill="#D9D9D9"/>
<path d="M148.591 394.193L153.088 396.128L150.726 398.317L146.065 396.294L148.591 394.193Z" fill="#D9D9D9"/>
<path d="M151.472 391.872L154.263 393.043L152.1 394.985L149.182 393.721L151.472 391.872Z" fill="#D9D9D9"/>
<path d="M153.969 389.855L156.634 390.933L154.768 392.505L152.09 391.319L153.969 389.855Z" fill="#D9D9D9"/>
<path d="M150.863 403.277L154.401 404.9L151.446 407.83L147.781 406.114L150.863 403.277Z" fill="#D9D9D9"/>
<path d="M155.185 405.088L159.004 406.91L156.065 410.1L152.179 408.247L155.185 405.088Z" fill="#D9D9D9"/>
<path d="M152.071 399.605L155.397 400.996L153.029 403.58L149.565 401.991L152.071 399.605Z" fill="#D9D9D9"/>
<path d="M227.721 421.887L262.5 437.572L242.654 459.997L206.916 441.739L227.721 421.887Z" fill="#9FA0AA"/>
<path d="M206.916 441.739L242.654 459.997L242.749 460.712L207.011 442.454L206.916 441.739Z" fill="#8F8C8D"/>
<path d="M262.5 437.572L262.771 439.616L242.749 460.712L242.654 459.997L262.5 437.572Z" fill="#776D6D"/>
<path d="M203.976 357.531L225.636 370.657L190.172 389.933L171.37 375.253L203.976 357.531Z" fill="white"/>
<path d="M171.601 377.39L171.323 375.296L190.125 389.858L190.403 391.952L171.601 377.39Z" fill="#FBF5D5"/>
<path d="M225.64 370.702L225.948 373.028L190.418 392.068L190.125 389.858L225.64 370.702Z" fill="#BBB4B4"/>
<path d="M219.642 404.803L207.217 373.328L207.915 372.196L220.507 403.862L219.642 404.803Z" fill="#F4D88F"/>
<path d="M219.661 404.758L220.466 403.802L221.517 404.06L221.764 405.274L220.959 406.231L219.908 405.972L219.661 404.758Z" fill="#BB6E26"/>
<path d="M221.472 404.043L208.841 372.5L207.916 372.195L220.404 403.828L221.472 404.043Z" fill="#FA9A0A"/>
<path d="M207.459 374.361L207.217 373.328L219.642 404.803L219.948 405.993L207.459 374.361Z" fill="#FFE896"/>
<path d="M207.316 370.5L208.841 372.501L208.429 372.365L208.44 373.05L207.837 372.442L207.795 373.655L207.359 373.238L207.395 374.204L206.851 370.892L207.316 370.5Z" fill="#FFE9BF"/>
<path d="M206.649 369.735L207.316 370.499L206.851 370.891L206.649 369.735Z" fill="#6F6565"/>
<path d="M552.043 157.434L562.236 149.937V380.674L552.043 388.255V157.434Z" fill="#311F3A"/>
<path d="M552.044 157.638L562.237 150.438L122.722 0L107.066 5.39774L552.044 157.638Z" fill="#311F3A"/>
<path d="M106.723 5L551.917 157.008L551.917 388.128L106.723 236.402L106.723 5Z" fill="#031134"/>
<path d="M107.051 168.8L552.303 320.526L552.303 388.525L107.051 236.778L107.051 168.8Z" fill="#295C79" fill-opacity="0.53"/>
<path d="M107.083 145.82L121.478 150.152V150.152C126.839 151.169 132.376 149.794 136.638 146.387L150.076 135.649V157.687V157.687C152.079 159.379 155.003 159.402 157.031 157.741L173.78 144.031L172.629 165.786V165.786C175.314 167.817 179.054 167.69 181.595 165.482L197.388 151.753L194.318 170.59V170.59C196.788 173.752 201.307 174.412 204.579 172.09L223.012 159.005L217.638 179.348V179.348C220.773 182.096 225.4 182.281 228.745 179.793L244.413 168.141L237.88 189.991L246.716 188.107V163.189C246.716 160.472 249.365 158.546 251.949 159.384L262.838 162.914L272.045 165.899C276.168 167.236 278.961 171.077 278.961 175.411V201.01L289.037 205.248V151.753L291.725 152.601V149.305L299.69 151.753V154.956L315.812 160.136V136.873L320.611 138.191V132.446L341.052 138.191L374.449 158.158V238.494L390.475 244.522V209.486L403.335 191.969L420.897 195.265L422.048 181.797L412.164 170.684L411.108 161.36L416.194 155.709H424.927L426.175 151.188H431.165L432.413 146.479H434.908L435.388 139.039H437.115L436.827 144.878L438.555 145.443L438.939 138.662L444.217 140.734V148.551L446.328 150.717V153.92L450.071 155.709L450.551 159.665L458.708 162.49L461.875 168.141L458.708 178.124L444.217 185.188L443.737 192.722L450.551 195.265L450.071 218.151L461.875 222.672V272.87L468.593 275.696V243.109L494.792 249.231L496.327 220.976L535.866 228.417V218.151L552.084 226.721V320.808L140.576 180.145L107.083 169.271V145.82Z" fill="#F5E976"/>
<path d="M107.083 148.363L124.453 153.355C129.805 154.369 135.341 153.004 139.568 149.626L153.051 138.851V160.889C155.045 162.574 157.987 162.596 160.007 160.943L176.755 147.233L175.604 168.989C178.277 171.011 182.037 170.885 184.564 168.689L200.363 154.956L197.292 173.792C199.75 176.938 204.313 177.593 207.586 175.27L225.987 162.208L220.613 182.551C223.735 185.286 228.393 185.47 231.729 182.989L247.388 171.343L240.855 193.193L249.691 191.309V164.798C249.691 162.873 251.61 161.511 253.473 162.115L277.984 170.062C280.343 170.827 281.936 172.99 281.936 175.428V204.212L292.012 208.45V154.956L294.7 155.803V152.507L302.665 154.956V158.158L318.787 163.338V140.075L323.586 141.394V135.649L344.027 141.394L377.424 161.36V241.696L393.45 247.724V212.689L406.31 195.171L423.872 198.467L425.023 184.999L415.139 173.886L414.083 164.562L419.169 158.911H427.902L429.15 154.391H434.14L435.388 149.681H437.883L438.363 142.241H440.09L439.802 148.08L441.53 148.645L441.914 141.864L447.192 143.936V151.753L449.303 153.92V157.122L453.046 158.911L453.526 162.867L461.683 165.692L464.85 171.343L461.683 181.326L447.192 188.39L446.712 195.924L453.526 198.467L453.046 221.353L464.85 225.874V276.072L471.568 278.898V246.311L497.767 252.433L499.302 224.179L538.841 231.619V221.353L552.084 228.417V320.808L143.551 181.162L107.083 169.271V148.363Z" fill="#D8A84C"/>
<path d="M107.083 151.188L127.428 155.897C132.78 156.912 138.316 155.547 142.543 152.169L156.026 141.394V163.432C158.02 165.116 160.962 165.139 162.982 163.486L179.73 149.776L178.579 171.531C181.252 173.554 185.012 173.428 187.539 171.232L203.338 157.499L200.267 176.335C202.725 179.481 207.288 180.136 210.561 177.812L228.962 164.75L223.588 185.094C226.71 187.829 231.368 188.013 234.704 185.532L250.363 173.886L243.83 195.736L252.666 193.852V167.341C252.666 165.416 254.585 164.054 256.448 164.658L280.959 172.605C283.318 173.369 284.911 175.533 284.911 177.97V206.755L294.987 210.993V157.499L297.675 158.346V155.05L305.64 157.499V160.701L321.762 165.881V142.618L326.561 143.936V138.191L347.002 143.936L380.399 163.903V244.239L396.425 250.267V215.231L409.285 197.714L426.847 201.01L427.998 187.542L418.114 176.429L417.058 167.105L422.144 161.454H430.877L432.125 156.933H437.115L438.363 152.224H440.858L441.338 144.784H443.065L442.777 150.623L444.505 151.188L444.889 144.407L450.167 146.479V154.296L452.278 156.463V159.665L456.021 161.454L456.501 165.41L464.658 168.235L467.825 173.886L464.658 183.869L450.167 190.933L449.687 198.467L456.501 201.01L456.021 223.896L467.825 228.417V278.615L474.543 281.441V248.854L500.742 254.976L502.277 226.721L541.816 234.162V226.155L552.084 231.619V320.808L146.91 182.31L107.083 169.271V151.188Z" fill="#121313"/>
<ellipse cx="141.632" cy="58.0435" rx="21.3048" ry="20.1547" fill="#FFF2C4"/>
<path d="M165.5 83L166.061 84.7275H167.878L166.408 85.7951L166.969 87.5225L165.5 86.4549L164.031 87.5225L164.592 85.7951L163.122 84.7275H164.939L165.5 83Z" fill="#D9D9D9"/>
<path d="M141.5 110L142.061 111.727H143.878L142.408 112.795L142.969 114.523L141.5 113.455L140.031 114.523L140.592 112.795L139.122 111.727H140.939L141.5 110Z" fill="#D9D9D9"/>
<path d="M485.5 150L486.061 151.727H487.878L486.408 152.795L486.969 154.523L485.5 153.455L484.031 154.523L484.592 152.795L483.122 151.727H484.939L485.5 150Z" fill="#D9D9D9"/>
<path d="M523.5 207L524.061 208.727H525.878L524.408 209.795L524.969 211.523L523.5 210.455L522.031 211.523L522.592 209.795L521.122 208.727H522.939L523.5 207Z" fill="#D9D9D9"/>
<path d="M412.356 136.546L412.917 138.273H414.733L413.264 139.341L413.825 141.069L412.356 140.001L410.886 141.069L411.448 139.341L409.978 138.273H411.794L412.356 136.546Z" fill="#D9D9D9"/>
<path d="M169.5 72L170.061 73.7275H171.878L170.408 74.7951L170.969 76.5225L169.5 75.4549L168.031 76.5225L168.592 74.7951L167.122 73.7275H168.939L169.5 72Z" fill="#D9D9D9"/>
<path d="M151.5 102L152.061 103.727H153.878L152.408 104.795L152.969 106.523L151.5 105.455L150.031 106.523L150.592 104.795L149.122 103.727H150.939L151.5 102Z" fill="#D9D9D9"/>
<path d="M480.109 189.099L480.67 190.826H482.486L481.017 191.894L481.578 193.621L480.109 192.554L478.639 193.621L479.2 191.894L477.731 190.826H479.547L480.109 189.099Z" fill="#D9D9D9"/>
<path d="M378.959 136.546L379.52 138.273H381.336L379.867 139.341L380.428 141.069L378.959 140.001L377.489 141.069L378.051 139.341L376.581 138.273H378.397L378.959 136.546Z" fill="#D9D9D9"/>
<path d="M391.5 182L392.061 183.727H393.878L392.408 184.795L392.969 186.523L391.5 185.455L390.031 186.523L390.592 184.795L389.122 183.727H390.939L391.5 182Z" fill="#D9D9D9"/>
<path d="M162.5 68L163.061 69.7275H164.878L163.408 70.7951L163.969 72.5225L162.5 71.4549L161.031 72.5225L161.592 70.7951L160.122 69.7275H161.939L162.5 68Z" fill="#D9D9D9"/>
<path d="M347.29 117.521L347.851 119.249H349.667L348.198 120.317L348.759 122.044L347.29 120.976L345.82 122.044L346.381 120.317L344.912 119.249H346.728L347.29 117.521Z" fill="#D9D9D9"/>
<path d="M158.5 104L159.061 105.727H160.877L159.408 106.795L159.969 108.523L158.5 107.455L157.03 108.523L157.592 106.795L156.122 105.727H157.938L158.5 104Z" fill="#D9D9D9"/>
<path d="M158.5 93L159.061 94.7275H160.878L159.408 95.7951L159.969 97.5225L158.5 96.4549L157.031 97.5225L157.592 95.7951L156.122 94.7275H157.939L158.5 93Z" fill="#D9D9D9"/>
<path d="M166.5 100L167.061 101.727H168.877L167.408 102.795L167.969 104.523L166.5 103.455L165.03 104.523L165.592 102.795L164.122 101.727H165.938L166.5 100Z" fill="#D9D9D9"/>
<path d="M173.5 108L174.061 109.727H175.877L174.408 110.795L174.969 112.523L173.5 111.455L172.03 112.523L172.592 110.795L171.122 109.727H172.938L173.5 108Z" fill="#D9D9D9"/>
<path d="M172.5 119L173.061 120.727H174.877L173.408 121.795L173.969 123.523L172.5 122.455L171.03 123.523L171.592 121.795L170.122 120.727H171.938L172.5 119Z" fill="#D9D9D9"/>
<path d="M182.5 116L183.061 117.727H184.877L183.408 118.795L183.969 120.523L182.5 119.455L181.03 120.523L181.592 118.795L180.122 117.727H181.938L182.5 116Z" fill="#D9D9D9"/>
<path d="M195.5 114L196.061 115.727H197.877L196.408 116.795L196.969 118.523L195.5 117.455L194.03 118.523L194.592 116.795L193.122 115.727H194.938L195.5 114Z" fill="#D9D9D9"/>
<path d="M203.5 106L204.061 107.727H205.877L204.408 108.795L204.969 110.523L203.5 109.455L202.03 110.523L202.592 108.795L201.122 107.727H202.938L203.5 106Z" fill="#D9D9D9"/>
<path d="M206.5 95L207.061 96.7275H208.877L207.408 97.7951L207.969 99.5225L206.5 98.4549L205.03 99.5225L205.592 97.7951L204.122 96.7275H205.938L206.5 95Z" fill="#D9D9D9"/>
<path d="M197.5 92L198.061 93.7275H199.877L198.408 94.7951L198.969 96.5225L197.5 95.4549L196.03 96.5225L196.592 94.7951L195.122 93.7275H196.938L197.5 92Z" fill="#D9D9D9"/>
<path d="M189.5 99L190.061 100.727H191.877L190.408 101.795L190.969 103.523L189.5 102.455L188.03 103.523L188.592 101.795L187.122 100.727H188.938L189.5 99Z" fill="#D9D9D9"/>
<path d="M187.5 109L188.061 110.727H189.877L188.408 111.795L188.969 113.523L187.5 112.455L186.03 113.523L186.592 111.795L185.122 110.727H186.938L187.5 109Z" fill="#D9D9D9"/>
<path d="M211.5 125L212.061 126.727H213.877L212.408 127.795L212.969 129.523L211.5 128.455L210.03 129.523L210.592 127.795L209.122 126.727H210.938L211.5 125Z" fill="#D9D9D9"/>
<path d="M221.5 122L222.061 123.727H223.877L222.408 124.795L222.969 126.523L221.5 125.455L220.03 126.523L220.592 124.795L219.122 123.727H220.938L221.5 122Z" fill="#D9D9D9"/>
<path d="M230.5 116L231.061 117.727H232.877L231.408 118.795L231.969 120.523L230.5 119.455L229.03 120.523L229.592 118.795L228.122 117.727H229.938L230.5 116Z" fill="#D9D9D9"/>
<path d="M238.5 108L239.061 109.727H240.877L239.408 110.795L239.969 112.523L238.5 111.455L237.03 112.523L237.592 110.795L236.122 109.727H237.938L238.5 108Z" fill="#D9D9D9"/>
<path d="M243.5 98L244.061 99.7275H245.877L244.408 100.795L244.969 102.523L243.5 101.455L242.03 102.523L242.592 100.795L241.122 99.7275H242.938L243.5 98Z" fill="#D9D9D9"/>
<path d="M246.5 88L247.061 89.7275H248.877L247.408 90.7951L247.969 92.5225L246.5 91.4549L245.03 92.5225L245.592 90.7951L244.122 89.7275H245.938L246.5 88Z" fill="#D9D9D9"/>
<path d="M242.5 78L243.061 79.7275H244.877L243.408 80.7951L243.969 82.5225L242.5 81.4549L241.03 82.5225L241.592 80.7951L240.122 79.7275H241.938L242.5 78Z" fill="#D9D9D9"/>
<path d="M237.5 134L238.061 135.727H239.877L238.408 136.795L238.969 138.523L237.5 137.455L236.03 138.523L236.592 136.795L235.122 135.727H236.938L237.5 134Z" fill="#D9D9D9"/>
<path d="M248.5 130L249.061 131.727H250.877L249.408 132.795L249.969 134.523L248.5 133.455L247.03 134.523L247.592 132.795L246.122 131.727H247.938L248.5 130Z" fill="#D9D9D9"/>
<path d="M257.5 125L258.061 126.727H259.877L258.408 127.795L258.969 129.523L257.5 128.455L256.03 129.523L256.592 127.795L255.122 126.727H256.938L257.5 125Z" fill="#D9D9D9"/>
<path d="M266.5 114L267.061 115.727H268.877L267.408 116.795L267.969 118.523L266.5 117.455L265.03 118.523L265.592 116.795L264.122 115.727H265.938L266.5 114Z" fill="#D9D9D9"/>
<path d="M271.5 104L272.061 105.727H273.877L272.408 106.795L272.969 108.523L271.5 107.455L270.03 108.523L270.592 106.795L269.122 105.727H270.938L271.5 104Z" fill="#D9D9D9"/>
<path d="M274.5 93L275.061 94.7275H276.877L275.408 95.7951L275.969 97.5225L274.5 96.4549L273.03 97.5225L273.592 95.7951L272.122 94.7275H273.938L274.5 93Z" fill="#D9D9D9"/>
<path d="M269.5 84L270.061 85.7275H271.877L270.408 86.7951L270.969 88.5225L269.5 87.4549L268.03 88.5225L268.592 86.7951L267.122 85.7275H268.938L269.5 84Z" fill="#D9D9D9"/>
<path d="M260.5 91L261.061 92.7275H262.877L261.408 93.7951L261.969 95.5225L260.5 94.4549L259.03 95.5225L259.592 93.7951L258.122 92.7275H259.938L260.5 91Z" fill="#D9D9D9"/>
<path d="M255.5 102L256.061 103.727H257.877L256.408 104.795L256.969 106.523L255.5 105.455L254.03 106.523L254.592 104.795L253.122 103.727H254.938L255.5 102Z" fill="#D9D9D9"/>
<path d="M252.5 114L253.061 115.727H254.877L253.408 116.795L253.969 118.523L252.5 117.455L251.03 118.523L251.592 116.795L250.122 115.727H251.938L252.5 114Z" fill="#D9D9D9"/>
<path d="M262.5 134L263.061 135.727H264.877L263.408 136.795L263.969 138.523L262.5 137.455L261.03 138.523L261.592 136.795L260.122 135.727H261.938L262.5 134Z" fill="#D9D9D9"/>
<path d="M268.5 142L269.061 143.727H270.877L269.408 144.795L269.969 146.523L268.5 145.455L267.03 146.523L267.592 144.795L266.122 143.727H267.938L268.5 142Z" fill="#D9D9D9"/>
<path d="M279.5 142L280.061 143.727H281.877L280.408 144.795L280.969 146.523L279.5 145.455L278.03 146.523L278.592 144.795L277.122 143.727H278.938L279.5 142Z" fill="#D9D9D9"/>
<path d="M290.5 140L291.061 141.727H292.877L291.408 142.795L291.969 144.523L290.5 143.455L289.03 144.523L289.592 142.795L288.122 141.727H289.938L290.5 140Z" fill="#D9D9D9"/>
<path d="M297.5 131L298.061 132.727H299.877L298.408 133.795L298.969 135.523L297.5 134.455L296.03 135.523L296.592 133.795L295.122 132.727H296.938L297.5 131Z" fill="#D9D9D9"/>
<path d="M277.5 131L278.061 132.727H279.877L278.408 133.795L278.969 135.523L277.5 134.455L276.03 135.523L276.592 133.795L275.122 132.727H276.938L277.5 131Z" fill="#D9D9D9"/>
<path d="M282.5 121L283.061 122.727H284.877L283.408 123.795L283.969 125.523L282.5 124.455L281.03 125.523L281.592 123.795L280.122 122.727H281.938L282.5 121Z" fill="#D9D9D9"/>
<path d="M292.5 117L293.061 118.727H294.877L293.408 119.795L293.969 121.523L292.5 120.455L291.03 121.523L291.592 119.795L290.122 118.727H291.938L292.5 117Z" fill="#D9D9D9"/>
<path d="M302.5 122L303.061 123.727H304.877L303.408 124.795L303.969 126.523L302.5 125.455L301.03 126.523L301.592 124.795L300.122 123.727H301.938L302.5 122Z" fill="#D9D9D9"/>
<path d="M313.5 88L314.061 89.7275H315.877L314.408 90.7951L314.969 92.5225L313.5 91.4549L312.03 92.5225L312.592 90.7951L311.122 89.7275H312.938L313.5 88Z" fill="#D9D9D9"/>
<path d="M234.5 85L235.061 86.7275H236.877L235.408 87.7951L235.969 89.5225L234.5 88.4549L233.03 89.5225L233.592 87.7951L232.122 86.7275H233.938L234.5 85Z" fill="#D9D9D9"/>
<path d="M228.5 95L229.061 96.7275H230.877L229.408 97.7951L229.969 99.5225L228.5 98.4549L227.03 99.5225L227.592 97.7951L226.122 96.7275H227.938L228.5 95Z" fill="#D9D9D9"/>
<path d="M225.5 107L226.061 108.727H227.877L226.408 109.795L226.969 111.523L225.5 110.455L224.03 111.523L224.592 109.795L223.122 108.727H224.938L225.5 107Z" fill="#D9D9D9"/>
<path d="M228.5 131L229.061 132.727H230.877L229.408 133.795L229.969 135.523L228.5 134.455L227.03 135.523L227.592 133.795L226.122 132.727H227.938L228.5 131Z" fill="#D9D9D9"/>
<path d="M201.5 122L202.061 123.727H203.877L202.408 124.795L202.969 126.523L201.5 125.455L200.03 126.523L200.592 124.795L199.122 123.727H200.938L201.5 122Z" fill="#D9D9D9"/>
<path d="M157.823 79L158.233 80.3015H159.557L158.486 81.1059L158.895 82.4075L157.823 81.6031L156.751 82.4075L157.161 81.1059L156.089 80.3015H157.414L157.823 79Z" fill="#D9D9D9"/>
<path d="M154.823 116L155.233 117.302H156.557L155.486 118.106L155.895 119.407L154.823 118.603L153.751 119.407L154.161 118.106L153.089 117.302H154.414L154.823 116Z" fill="#D9D9D9"/>
<path d="M519.162 179.869L519.572 181.171H520.897L519.825 181.975L520.234 183.277L519.162 182.472L518.091 183.277L518.5 181.975L517.428 181.171H518.753L519.162 179.869Z" fill="#D9D9D9"/>
<path d="M168.823 61L169.233 62.3015H170.558L169.486 63.1059L169.895 64.4075L168.823 63.6031L167.752 64.4075L168.161 63.1059L167.089 62.3015H168.414L168.823 61Z" fill="#D9D9D9"/>
<path d="M357.386 271.978V271.978C365.1 269.823 373.352 271.319 379.782 276.038L383.525 278.785L378.454 273.238C374.003 268.369 367.128 266.535 360.812 268.53L360.431 268.651C357.768 269.492 354.934 269.604 352.224 268.976V268.976C348.528 268.119 345.28 265.937 343.09 262.84L338.401 256.21L339.868 261.084C342.136 268.615 349.621 273.27 357.386 271.978V271.978Z" fill="white"/>
<path d="M175.547 227.83V227.83C183.261 225.675 191.513 227.171 197.943 231.89L201.685 234.636L196.615 229.09C192.164 224.221 185.289 222.387 178.973 224.382L178.591 224.503C175.929 225.344 173.095 225.456 170.385 224.828V224.828C166.689 223.971 163.441 221.789 161.251 218.692L156.562 212.062L158.029 216.936C160.296 224.467 167.782 229.122 175.547 227.83V227.83Z" fill="white"/>
<path d="M494.377 357.775V357.775C502.092 355.62 510.343 357.116 516.774 361.836L520.516 364.582L515.446 359.036C510.995 354.167 504.12 352.332 497.804 354.328L497.422 354.448C494.76 355.289 491.926 355.401 489.215 354.773V354.773C485.519 353.916 482.271 351.734 480.081 348.638L475.393 342.007L476.86 346.881C479.127 354.412 486.613 359.067 494.377 357.775V357.775Z" fill="white"/>
<path d="M397.342 320.291V320.291C405.056 318.136 413.308 319.632 419.738 324.351L423.48 327.098L418.41 321.552C413.959 316.683 407.084 314.848 400.768 316.843L400.386 316.964C397.724 317.805 394.89 317.917 392.18 317.289V317.289C388.484 316.432 385.235 314.25 383.046 311.153L378.357 304.523L379.824 309.397C382.091 316.928 389.577 321.583 397.342 320.291V320.291Z" fill="white"/>
<path d="M433.545 308.082V308.082C438.483 306.737 443.746 307.625 447.946 310.512L450.115 312.004L447.143 308.934C444.192 305.886 439.779 304.756 435.707 306.005L435.4 306.099C433.766 306.601 432.033 306.681 430.365 306.331V306.331C427.968 305.828 425.84 304.469 424.378 302.506L421.575 298.744L422.328 301.171C423.814 305.961 428.594 308.906 433.545 308.082V308.082Z" fill="white"/>
<path d="M529.766 333.905V333.905C534.703 332.559 539.966 333.448 544.166 336.335L546.335 337.826L543.363 334.757C540.412 331.708 535.999 330.578 531.927 331.828L531.621 331.922C529.986 332.423 528.254 332.503 526.585 332.153V332.153C524.188 331.651 522.06 330.292 520.598 328.329L517.795 324.566L518.548 326.994C520.034 331.784 524.814 334.729 529.766 333.905V333.905Z" fill="white"/>
<path d="M123.684 228.949V228.949C128.621 227.603 133.885 228.492 138.084 231.379L140.253 232.87L137.282 229.801C134.331 226.752 129.918 225.622 125.845 226.872L125.539 226.966C123.904 227.467 122.172 227.547 120.504 227.197V227.197C118.107 226.695 115.979 225.336 114.516 223.373L111.713 219.61L112.466 222.038C113.952 226.828 118.732 229.773 123.684 228.949V228.949Z" fill="white"/>
<path d="M357.511 262.171C360.349 263.127 362.269 265.781 362.287 268.774L363.024 387.9L356.307 396.188L356.307 276.089C356.307 274.185 355.83 272.311 354.92 270.637V270.637C354.313 269.52 353.524 268.512 352.586 267.655L352.528 267.602C351.661 266.81 350.681 266.15 349.621 265.645L347.861 264.806L202.104 215.526C201.965 215.479 201.822 215.442 201.678 215.415V215.415C200.803 215.254 199.952 214.979 199.148 214.597L198.534 214.306V214.306C197.271 213.683 195.774 213.777 194.602 214.551L193.234 215.455L198.126 212.223L200.98 210.974V210.974C203.161 210.7 205.377 210.922 207.462 211.625L357.511 262.171Z" fill="#AEAEAE"/>
<path d="M358.342 262.451C360.68 263.239 362.267 265.463 362.282 267.974L363.024 387.9L356.307 396.188L356.307 276.115C356.307 274.196 355.827 272.305 354.913 270.624C354.311 269.516 353.531 268.518 352.606 267.673L352.519 267.594C351.658 266.807 350.688 266.153 349.642 265.655L347.861 264.806L202.104 215.526C201.965 215.479 201.822 215.442 201.678 215.415C200.803 215.254 199.951 214.978 199.143 214.595L198.534 214.306C197.268 213.681 195.777 213.775 194.601 214.552L193.234 215.455L198.126 212.223L200.98 210.974C203.162 210.7 205.379 210.923 207.47 211.628L358.342 262.451Z" fill="#AEAEAE"/>
<path d="M192.417 318.866L356.307 375.657L356.307 396.094L192.394 337.325L192.417 318.866Z" fill="#EAEAEA" fill-opacity="0.67"/>
<path d="M192.417 219.21C192.417 215.784 195.786 213.369 199.03 214.469L352.916 266.67C354.942 267.357 356.304 269.258 356.304 271.398L356.304 376.101L192.417 319.31L192.417 219.21Z" fill="#2E2E2E"/>
<path d="M198.92 221.2L350.165 272.434L350.165 367.746L198.92 314.816L198.92 221.2Z" fill="#9BD8D8"/>
<path d="M270.681 352.043C271.081 352.101 271.466 352.249 271.809 352.478L271.966 352.583C272.317 352.817 272.724 352.942 273.136 352.941V352.941C273.43 352.94 273.722 353.004 273.994 353.126L274.341 353.283C274.639 353.417 274.91 353.609 275.14 353.848L275.295 354.009C275.509 354.231 275.663 354.507 275.741 354.807L275.814 355.088C275.873 355.314 275.85 355.552 275.751 355.758V355.758C275.644 355.98 275.454 356.148 275.224 356.224L275.148 356.25C275.028 356.29 274.916 356.35 274.816 356.43L274.765 356.47C274.558 356.635 274.399 356.854 274.303 357.105L274.239 357.271V357.271C274.092 357.655 274.122 358.09 274.319 358.46L274.482 358.764C274.514 358.823 274.556 358.875 274.607 358.917V358.917C274.802 359.08 274.851 359.365 274.72 359.577L274.491 359.947C274.454 360.007 274.411 360.062 274.362 360.111L274.099 360.38C274.003 360.478 273.896 360.564 273.779 360.635L273.516 360.794C273.217 360.975 272.848 360.996 272.522 360.849V360.849C272.422 360.804 272.329 360.744 272.245 360.672L271.714 360.212C271.436 359.972 271.082 359.852 270.727 359.878V359.878L270.113 359.877C269.579 359.876 269.052 359.707 268.605 359.391V359.391C268.222 359.122 267.911 358.755 267.704 358.329L267.425 357.756C267.221 357.335 267.075 356.888 266.993 356.428L266.929 356.067C266.757 355.1 266.942 354.113 267.448 353.301L267.496 353.222C267.589 353.073 267.696 352.934 267.814 352.806V352.806C268.42 352.153 269.299 351.843 270.185 351.971L270.681 352.043Z" fill="white"/>
<path d="M274.064 351.219C274.264 351.254 274.457 351.316 274.636 351.402L274.93 351.543L274.871 351.731C274.812 351.919 274.694 352.088 274.53 352.219V352.219C274.435 352.295 274.327 352.357 274.209 352.402L274.158 352.422C273.969 352.494 273.764 352.532 273.557 352.532L273.508 352.532C273.39 352.533 273.273 352.522 273.158 352.502L273.057 352.484C272.8 352.439 272.551 352.362 272.318 352.256L271.983 352.103L271.997 352.066C272.093 351.818 272.271 351.602 272.509 351.446V351.446C272.601 351.385 272.701 351.334 272.806 351.293L272.817 351.289C273.045 351.202 273.293 351.163 273.541 351.175L273.782 351.187C273.876 351.192 273.971 351.203 274.064 351.219V351.219Z" fill="white"/>
<path d="M259.283 361.341L295.175 374.15L304.483 388.984C305.629 390.811 305.475 393.166 304.1 394.828L290.482 411.287C289.103 412.955 286.807 413.545 284.794 412.751L242.249 395.968C238.201 394.371 238.552 388.53 242.762 387.429L261.745 382.465C264.663 381.701 266.246 378.548 265.115 375.752L259.283 361.341Z" fill="#EAEAEA"/>
<path d="M259.283 361.341L295.175 374.15L304.577 388.99C305.763 390.862 305.575 393.292 304.114 394.96L300.645 398.919L256.987 383.677L261.662 382.385C264.528 381.593 266.074 378.49 264.98 375.726L259.283 361.341Z" fill="#858585"/>
<path d="M295.175 374.15L296.231 374.527L304.811 387.902C306.539 390.598 306.081 394.145 303.724 396.313V396.313L291.922 410.976C291.469 411.538 290.951 412.044 290.377 412.481V412.481V412.481C289.679 412.98 288.896 413.346 288.067 413.563L287.882 413.612V413.612C286.926 413.737 285.958 413.741 285.001 413.623L284.876 413.608C284.387 413.548 283.907 413.425 283.45 413.242L248.061 399.118L240.528 395.896L239.472 395.357C238.601 394.912 238.001 394.07 237.866 393.101L237.674 391.731V391.731C237.855 393.026 238.692 394.137 239.887 394.669L246.573 397.647L250.293 399.118L284.139 412.481L284.648 412.618C285.012 412.715 285.386 412.778 285.761 412.807V412.807C286.212 412.841 286.668 412.824 287.115 412.757V412.757C287.497 412.699 287.873 412.604 288.238 412.474L288.745 412.293L288.754 412.29C289.194 412.104 289.61 411.865 289.992 411.577V411.577C290.439 411.239 290.843 410.849 291.196 410.414L301.893 397.224L303.831 394.726C304.297 394.126 304.615 393.426 304.761 392.681V392.681C304.884 392.053 304.894 391.408 304.791 390.776L304.681 390.099C304.587 389.527 304.38 388.98 304.07 388.489L303.045 386.864L295.175 374.15Z" fill="#B0B0B0"/>
<path d="M273.871 246.629L350.165 272.434L350.165 367.746L273.871 340.998L273.871 246.629Z" fill="#334A4B"/>
<path d="M274.063 246.629L296.807 254.352L295.751 348.721L273.871 341.092L274.063 246.629Z" fill="#1D3844"/>
<g filter="url(#filter0_d_19_230)">
<path d="M203.526 238.906L269.552 262.169L269.552 307.281L203.526 283.781L203.526 238.906Z" fill="#D9D9D9"/>
<path d="M203.526 238.906L269.552 262.169L269.552 307.281L203.526 283.781L203.526 238.906Z" fill="#D9D9D9"/>
</g>
<path d="M203.526 242.862L269.552 265.736L269.552 307.187L203.526 283.548L203.526 242.862Z" fill="white"/>
<path d="M226.558 254.163L240.953 259.354L240.953 269.421L226.558 264.177L226.558 254.163Z" fill="#D9D9D9"/>
<path d="M226.558 254.163L240.953 259.354L240.953 269.421L226.558 264.177L226.558 254.163Z" fill="#D9D9D9"/>
<path d="M209.092 248.136L223.487 253.327L223.487 263.393L209.092 258.149L209.092 248.136Z" fill="#D9D9D9"/>
<path d="M209.092 248.136L223.487 253.327L223.487 263.393L209.092 258.149L209.092 248.136Z" fill="#D9D9D9"/>
<path d="M298.73 259.467C298.744 258.963 299.24 258.613 299.719 258.77L303.016 259.852C303.331 259.955 303.54 260.252 303.531 260.584V260.584C303.518 261.088 303.022 261.438 302.543 261.281L299.245 260.199C298.931 260.096 298.722 259.799 298.73 259.467V259.467Z" fill="white"/>
<path d="M298.711 261.581C298.724 261.077 299.221 260.726 299.699 260.883L302.997 261.965C303.311 262.069 303.521 262.366 303.512 262.697V262.697C303.499 263.202 303.002 263.552 302.523 263.395L299.226 262.313C298.911 262.21 298.702 261.912 298.711 261.581V261.581Z" fill="white"/>
<path d="M298.68 263.691C298.694 263.187 299.19 262.836 299.669 262.994L302.966 264.076C303.281 264.179 303.49 264.476 303.481 264.808V264.808C303.468 265.312 302.972 265.662 302.493 265.505L299.195 264.423C298.881 264.32 298.672 264.022 298.68 263.691V263.691Z" fill="white"/>
<path d="M298.655 265.817C298.669 265.313 299.165 264.963 299.644 265.12L302.941 266.202C303.256 266.305 303.465 266.603 303.456 266.934V266.934C303.443 267.438 302.947 267.789 302.468 267.631L299.17 266.549C298.856 266.446 298.647 266.149 298.655 265.817V265.817Z" fill="white"/>
<path d="M298.632 267.914C298.645 267.41 299.141 267.06 299.62 267.217L302.917 268.299C303.232 268.402 303.441 268.699 303.433 269.031V269.031C303.419 269.535 302.923 269.885 302.444 269.728L299.147 268.646C298.832 268.543 298.623 268.246 298.632 267.914V267.914Z" fill="white"/>
<path d="M298.612 270.028C298.626 269.524 299.122 269.173 299.601 269.33L302.898 270.413C303.213 270.516 303.422 270.813 303.413 271.144V271.144C303.4 271.649 302.904 271.999 302.425 271.842L299.127 270.76C298.813 270.657 298.604 270.359 298.612 270.028V270.028Z" fill="white"/>
<path d="M298.582 272.138C298.595 271.634 299.091 271.283 299.57 271.441L302.867 272.523C303.182 272.626 303.391 272.923 303.382 273.255V273.255C303.369 273.759 302.873 274.109 302.394 273.952L299.097 272.87C298.782 272.767 298.573 272.469 298.582 272.138V272.138Z" fill="white"/>
<path d="M298.557 274.264C298.57 273.76 299.066 273.41 299.545 273.567L302.842 274.649C303.157 274.752 303.366 275.05 303.357 275.381V275.381C303.344 275.885 302.848 276.236 302.369 276.078L299.072 274.996C298.757 274.893 298.548 274.596 298.557 274.264V274.264Z" fill="white"/>
<path d="M298.009 327.29C298.022 326.786 298.518 326.436 298.997 326.593L302.295 327.675C302.609 327.778 302.819 328.075 302.81 328.407V328.407C302.797 328.911 302.3 329.261 301.822 329.104L298.524 328.022C298.209 327.919 298 327.622 298.009 327.29V327.29Z" fill="white"/>
<path d="M297.99 329.404C298.003 328.899 298.499 328.549 298.978 328.706L302.276 329.788C302.59 329.892 302.799 330.189 302.791 330.52V330.52C302.777 331.025 302.281 331.375 301.802 331.218L298.505 330.136C298.19 330.033 297.981 329.735 297.99 329.404V329.404Z" fill="white"/>
<path d="M297.959 331.514C297.972 331.01 298.469 330.659 298.947 330.816L302.245 331.899C302.56 332.002 302.769 332.299 302.76 332.631V332.631C302.747 333.135 302.25 333.485 301.772 333.328L298.474 332.246C298.16 332.143 297.95 331.845 297.959 331.514V331.514Z" fill="white"/>
<path d="M297.934 333.64C297.947 333.136 298.444 332.786 298.922 332.943L302.22 334.025C302.535 334.128 302.744 334.426 302.735 334.757V334.757C302.722 335.261 302.226 335.612 301.747 335.454L298.449 334.372C298.135 334.269 297.925 333.972 297.934 333.64V333.64Z" fill="white"/>
<path d="M297.911 335.737C297.924 335.233 298.42 334.883 298.899 335.04L302.197 336.122C302.511 336.225 302.72 336.522 302.712 336.854V336.854C302.698 337.358 302.202 337.708 301.723 337.551L298.426 336.469C298.111 336.366 297.902 336.069 297.911 335.737V335.737Z" fill="white"/>
<path d="M297.891 337.851C297.905 337.346 298.401 336.996 298.88 337.153L302.177 338.236C302.492 338.339 302.701 338.636 302.692 338.967V338.967C302.679 339.472 302.183 339.822 301.704 339.665L298.406 338.583C298.092 338.48 297.883 338.182 297.891 337.851V337.851Z" fill="white"/>
<path d="M297.861 339.966C297.874 339.459 298.373 339.107 298.854 339.265L302.13 340.34C302.455 340.447 302.671 340.753 302.663 341.095V341.095C302.651 341.623 302.129 341.987 301.63 341.816L298.369 340.698C298.058 340.592 297.852 340.295 297.861 339.966V339.966Z" fill="white"/>
<path d="M297.835 342.112C297.849 341.602 298.358 341.255 298.836 341.429L302.162 342.641C302.463 342.751 302.66 343.041 302.65 343.362V343.362C302.634 343.871 302.124 344.217 301.647 344.042L298.322 342.828C298.023 342.719 297.827 342.431 297.835 342.112V342.112Z" fill="white"/>
<path d="M297.817 344.363C297.83 343.848 298.348 343.499 298.83 343.68L302.163 344.937C302.457 345.048 302.657 345.324 302.671 345.639V345.639C302.695 346.214 302.117 346.623 301.584 346.408L298.282 345.073C297.994 344.957 297.809 344.674 297.817 344.363V344.363Z" fill="white"/>
<path d="M297.817 344.363C297.83 343.848 298.348 343.499 298.83 343.68L302.163 344.937C302.457 345.048 302.657 345.324 302.671 345.639V345.639C302.695 346.214 302.117 346.623 301.584 346.408L298.282 345.073C297.994 344.957 297.809 344.674 297.817 344.363V344.363Z" fill="white"/>
<path d="M298.557 276.438C298.571 275.933 299.067 275.583 299.546 275.74L302.843 276.822C303.158 276.926 303.367 277.223 303.358 277.554V277.554C303.345 278.059 302.849 278.409 302.37 278.252L299.072 277.17C298.758 277.066 298.549 276.769 298.557 276.438V276.438Z" fill="white"/>
<path d="M298.538 278.551C298.551 278.047 299.047 277.697 299.526 277.854L302.824 278.936C303.138 279.039 303.347 279.336 303.339 279.668V279.668C303.325 280.172 302.829 280.523 302.35 280.365L299.053 279.283C298.738 279.18 298.529 278.883 298.538 278.551V278.551Z" fill="white"/>
<path d="M298.507 280.662C298.52 280.157 299.017 279.807 299.496 279.964L302.793 281.046C303.108 281.149 303.317 281.447 303.308 281.778V281.778C303.295 282.282 302.798 282.633 302.32 282.476L299.022 281.393C298.708 281.29 298.498 280.993 298.507 280.662V280.662Z" fill="white"/>
<path d="M298.482 282.788C298.495 282.284 298.992 281.933 299.471 282.09L302.768 283.172C303.083 283.276 303.292 283.573 303.283 283.904V283.904C303.27 284.409 302.773 284.759 302.295 284.602L298.997 283.52C298.683 283.417 298.473 283.119 298.482 282.788V282.788Z" fill="white"/>
<path d="M298.459 284.885C298.472 284.38 298.968 284.03 299.447 284.187L302.744 285.269C303.059 285.373 303.268 285.67 303.259 286.001V286.001C303.246 286.506 302.75 286.856 302.271 286.699L298.974 285.617C298.659 285.513 298.45 285.216 298.459 284.885V284.885Z" fill="white"/>
<path d="M298.439 286.998C298.452 286.494 298.949 286.144 299.428 286.301L302.725 287.383C303.04 287.486 303.249 287.784 303.24 288.115V288.115C303.227 288.619 302.73 288.97 302.252 288.812L298.954 287.73C298.64 287.627 298.43 287.33 298.439 286.998V286.998Z" fill="white"/>
<path d="M298.408 289.109C298.422 288.604 298.918 288.254 299.397 288.411L302.694 289.493C303.009 289.596 303.218 289.894 303.209 290.225V290.225C303.196 290.729 302.7 291.08 302.221 290.923L298.923 289.84C298.609 289.737 298.4 289.44 298.408 289.109V289.109Z" fill="white"/>
<path d="M298.383 291.235C298.397 290.731 298.893 290.38 299.372 290.537L302.669 291.62C302.984 291.723 303.193 292.02 303.184 292.351V292.351C303.171 292.856 302.675 293.206 302.196 293.049L298.898 291.967C298.584 291.864 298.375 291.566 298.383 291.235V291.235Z" fill="white"/>
<path d="M298.364 293.349C298.377 292.844 298.873 292.494 299.352 292.651L302.65 293.733C302.964 293.836 303.174 294.134 303.165 294.465V294.465C303.151 294.97 302.655 295.32 302.176 295.163L298.879 294.081C298.564 293.977 298.355 293.68 298.364 293.349V293.349Z" fill="white"/>
<path d="M298.345 295.462C298.358 294.958 298.854 294.608 299.333 294.765L302.63 295.847C302.945 295.95 303.154 296.247 303.145 296.579V296.579C303.132 297.083 302.636 297.433 302.157 297.276L298.86 296.194C298.545 296.091 298.336 295.794 298.345 295.462V295.462Z" fill="white"/>
<path d="M298.314 297.572C298.327 297.068 298.823 296.718 299.302 296.875L302.6 297.957C302.914 298.06 303.123 298.358 303.115 298.689V298.689C303.101 299.193 302.605 299.544 302.126 299.386L298.829 298.304C298.514 298.201 298.305 297.904 298.314 297.572V297.572Z" fill="white"/>
<path d="M298.289 299.699C298.302 299.194 298.798 298.844 299.277 299.001L302.575 300.083C302.889 300.187 303.098 300.484 303.09 300.815V300.815C303.076 301.32 302.58 301.67 302.101 301.513L298.804 300.431C298.489 300.328 298.28 300.03 298.289 299.699V299.699Z" fill="white"/>
<path d="M298.265 301.796C298.278 301.291 298.775 300.941 299.254 301.098L302.551 302.18C302.866 302.283 303.075 302.581 303.066 302.912V302.912C303.053 303.417 302.557 303.767 302.078 303.61L298.78 302.528C298.466 302.424 298.256 302.127 298.265 301.796V301.796Z" fill="white"/>
<path d="M298.246 303.909C298.259 303.405 298.755 303.055 299.234 303.212L302.532 304.294C302.846 304.397 303.055 304.694 303.047 305.026V305.026C303.033 305.53 302.537 305.88 302.058 305.723L298.761 304.641C298.446 304.538 298.237 304.241 298.246 303.909V303.909Z" fill="white"/>
<path d="M298.215 306.019C298.228 305.515 298.725 305.165 299.203 305.322L302.501 306.404C302.816 306.507 303.025 306.805 303.016 307.136V307.136C303.003 307.64 302.506 307.991 302.028 307.833L298.73 306.751C298.416 306.648 298.206 306.351 298.215 306.019V306.019Z" fill="white"/>
<path d="M298.19 308.146C298.203 307.641 298.7 307.291 299.178 307.448L302.476 308.53C302.791 308.634 303 308.931 302.991 309.262V309.262C302.978 309.767 302.481 310.117 302.003 309.96L298.705 308.878C298.391 308.775 298.181 308.477 298.19 308.146V308.146Z" fill="white"/>
<path d="M298.191 310.319C298.204 309.815 298.701 309.465 299.179 309.622L302.477 310.704C302.791 310.807 303.001 311.104 302.992 311.436V311.436C302.979 311.94 302.482 312.29 302.004 312.133L298.706 311.051C298.392 310.948 298.182 310.651 298.191 310.319V310.319Z" fill="white"/>
<path d="M298.172 312.433C298.185 311.928 298.681 311.578 299.16 311.735L302.458 312.817C302.772 312.921 302.981 313.218 302.973 313.549V313.549C302.959 314.054 302.463 314.404 301.984 314.247L298.687 313.165C298.372 313.062 298.163 312.764 298.172 312.433V312.433Z" fill="white"/>
<path d="M298.141 314.543C298.154 314.039 298.651 313.688 299.129 313.845L302.427 314.928C302.741 315.031 302.951 315.328 302.942 315.659V315.659C302.929 316.164 302.432 316.514 301.953 316.357L298.656 315.275C298.341 315.172 298.132 314.874 298.141 314.543V314.543Z" fill="white"/>
<path d="M298.116 316.669C298.129 316.165 298.626 315.815 299.104 315.972L302.402 317.054C302.716 317.157 302.926 317.454 302.917 317.786V317.786C302.904 318.29 302.407 318.641 301.928 318.483L298.631 317.401C298.316 317.298 298.107 317.001 298.116 316.669V316.669Z" fill="white"/>
<path d="M298.092 318.766C298.106 318.262 298.602 317.912 299.081 318.069L302.378 319.151C302.693 319.254 302.902 319.551 302.893 319.883V319.883C302.88 320.387 302.384 320.737 301.905 320.58L298.607 319.498C298.293 319.395 298.084 319.098 298.092 318.766V318.766Z" fill="white"/>
<path d="M298.073 320.88C298.086 320.375 298.582 320.025 299.061 320.182L302.359 321.264C302.673 321.368 302.883 321.665 302.874 321.996V321.996C302.861 322.501 302.364 322.851 301.885 322.694L298.588 321.612C298.273 321.509 298.064 321.211 298.073 320.88V320.88Z" fill="white"/>
<path d="M298.042 322.99C298.056 322.486 298.552 322.135 299.031 322.293L302.328 323.375C302.643 323.478 302.852 323.775 302.843 324.106V324.106C302.83 324.611 302.334 324.961 301.855 324.804L298.557 323.722C298.243 323.619 298.034 323.321 298.042 322.99V322.99Z" fill="white"/>
<path d="M298.017 325.116C298.031 324.612 298.527 324.262 299.006 324.419L302.303 325.501C302.618 325.604 302.827 325.901 302.818 326.233V326.233C302.805 326.737 302.309 327.088 301.83 326.93L298.532 325.848C298.218 325.745 298.009 325.448 298.017 325.116V325.116Z" fill="white"/>
<path d="M324.368 268.036C324.381 267.531 324.878 267.18 325.358 267.336L332.12 269.543C332.442 269.648 332.657 269.95 332.652 270.289V270.289C332.644 270.814 332.127 271.181 331.63 271.016L324.881 268.769C324.567 268.665 324.359 268.367 324.368 268.036V268.036Z" fill="#BAFF99"/>
<path d="M324.002 270.072C324.015 269.568 324.512 269.218 324.99 269.375L328.288 270.457C328.603 270.56 328.812 270.857 328.803 271.189V271.189C328.79 271.693 328.293 272.043 327.815 271.886L324.517 270.804C324.203 270.701 323.993 270.404 324.002 270.072V270.072Z" fill="#BAFF99"/>
<path d="M327.724 273.348C327.737 272.844 328.233 272.494 328.712 272.651L332.01 273.733C332.324 273.836 332.533 274.134 332.525 274.465V274.465C332.511 274.969 332.015 275.32 331.536 275.162L328.239 274.08C327.924 273.977 327.715 273.68 327.724 273.348V273.348Z" fill="#BAFF99"/>
<path d="M322.824 278.028C322.838 277.524 323.334 277.174 323.813 277.331L327.11 278.413C327.425 278.516 327.634 278.814 327.625 279.145V279.145C327.612 279.649 327.116 280 326.637 279.842L323.339 278.76C323.025 278.657 322.816 278.36 322.824 278.028V278.028Z" fill="#BAFF99"/>
<path d="M320.428 279.35C320.441 278.845 320.937 278.495 321.415 278.652L326.544 280.327C326.856 280.429 327.065 280.723 327.059 281.051V281.051C327.05 281.557 326.554 281.911 326.074 281.754L320.944 280.082C320.629 279.979 320.419 279.682 320.428 279.35V279.35Z" fill="white"/>
<path d="M320.427 281.484C320.44 280.98 320.936 280.629 321.415 280.786L324.712 281.868C325.027 281.972 325.236 282.269 325.227 282.6V282.6C325.214 283.105 324.718 283.455 324.239 283.298L320.942 282.216C320.627 282.113 320.418 281.815 320.427 281.484V281.484Z" fill="white"/>
<path d="M322.923 337.649C322.936 337.145 323.432 336.794 323.911 336.951L327.209 338.034C327.523 338.137 327.732 338.434 327.724 338.765V338.765C327.71 339.27 327.214 339.62 326.735 339.463L323.438 338.381C323.123 338.278 322.914 337.98 322.923 337.649V337.649Z" fill="#FFA901"/>
<path d="M321.945 339.484C321.959 338.98 322.453 338.63 322.932 338.784L338.995 343.944C339.316 344.047 339.531 344.348 339.525 344.685V344.685C339.517 345.202 339.011 345.564 338.52 345.406L322.465 340.219C322.148 340.117 321.937 339.818 321.945 339.484V339.484Z" fill="#87E2FF"/>
<path d="M336.38 352.952C336.414 352.355 337.007 351.951 337.575 352.138L342.308 353.693C342.706 353.824 342.967 354.206 342.943 354.625V354.625C342.909 355.241 342.297 355.656 341.714 355.459L336.994 353.865C336.607 353.734 336.356 353.361 336.38 352.952V352.952Z" fill="#87E2FF"/>
<path d="M315.856 350.99C315.829 350.354 316.458 349.893 317.055 350.11L332.836 355.849C333.183 355.975 333.42 356.299 333.436 356.669V356.669C333.464 357.323 332.816 357.798 332.201 357.572L316.438 351.786C316.101 351.663 315.872 351.349 315.856 350.99V350.99Z" fill="#FFA901"/>
<path d="M322.826 284.395C322.839 283.891 323.336 283.54 323.814 283.697L339.062 288.701C339.359 288.799 339.565 289.07 339.578 289.383V289.383C339.6 289.91 339.088 290.298 338.588 290.134L323.341 285.127C323.026 285.024 322.817 284.726 322.826 284.395V284.395Z" fill="white"/>
<path d="M324.469 287.155C324.482 286.651 324.979 286.301 325.458 286.458L328.755 287.54C329.07 287.643 329.279 287.94 329.27 288.272V288.272C329.257 288.776 328.76 289.127 328.282 288.969L324.984 287.887C324.67 287.784 324.46 287.487 324.469 287.155V287.155Z" fill="#87E2FF"/>
<path d="M328.187 290.505C328.2 290 328.696 289.65 329.175 289.807L332.472 290.889C332.787 290.993 332.996 291.29 332.987 291.621V291.621C332.974 292.126 332.478 292.476 331.999 292.319L328.702 291.237C328.387 291.134 328.178 290.836 328.187 290.505V290.505Z" fill="#87E2FF"/>
<path d="M338.753 296.034C338.766 295.529 339.263 295.179 339.741 295.336L343.039 296.418C343.353 296.522 343.563 296.819 343.554 297.15V297.15C343.541 297.655 343.044 298.005 342.566 297.848L339.268 296.766C338.953 296.663 338.744 296.365 338.753 296.034V296.034Z" fill="white"/>
<path d="M331.644 295.865C331.653 295.359 332.15 295.006 332.63 295.164L341.236 297.998C341.55 298.102 341.759 298.398 341.75 298.729V298.729C341.737 299.234 341.24 299.584 340.761 299.426L332.156 296.588C331.846 296.486 331.638 296.193 331.644 295.865V295.865Z" fill="white"/>
<path d="M331.259 297.846C331.273 297.342 331.769 296.993 332.246 297.151L337.974 299.048C338.275 299.147 338.475 299.431 338.469 299.748V299.748C338.459 300.235 337.982 300.576 337.52 300.427L331.776 298.576C331.461 298.474 331.251 298.177 331.259 297.846V297.846Z" fill="#87E2FF"/>
<path d="M334.61 303.093C334.623 302.59 335.113 302.237 335.594 302.385L344.609 305.164C344.949 305.269 345.179 305.586 345.174 305.942V305.942C345.167 306.484 344.638 306.866 344.122 306.702L335.135 303.834C334.815 303.731 334.601 303.43 334.61 303.093V303.093Z" fill="white"/>
<path d="M324.063 306.086C324.077 305.581 324.573 305.231 325.052 305.388L328.349 306.47C328.664 306.573 328.873 306.871 328.864 307.202V307.202C328.851 307.707 328.355 308.057 327.876 307.9L324.579 306.818C324.264 306.714 324.055 306.417 324.063 306.086V306.086Z" fill="#87E2FF"/>
<path d="M334.614 311.709C334.627 311.205 335.123 310.855 335.602 311.012L338.9 312.094C339.214 312.197 339.424 312.494 339.415 312.826V312.826C339.401 313.33 338.905 313.68 338.426 313.523L335.129 312.441C334.814 312.338 334.605 312.041 334.614 311.709V311.709Z" fill="white"/>
<path d="M334.091 315.738C334.104 315.234 334.597 314.883 335.077 315.035L341.609 317.114C341.946 317.222 342.165 317.548 342.138 317.902V317.902C342.099 318.397 341.608 318.727 341.137 318.575L334.612 316.474C334.294 316.371 334.082 316.072 334.091 315.738V315.738Z" fill="#87E2FF"/>
<path d="M324.197 316.797C324.21 316.291 324.707 315.939 325.188 316.096L334.577 319.145C334.924 319.258 335.153 319.59 335.134 319.955V319.955C335.107 320.494 334.572 320.859 334.062 320.687L324.709 317.531C324.396 317.425 324.188 317.128 324.197 316.797V316.797Z" fill="white"/>
<path d="M319.198 266.191C319.211 265.687 319.708 265.337 320.186 265.494L323.484 266.576C323.798 266.679 324.008 266.977 323.999 267.308V267.308C323.986 267.812 323.489 268.163 323.01 268.005L319.713 266.923C319.398 266.82 319.189 266.523 319.198 266.191V266.191Z" fill="#87E2FF"/>
<path d="M318.799 268.23C318.812 267.725 319.309 267.375 319.787 267.532L323.085 268.614C323.4 268.717 323.609 269.015 323.6 269.346V269.346C323.587 269.851 323.09 270.201 322.612 270.044L319.314 268.962C319 268.858 318.79 268.561 318.799 268.23V268.23Z" fill="#87E2FF"/>
<path d="M319.148 270.414C319.161 269.911 319.657 269.561 320.134 269.719L326.778 271.913C327.079 272.013 327.28 272.297 327.273 272.614V272.614C327.264 273.1 326.787 273.441 326.324 273.292L319.665 271.145C319.349 271.043 319.139 270.746 319.148 270.414V270.414Z" fill="#87E2FF"/>
<path d="M317.418 276.277C317.432 275.772 317.928 275.422 318.407 275.579L321.704 276.661C322.019 276.765 322.228 277.062 322.219 277.393V277.393C322.206 277.898 321.71 278.248 321.231 278.091L317.933 277.009C317.619 276.905 317.41 276.608 317.418 276.277V276.277Z" fill="white"/>
<path d="M315.064 277.555C315.077 277.05 315.574 276.7 316.052 276.857L319.35 277.939C319.665 278.042 319.874 278.34 319.865 278.671V278.671C319.852 279.176 319.355 279.526 318.877 279.369L315.579 278.287C315.265 278.183 315.055 277.886 315.064 277.555V277.555Z" fill="#87E2FF"/>
<path d="M315.046 279.683C315.06 279.179 315.556 278.829 316.035 278.986L319.332 280.068C319.647 280.171 319.856 280.468 319.847 280.8V280.8C319.834 281.304 319.338 281.655 318.859 281.497L315.561 280.415C315.247 280.312 315.038 280.015 315.046 279.683V279.683Z" fill="#87E2FF"/>
<path d="M323.957 335.889C323.97 335.383 324.464 335.03 324.946 335.182L332.878 337.687C333.238 337.801 333.472 338.145 333.447 338.522V338.522C333.411 339.057 332.878 339.416 332.369 339.247L324.474 336.626C324.158 336.521 323.948 336.222 323.957 335.889V335.889Z" fill="#BAFF99"/>
<path d="M317.446 335.85C317.459 335.345 317.955 334.995 318.434 335.152L321.732 336.234C322.046 336.338 322.256 336.635 322.247 336.966V336.966C322.233 337.471 321.737 337.821 321.258 337.664L317.961 336.582C317.646 336.478 317.437 336.181 317.446 335.85V335.85Z" fill="white"/>
<path d="M314.158 336.913C314.167 336.406 314.664 336.051 315.145 336.207L320.743 338.023C321.066 338.127 321.282 338.43 321.277 338.769V338.769C321.268 339.294 320.752 339.661 320.255 339.496L314.671 337.638C314.36 337.535 314.152 337.241 314.158 336.913V336.913Z" fill="#FF69B1"/>
<path d="M318.407 340.482C318.42 339.978 318.914 339.626 319.394 339.779L330.197 343.236C330.544 343.347 330.77 343.681 330.743 344.046V344.046C330.705 344.561 330.194 344.905 329.704 344.744L318.925 341.217C318.608 341.114 318.398 340.815 318.407 340.482V340.482Z" fill="white"/>
<path d="M333.18 347.479C333.193 346.974 333.69 346.624 334.169 346.781L337.466 347.863C337.781 347.967 337.99 348.264 337.981 348.595V348.595C337.968 349.1 337.472 349.45 336.993 349.293L333.695 348.211C333.381 348.108 333.171 347.81 333.18 347.479V347.479Z" fill="white"/>
<path d="M326.931 347.477C326.944 346.972 327.441 346.622 327.92 346.779L331.217 347.861C331.532 347.965 331.741 348.262 331.732 348.593V348.593C331.719 349.098 331.222 349.448 330.744 349.291L327.446 348.209C327.132 348.106 326.922 347.808 326.931 347.477V347.477Z" fill="white"/>
<path d="M326.925 349.784C326.932 349.197 327.511 348.787 328.066 348.975L335.051 351.343C335.424 351.469 335.665 351.83 335.641 352.223V352.223C335.605 352.801 335.028 353.187 334.481 353L327.505 350.608C327.154 350.487 326.92 350.155 326.925 349.784V349.784Z" fill="white"/>
<path d="M323.026 350.878C323.062 350.295 323.644 349.906 324.195 350.097L339.333 355.331C339.789 355.488 340.069 355.947 340.001 356.425V356.425C339.911 357.064 339.255 357.459 338.65 357.239L323.601 351.757C323.236 351.624 323.002 351.267 323.026 350.878V350.878Z" fill="#BAFF99"/>
<path d="M317.335 282.617C317.349 282.112 317.845 281.762 318.324 281.919L321.621 283.001C321.936 283.105 322.145 283.402 322.136 283.733V283.733C322.123 284.238 321.627 284.588 321.148 284.431L317.85 283.349C317.536 283.245 317.326 282.948 317.335 282.617V282.617Z" fill="#BAFF99"/>
<path d="M318.996 285.327C319.009 284.822 319.505 284.472 319.984 284.629L323.282 285.711C323.596 285.814 323.805 286.112 323.797 286.443V286.443C323.783 286.947 323.287 287.298 322.808 287.141L319.511 286.058C319.196 285.955 318.987 285.658 318.996 285.327V285.327Z" fill="#FF69B1"/>
<path d="M322.753 288.731C322.766 288.227 323.263 287.876 323.741 288.033L327.039 289.116C327.353 289.219 327.563 289.516 327.554 289.847V289.847C327.541 290.352 327.044 290.702 326.566 290.545L323.268 289.463C322.954 289.36 322.744 289.062 322.753 288.731V288.731Z" fill="#FF69B1"/>
<path d="M329.188 292.911C329.202 292.405 329.701 292.056 330.179 292.216L337.616 294.706C337.928 294.811 338.135 295.107 338.126 295.436V295.436C338.112 295.942 337.613 296.291 337.134 296.131L329.698 293.64C329.386 293.536 329.18 293.24 329.188 292.911V292.911Z" fill="#BAFF99"/>
<path d="M326.079 294.089C326.092 293.585 326.588 293.235 327.067 293.392L330.365 294.474C330.679 294.577 330.888 294.875 330.88 295.206V295.206C330.866 295.71 330.37 296.061 329.891 295.903L326.594 294.821C326.279 294.718 326.07 294.421 326.079 294.089V294.089Z" fill="#FF69B1"/>
<path d="M325.884 296.102C325.898 295.598 326.394 295.247 326.873 295.405L330.17 296.487C330.485 296.59 330.694 296.887 330.685 297.219V297.219C330.672 297.723 330.176 298.073 329.697 297.916L326.399 296.834C326.085 296.731 325.876 296.433 325.884 296.102V296.102Z" fill="#FF69B1"/>
<path d="M329.465 299.402C329.479 298.901 329.969 298.551 330.446 298.702L344.311 303.086C344.607 303.179 344.805 303.456 344.797 303.766V303.766C344.787 304.231 344.334 304.558 343.891 304.421L329.994 300.139C329.672 300.04 329.456 299.739 329.465 299.402V299.402Z" fill="white"/>
<path d="M320.579 300.666C320.592 300.161 321.088 299.811 321.567 299.968L324.865 301.05C325.179 301.153 325.388 301.451 325.38 301.782V301.782C325.366 302.286 324.87 302.637 324.391 302.48L321.094 301.398C320.779 301.294 320.57 300.997 320.579 300.666V300.666Z" fill="#FF6464"/>
<path d="M318.554 304.341C318.568 303.837 319.064 303.486 319.543 303.644L322.84 304.726C323.155 304.829 323.364 305.126 323.355 305.458V305.458C323.342 305.962 322.846 306.312 322.367 306.155L319.069 305.073C318.755 304.97 318.546 304.672 318.554 304.341V304.341Z" fill="#FF69B1"/>
<path d="M328.529 309.737C328.542 309.231 329.04 308.879 329.521 309.036L333.309 310.275C333.633 310.381 333.849 310.687 333.841 311.028V311.028C333.829 311.552 333.311 311.915 332.815 311.747L329.039 310.47C328.727 310.364 328.52 310.067 328.529 309.737V309.737Z" fill="#87E2FF"/>
<path d="M331.324 312.705C331.337 312.201 331.834 311.851 332.312 312.008L335.61 313.09C335.925 313.193 336.134 313.49 336.125 313.822V313.822C336.112 314.326 335.615 314.676 335.137 314.519L331.839 313.437C331.525 313.334 331.315 313.037 331.324 312.705V312.705Z" fill="#FF69B1"/>
<path d="M318.719 310.753C318.732 310.249 319.228 309.899 319.706 310.056L332.826 314.348C333.138 314.45 333.347 314.744 333.341 315.072V315.072C333.332 315.578 332.836 315.931 332.356 315.775L319.235 311.486C318.919 311.383 318.71 311.085 318.719 310.753V310.753Z" fill="#FFA901"/>
<path d="M318.688 312.861C318.701 312.357 319.196 312.007 319.675 312.161L338.245 318.156C338.582 318.265 338.799 318.59 338.772 318.943V318.943C338.733 319.438 338.241 319.769 337.769 319.615L319.206 313.595C318.89 313.493 318.679 313.194 318.688 312.861V312.861Z" fill="white"/>
<path d="M318.663 314.991C318.676 314.486 319.172 314.136 319.651 314.293L322.949 315.375C323.263 315.478 323.472 315.776 323.464 316.107V316.107C323.45 316.612 322.954 316.962 322.475 316.805L319.178 315.723C318.863 315.619 318.654 315.322 318.663 314.991V314.991Z" fill="#87E2FF"/>
<path d="M318.803 321.429C318.811 320.903 319.328 320.536 319.826 320.701L343.282 328.47C343.593 328.573 343.8 328.866 343.794 329.194V329.194C343.785 329.7 343.288 330.054 342.808 329.896L319.334 322.176C319.013 322.07 318.797 321.768 318.803 321.429V321.429Z" fill="#BAFF99"/>
<path d="M315.709 322.619C315.686 322.088 316.2 321.697 316.705 321.86L324.911 324.512C325.233 324.616 325.455 324.909 325.469 325.246V325.246C325.493 325.815 324.939 326.232 324.4 326.051L316.224 323.305C315.927 323.205 315.722 322.932 315.709 322.619V322.619Z" fill="white"/>
<path d="M312.456 323.579C312.47 323.073 312.97 322.723 313.449 322.884L319.668 324.977C319.964 325.077 320.168 325.349 320.181 325.661V325.661C320.204 326.194 319.683 326.585 319.178 326.414L312.964 324.307C312.653 324.202 312.448 323.907 312.456 323.579V323.579Z" fill="#87E2FF"/>
<path d="M313.919 264.489C313.932 263.986 314.426 263.638 314.903 263.794L318.227 264.885C318.529 264.984 318.732 265.267 318.728 265.586V265.586C318.722 266.077 318.242 266.425 317.774 266.277L314.439 265.22C314.122 265.12 313.91 264.822 313.919 264.489V264.489Z" fill="white"/>
<path d="M312.838 266.26C312.851 265.755 313.349 265.406 313.827 265.564L317.741 266.86C318.051 266.963 318.258 267.256 318.252 267.583V267.583C318.243 268.089 317.746 268.443 317.266 268.284L313.351 266.991C313.038 266.887 312.829 266.591 312.838 266.26V266.26Z" fill="white"/>
<path d="M313.868 268.717C313.882 268.212 314.378 267.862 314.857 268.019L318.154 269.101C318.469 269.204 318.678 269.502 318.669 269.833V269.833C318.656 270.338 318.16 270.688 317.681 270.531L314.383 269.449C314.069 269.345 313.86 269.048 313.868 268.717V268.717Z" fill="white"/>
<path d="M312.191 274.526C312.205 274.021 312.701 273.671 313.18 273.828L316.477 274.91C316.792 275.013 317.001 275.311 316.992 275.642V275.642C316.979 276.146 316.483 276.497 316.004 276.34L312.706 275.258C312.392 275.154 312.183 274.857 312.191 274.526V274.526Z" fill="#FFA901"/>
<path d="M309.771 275.852C309.784 275.347 310.281 274.997 310.759 275.154L314.057 276.236C314.371 276.339 314.581 276.637 314.572 276.968V276.968C314.559 277.472 314.062 277.823 313.583 277.666L310.286 276.583C309.971 276.48 309.762 276.183 309.771 275.852V275.852Z" fill="#FFA901"/>
<path d="M309.753 277.98C309.767 277.476 310.263 277.126 310.742 277.283L314.039 278.365C314.354 278.468 314.563 278.765 314.554 279.097V279.097C314.541 279.601 314.045 279.951 313.566 279.794L310.268 278.712C309.954 278.609 309.744 278.312 309.753 277.98V277.98Z" fill="#FFA901"/>
<path d="M313.499 332.423C313.513 331.918 314.009 331.567 314.489 331.724L322.675 334.399C322.997 334.504 323.213 334.807 323.207 335.146V335.146C323.199 335.67 322.683 336.037 322.186 335.872L314.013 333.156C313.699 333.052 313.491 332.754 313.499 332.423V332.423Z" fill="white"/>
<path d="M308.804 333.035C308.817 332.531 309.311 332.181 309.79 332.335L316.438 334.479C316.752 334.58 316.962 334.875 316.956 335.205V335.205C316.947 335.71 316.453 336.064 315.973 335.91L309.323 333.769C309.006 333.667 308.795 333.368 308.804 333.035V333.035Z" fill="#87E2FF"/>
<path d="M308.783 335.107C308.796 334.603 309.293 334.253 309.772 334.41L313.069 335.492C313.384 335.595 313.593 335.892 313.584 336.224V336.224C313.571 336.728 313.075 337.078 312.596 336.921L309.298 335.839C308.984 335.736 308.774 335.439 308.783 335.107V335.107Z" fill="#FF6464"/>
<path d="M313.122 338.666C313.135 338.161 313.632 337.811 314.11 337.968L317.408 339.05C317.723 339.154 317.932 339.451 317.923 339.782V339.782C317.91 340.287 317.413 340.637 316.935 340.48L313.637 339.398C313.323 339.295 313.113 338.997 313.122 338.666V338.666Z" fill="#FF6464"/>
<path d="M316.268 341.848C316.281 341.343 316.778 340.992 317.257 341.149L331.974 345.961C332.298 346.067 332.515 346.371 332.51 346.713V346.713C332.502 347.241 331.982 347.611 331.481 347.445L316.782 342.58C316.468 342.477 316.259 342.179 316.268 341.848V341.848Z" fill="#FFA901"/>
<path d="M316.249 343.949C316.262 343.444 316.76 343.094 317.239 343.253L325.748 346.093C326.057 346.196 326.263 346.488 326.257 346.815V346.815C326.248 347.321 325.75 347.674 325.27 347.514L316.76 344.678C316.447 344.574 316.24 344.278 316.249 343.949V343.949Z" fill="#FF69B1"/>
<path d="M316.159 346.063C316.172 345.555 316.674 345.204 317.154 345.366L325.716 348.255C326.043 348.366 326.262 348.674 326.257 349.02V349.02C326.25 349.566 325.708 349.946 325.193 349.766L316.661 346.791C316.353 346.684 316.15 346.389 316.159 346.063V346.063Z" fill="#FF69B1"/>
<path d="M316.007 348.441C316.043 347.862 316.621 347.475 317.169 347.664L321.702 349.23C322.072 349.358 322.312 349.717 322.287 350.109V350.109C322.252 350.688 321.673 351.075 321.125 350.886L316.592 349.32C316.222 349.192 315.983 348.833 316.007 348.441V348.441Z" fill="white"/>
<path d="M313.746 281.461C313.759 280.955 314.254 280.602 314.735 280.754L316.242 281.23C316.567 281.333 316.785 281.636 316.78 281.976V281.976C316.771 282.499 316.256 282.865 315.761 282.699L314.262 282.199C313.946 282.093 313.737 281.794 313.746 281.461V281.461Z" fill="white"/>
<path d="M313.714 283.573C313.727 283.069 314.224 282.718 314.702 282.875L317.784 283.887C318.227 284.032 318.521 284.45 318.509 284.917V284.917V284.917C318.499 285.308 318.114 285.58 317.742 285.458L314.229 284.305C313.914 284.202 313.705 283.904 313.714 283.573V283.573Z" fill="#FF6464"/>
<path d="M317.386 286.898C317.4 286.394 317.896 286.044 318.375 286.201L321.672 287.283C321.987 287.386 322.196 287.683 322.187 288.015V288.015C322.174 288.519 321.678 288.869 321.199 288.712L317.901 287.63C317.587 287.527 317.378 287.23 317.386 286.898V286.898Z" fill="#FF6464"/>
<path d="M320.62 292.277C320.633 291.773 321.13 291.423 321.608 291.58L324.906 292.662C325.22 292.765 325.43 293.062 325.421 293.394V293.394C325.408 293.898 324.911 294.248 324.433 294.091L321.135 293.009C320.82 292.906 320.611 292.609 320.62 292.277V292.277Z" fill="#FFA901"/>
<path d="M320.521 294.407C320.534 293.902 321.031 293.552 321.509 293.709L324.807 294.791C325.121 294.895 325.331 295.192 325.322 295.523V295.523C325.309 296.028 324.812 296.378 324.333 296.221L321.036 295.139C320.721 295.035 320.512 294.738 320.521 294.407V294.407Z" fill="#FF6464"/>
<path d="M324.094 297.597C324.107 297.093 324.603 296.743 325.082 296.9L328.38 297.982C328.694 298.085 328.904 298.383 328.895 298.714V298.714C328.881 299.218 328.385 299.569 327.906 299.411L324.609 298.329C324.294 298.226 324.085 297.929 324.094 297.597V297.597Z" fill="#87E2FF"/>
<path d="M324.103 299.726C324.117 299.222 324.611 298.871 325.09 299.024L333.502 301.715C333.828 301.819 334.046 302.123 334.04 302.464V302.464C334.032 302.989 333.519 303.356 333.021 303.194L324.622 300.462C324.305 300.359 324.094 300.06 324.103 299.726V299.726Z" fill="white"/>
<path d="M317.322 301.662C317.335 301.157 317.832 300.807 318.31 300.964L321.608 302.046C321.923 302.149 322.132 302.447 322.123 302.778V302.778C322.11 303.282 321.613 303.633 321.135 303.476L317.837 302.393C317.523 302.29 317.313 301.993 317.322 301.662V301.662Z" fill="#FF6464"/>
<path d="M313.148 302.482C313.161 301.977 313.657 301.627 314.136 301.784L317.434 302.866C317.748 302.969 317.957 303.267 317.949 303.598V303.598C317.935 304.103 317.439 304.453 316.96 304.296L315.527 303.826L313.663 303.214C313.348 303.11 313.139 302.813 313.148 302.482V302.482Z" fill="#FF6464"/>
<path d="M316.809 305.819C316.822 305.314 317.319 304.963 317.798 305.12L327.343 308.244C327.665 308.349 327.881 308.652 327.876 308.991V308.991C327.867 309.516 327.351 309.883 326.853 309.718L317.322 306.551C317.008 306.447 316.8 306.15 316.809 305.819V305.819Z" fill="white"/>
<path d="M316.79 307.917C316.803 307.412 317.3 307.062 317.778 307.22L330.241 311.331C330.551 311.434 330.759 311.726 330.753 312.054V312.054C330.744 312.56 330.247 312.913 329.767 312.755L317.303 308.648C316.989 308.545 316.781 308.248 316.79 307.917V307.917Z" fill="#BAFF99"/>
<path d="M313.379 315.345C313.392 314.84 313.889 314.49 314.367 314.647L317.665 315.729C317.98 315.833 318.189 316.13 318.18 316.461V316.461C318.167 316.966 317.67 317.316 317.192 317.159L313.894 316.077C313.58 315.974 313.37 315.676 313.379 315.345V315.345Z" fill="#FF6464"/>
<path d="M306.984 317.463C306.992 316.938 307.51 316.571 308.008 316.737L317.618 319.951C317.931 320.056 318.139 320.352 318.13 320.683V320.683C318.117 321.188 317.619 321.539 317.139 321.381L307.514 318.209C307.194 318.103 306.979 317.802 306.984 317.463V317.463Z" fill="white"/>
<path d="M306.971 319.572C306.984 319.067 307.481 318.716 307.96 318.874L314.379 320.986C314.679 321.085 314.886 321.358 314.899 321.673V321.673C314.922 322.206 314.404 322.597 313.898 322.43L307.484 320.303C307.17 320.199 306.962 319.903 306.971 319.572V319.572Z" fill="#87E2FF"/>
<path d="M307.064 321.757C307.077 321.253 307.573 320.902 308.052 321.059L311.35 322.142C311.664 322.245 311.873 322.542 311.865 322.873V322.873C311.851 323.378 311.355 323.728 310.876 323.571L307.579 322.489C307.264 322.386 307.055 322.088 307.064 321.757V321.757Z" fill="#FF69B1"/>
<path d="M319.049 332.103C319.062 331.598 319.558 331.248 320.037 331.405L323.334 332.487C323.649 332.59 323.858 332.888 323.849 333.219V333.219C323.836 333.723 323.34 334.074 322.861 333.917L319.564 332.834C319.249 332.731 319.04 332.434 319.049 332.103V332.103Z" fill="#FF69B1"/>
<path d="M304.272 261.329C304.283 260.845 304.761 260.508 305.219 260.662L312.377 263.074C312.67 263.173 312.866 263.449 312.862 263.76V263.76C312.856 264.249 312.373 264.593 311.91 264.436L304.755 262.019C304.46 261.919 304.265 261.64 304.272 261.329V261.329Z" fill="#87E2FF"/>
<path d="M304.272 263.492C304.281 262.984 304.779 262.628 305.261 262.784L311.314 264.75C311.633 264.854 311.847 265.152 311.845 265.489V265.489C311.84 266.016 311.322 266.388 310.823 266.222L304.784 264.217C304.473 264.113 304.266 263.82 304.272 263.492V263.492Z" fill="#87E2FF"/>
<path d="M304.257 265.612C304.267 265.103 304.768 264.747 305.25 264.907L312.266 267.243C312.582 267.348 312.793 267.645 312.791 267.978V267.978C312.786 268.507 312.265 268.878 311.766 268.709L304.763 266.333C304.456 266.229 304.251 265.937 304.257 265.612V265.612Z" fill="#87E2FF"/>
<path d="M304.238 271.961C304.247 271.454 304.748 271.1 305.228 271.263L310.749 273.138C311.045 273.238 311.243 273.517 311.239 273.831V273.831C311.233 274.324 310.747 274.672 310.28 274.517L304.745 272.68C304.437 272.577 304.232 272.287 304.238 271.961V271.961Z" fill="#FF69B1"/>
<path d="M304.052 329.368C304.044 328.856 304.546 328.488 305.031 328.65L312.183 331.054C312.493 331.158 312.697 331.454 312.686 331.782V331.782C312.668 332.282 312.173 332.627 311.7 332.467L304.551 330.054C304.257 329.954 304.057 329.68 304.052 329.368V329.368Z" fill="#FF69B1"/>
<path d="M320.14 290.089C320.149 289.582 320.647 289.226 321.128 289.384L327.386 291.433C327.694 291.534 327.901 291.823 327.898 292.149V292.149C327.893 292.657 327.394 293.016 326.912 292.858L320.654 290.812C320.342 290.71 320.134 290.417 320.14 290.089V290.089Z" fill="white"/>
<path d="M304.063 327.163C304.072 326.655 304.573 326.301 305.053 326.463L317.66 330.714C317.954 330.813 318.151 331.091 318.147 331.402V331.402C318.141 331.892 317.659 332.236 317.195 332.082L304.57 327.882C304.262 327.779 304.057 327.489 304.063 327.163V327.163Z" fill="#FFA901"/>
<ellipse cx="302.609" cy="431.109" rx="13.9819" ry="6.70401" fill="#ABABAB"/>
<g filter="url(#filter1_d_19_230)">
<ellipse cx="303.339" cy="452.676" rx="18.7548" ry="5.24937" fill="#FEFEFE"/>
</g>
<ellipse cx="303.122" cy="452.339" rx="9.86525" ry="1.48218" fill="#E0E0E0"/>
<g filter="url(#filter2_i_19_230)">
<path d="M288.74 431.868H316.479L314.07 443.995C313.77 445.505 313.139 446.93 312.222 448.166L312.017 448.443C310.489 450.504 308.198 451.865 305.657 452.223L305.481 452.248C303.465 452.532 301.418 452.522 299.404 452.22V452.22C297.033 451.864 294.901 450.583 293.473 448.658L293.104 448.16C292.189 446.927 291.555 445.509 291.244 444.005L288.74 431.868Z" fill="white"/>
</g>
<path d="M315.58 432.248C315.58 434.972 310.041 436.675 302.319 436.675C294.597 436.675 289.413 434.972 289.413 432.248C289.413 429.523 294.381 426.872 302.103 426.872C309.825 426.872 315.58 429.523 315.58 432.248Z" fill="#59311A"/>
<path d="M315.468 436.865L315.973 434.208V434.208C318.775 433.624 321.221 436.175 320.521 438.95L320.296 439.839C320.222 440.132 320.118 440.417 319.987 440.689L319.859 440.952C319.407 441.885 318.763 442.711 317.967 443.375L312.211 448.186L314.232 443.822L316.564 441.968C316.917 441.687 317.231 441.36 317.498 440.996L317.714 440.702C318.011 440.297 318.234 439.843 318.371 439.36L318.504 438.894C318.611 438.52 318.6 438.122 318.473 437.755V437.755C318.1 436.678 316.867 436.173 315.846 436.678L315.468 436.865Z" fill="#FFFEFE"/>
<defs>
<filter id="filter0_d_19_230" x="199.526" y="238.906" width="74.0256" height="76.3753" filterUnits="userSpaceOnUse" color-interpolation-filters="sRGB">
<feFlood flood-opacity="0" result="BackgroundImageFix"/>
<feColorMatrix in="SourceAlpha" type="matrix" values="0 0 0 0 0 0 0 0 0 0 0 0 0 0 0 0 0 0 127 0" result="hardAlpha"/>
<feOffset dy="4"/>
<feGaussianBlur stdDeviation="2"/>
<feComposite in2="hardAlpha" operator="out"/>
<feColorMatrix type="matrix" values="0 0 0 0 0 0 0 0 0 0 0 0 0 0 0 0 0 0 0.25 0"/>
<feBlend mode="normal" in2="BackgroundImageFix" result="effect1_dropShadow_19_230"/>
<feBlend mode="normal" in="SourceGraphic" in2="effect1_dropShadow_19_230" result="shape"/>
</filter>
<filter id="filter1_d_19_230" x="280.584" y="447.427" width="45.5095" height="18.4987" filterUnits="userSpaceOnUse" color-interpolation-filters="sRGB">
<feFlood flood-opacity="0" result="BackgroundImageFix"/>
<feColorMatrix in="SourceAlpha" type="matrix" values="0 0 0 0 0 0 0 0 0 0 0 0 0 0 0 0 0 0 127 0" result="hardAlpha"/>
<feOffset dy="4"/>
<feGaussianBlur stdDeviation="2"/>
<feComposite in2="hardAlpha" operator="out"/>
<feColorMatrix type="matrix" values="0 0 0 0 0 0 0 0 0 0 0 0 0 0 0 0 0 0 0.25 0"/>
<feBlend mode="normal" in2="BackgroundImageFix" result="effect1_dropShadow_19_230"/>
<feBlend mode="normal" in="SourceGraphic" in2="effect1_dropShadow_19_230" result="shape"/>
</filter>
<filter id="filter2_i_19_230" x="288.74" y="431.868" width="27.7393" height="24.5858" filterUnits="userSpaceOnUse" color-interpolation-filters="sRGB">
<feFlood flood-opacity="0" result="BackgroundImageFix"/>
<feBlend mode="normal" in="SourceGraphic" in2="BackgroundImageFix" result="shape"/>
<feColorMatrix in="SourceAlpha" type="matrix" values="0 0 0 0 0 0 0 0 0 0 0 0 0 0 0 0 0 0 127 0" result="hardAlpha"/>
<feOffset dy="4"/>
<feGaussianBlur stdDeviation="2"/>
<feComposite in2="hardAlpha" operator="arithmetic" k2="-1" k3="1"/>
<feColorMatrix type="matrix" values="0 0 0 0 0 0 0 0 0 0 0 0 0 0 0 0 0 0 0.25 0"/>
<feBlend mode="normal" in2="shape" result="effect1_innerShadow_19_230"/>
</filter>
</defs>
</svg>




