<?xml-stylesheet type="text/css" href="../../src/pages/HomeIntro.css"?>

<svg width="1204" height="1060" viewBox="0 0 1204 1060" fill="none" xmlns="http://www.w3.org/2000/svg">
<path d="M313.741 543.172L969.352 739.208L694.949 934.583L26.3999 709.091L313.741 543.172Z" fill="#D6D5D8"/>
<path d="M26.3892 709.046L694.753 933.758L700.107 956.281L31.1427 729.042L26.3892 709.046Z" fill="#737373"/>
<path d="M694.753 933.76L968.973 739.212L968.973 763.704L700.219 956.753L694.753 933.76Z" fill="#565058"/>
<path d="M314.347 689.131L446.842 741.702L400.518 778.083L266.193 722.588L314.347 689.131Z" fill="#F5F4F4"/>
<path d="M446.842 741.702L447.434 745.75L400.772 779.818L400.518 778.083L446.842 741.702Z" fill="#D9D9D9"/>
<path d="M266.448 724.324L266.194 722.589L400.519 778.083L400.773 779.818L266.448 724.324Z" fill="#D1D0D0"/>
<path d="M317.113 730.371L371.409 753.248L364.875 759.696L310.32 736.653L317.113 730.371Z" fill="#E8E8E8"/>
<path d="M306.671 726.1L315.878 729.927L309.085 736.209L299.39 732.243L306.671 726.1Z" fill="#E8E8E8"/>
<path d="M297.979 722.605L305.437 725.656L298.156 731.799L290.441 728.582L297.979 722.605Z" fill="#E8E8E8"/>
<path d="M289.777 719.249L296.489 721.995L288.95 727.972L281.98 725.06L289.777 719.249Z" fill="#E8E8E8"/>
<path d="M281.572 715.893L288.284 718.639L280.488 724.45L273.546 721.731L281.572 715.893Z" fill="#E8E8E8"/>
<path d="M289.167 710.301L305.518 716.628L299.245 721.673L282.838 714.961L289.167 710.301Z" fill="#D9D9D9"/>
<path d="M295.962 705.623L308.321 710.224L303.102 714.486L290.467 709.597L295.962 705.623Z" fill="#D9D9D9"/>
<path d="M302.386 701.081L311.537 704.523L306.731 708.416L297.245 704.818L302.386 701.081Z" fill="#D9D9D9"/>
<path d="M308.248 696.954L313.928 699.036L309.526 702.49L303.588 700.243L308.248 696.954Z" fill="#D9D9D9"/>
<path d="M313.331 693.367L318.753 695.283L314.955 698.079L309.505 695.97L313.331 693.367Z" fill="#D9D9D9"/>
<path d="M307.01 717.238L314.21 720.123L308.195 725.334L300.737 722.283L307.01 717.238Z" fill="#D9D9D9"/>
<path d="M315.804 720.458L323.577 723.699L317.596 729.373L309.688 726.076L315.804 720.458Z" fill="#D9D9D9"/>
<path d="M309.467 710.706L316.237 713.181L311.418 717.777L304.368 714.95L309.467 710.706Z" fill="#D9D9D9"/>
<path d="M463.416 750.336L534.192 778.232L493.806 818.114L421.079 785.642L463.416 750.336Z" fill="#9FA0AA"/>
<path d="M421.079 785.642L493.806 818.114L493.999 819.387L421.272 786.915L421.079 785.642Z" fill="#8F8C8D"/>
<path d="M534.192 778.231L534.745 781.867L493.999 819.387L493.806 818.114L534.192 778.231Z" fill="#776D6D"/>
<path d="M415.095 635.876L459.174 659.222L387.003 693.506L348.741 667.397L415.095 635.876Z" fill="white"/>
<path d="M349.211 671.196L348.646 667.472L386.909 693.371L387.474 697.095L349.211 671.196Z" fill="#FBF5D5"/>
<path d="M459.182 659.301L459.81 663.439L387.505 697.302L386.909 693.371L459.182 659.301Z" fill="#BBB4B4"/>
<path d="M446.977 719.951L421.692 663.972L423.112 661.958L448.736 718.277L446.977 719.951Z" fill="#F4D88F"/>
<path d="M447.016 719.871L448.653 718.17L450.792 718.63L451.294 720.79L449.656 722.49L447.517 722.031L447.016 719.871Z" fill="#BB6E26"/>
<path d="M450.699 718.6L424.996 662.5L423.112 661.958L448.527 718.217L450.699 718.6Z" fill="#FA9A0A"/>
<path d="M422.183 665.809L421.692 663.972L446.977 719.951L447.598 722.068L422.183 665.809Z" fill="#FFE896"/>
<path d="M421.891 658.942L424.995 662.501L424.158 662.26L424.18 663.478L422.953 662.398L422.867 664.553L421.98 663.813L422.053 665.53L420.947 659.639L421.891 658.942Z" fill="#FFE9BF"/>
<path d="M420.535 657.582L421.892 658.941L420.947 659.639L420.535 657.582Z" fill="#6F6565"/>
<path d="M1123.42 280L1144.16 266.667V677.037L1123.42 690.521V280Z" fill="#311F3A"/>
<path d="M1123.42 280.362L1144.16 267.558L249.742 0L217.881 9.60001L1123.42 280.362Z" fill="#311F3A"/>
<path d="M217.184 8.89261L1123.16 279.242L1123.16 690.294L217.184 420.447L217.184 8.89261Z" fill="#031134"/>
<path d="M217.851 300.215L1123.95 570.062L1123.95 691L217.851 421.115L217.851 300.215Z" fill="#295C79" fill-opacity="0.53"/>
<path d="M217.916 259.344L247.21 267.049C258.228 268.875 269.523 266.317 278.678 259.922L305.409 241.254V280.45C309.6 283.546 315.309 283.589 319.548 280.557L353.647 256.162L351.303 294.855C356.918 298.567 364.266 298.327 369.626 294.255L401.689 269.897L395.44 303.398C400.635 309.21 409.254 310.451 415.878 306.341L453.833 282.795L442.897 318.975C449.453 323.996 458.46 324.343 465.383 319.843L497.384 299.043L484.091 337.903L502.072 334.553V285.741C502.072 283.087 504.609 281.169 507.162 281.892L534.881 289.746L560.417 296.982C564.721 298.201 567.691 302.13 567.691 306.603V357.501L588.197 365.039V269.897L593.665 271.405V265.542L609.875 269.897V275.592L642.685 284.805V243.432L652.449 245.777V235.559L694.047 245.777L762.01 281.287V424.167L794.625 434.887V372.576L820.794 341.421L856.534 347.283L858.877 323.33L838.762 303.565L836.613 286.982L846.964 276.932H864.736L867.275 268.892H877.43L879.969 260.517H885.047L886.023 247.284H889.539L888.953 257.669L892.468 258.674L893.249 246.614L903.99 250.299V264.202L908.287 268.055V273.75L915.904 276.932L916.88 283.967L933.48 288.992L939.925 299.043L933.48 316.798L903.99 329.361L903.014 342.761L916.88 347.283L915.904 387.987L939.925 396.027V485.306L953.596 490.331V432.375L1006.91 443.263L1010.04 393.012L1090.5 406.244V387.987L1123.5 403.229V570.565L286.074 320.392L217.916 301.053V259.344Z" fill="#F5E976"/>
<path d="M217.916 263.867L253.265 272.745C264.157 274.549 275.421 272.121 284.024 266.113L311.463 246.949V286.145C315.519 289.141 321.507 289.181 325.618 286.24L359.701 261.857L357.357 300.55C362.798 304.147 370.45 303.923 375.592 300.017L407.744 275.592L401.494 309.093C406.496 314.688 415.781 315.853 422.441 311.721L459.888 288.49L448.951 324.671C455.304 329.536 464.785 329.863 471.573 325.45L503.439 304.738L490.145 343.598L508.126 340.248V293.097C508.126 289.673 512.031 287.252 515.822 288.326L565.703 302.459C570.503 303.819 573.745 307.666 573.745 312.002V363.196L594.251 370.734V275.592L599.719 277.1V271.237L615.929 275.592V281.287L648.739 290.5V249.127L658.504 251.472V241.254L700.102 251.472L768.065 286.982V429.862L800.679 440.583V378.271L826.849 347.116L862.588 352.978L864.931 329.026L844.816 309.26L842.668 292.677L853.018 282.627H870.79L873.329 274.587H883.484L886.023 266.212H891.101L892.077 252.979H895.593L895.007 263.364L898.522 264.369L899.303 252.309L910.045 255.994V269.897L914.341 273.75V279.445L921.958 282.627L922.934 289.662L939.534 294.687L945.979 304.738L939.534 322.493L910.045 335.056L909.068 348.456L922.934 352.978L921.958 393.682L945.979 401.722V491.001L959.65 496.026V438.07L1012.97 448.958L1016.09 398.707L1096.55 411.94V393.682L1123.5 406.244V570.565L292.128 322.201L217.916 301.053V263.867Z" fill="#D8A84C"/>
<path d="M217.916 268.892L259.319 277.267C270.211 279.072 281.476 276.643 290.078 270.635L317.517 251.472V290.667C321.574 293.663 327.561 293.704 331.672 290.763L365.755 266.379L363.411 305.073C368.852 308.669 376.504 308.446 381.646 304.539L413.798 280.115L407.548 313.615C412.55 319.211 421.835 320.376 428.496 316.243L465.942 293.012L455.005 329.193C461.359 334.058 470.839 334.385 477.627 329.973L509.493 309.26L496.199 348.121L514.18 344.771V297.62C514.18 294.195 518.086 291.774 521.877 292.848L571.757 306.982C576.557 308.342 579.799 312.189 579.799 316.524V367.719L600.305 375.256V280.115L605.774 281.622V275.76L621.983 280.115V285.81L654.793 295.022V253.649L664.558 255.994V245.777L706.156 255.994L774.119 291.505V434.385L806.733 445.105V382.794L832.903 351.638L868.642 357.501L870.985 333.548L850.87 313.783L848.722 297.2L859.072 287.15H876.844L879.383 279.11H889.539L892.077 270.735H897.155L898.132 257.502H901.647L901.061 267.887L904.576 268.892L905.358 256.832L916.099 260.517V274.42L920.395 278.272V283.967L928.012 287.15L928.988 294.185L945.588 299.21L952.033 309.26L945.588 327.016L916.099 339.578L915.122 352.978L928.988 357.501L928.012 398.204L952.033 406.244V495.523L965.704 500.549V442.593L1019.02 453.48L1022.14 403.229L1102.61 416.462V402.222L1123.5 411.94V570.565L298.964 324.243L217.916 301.053V268.892Z" fill="#121313"/>
<ellipse cx="288.223" cy="103.232" rx="43.3557" ry="35.8456" fill="#FFF2C4"/>
<path d="M336.796 147.617L337.938 150.69H341.634L338.644 152.589L339.786 155.661L336.796 153.762L333.805 155.661L334.948 152.589L331.957 150.69H335.654L336.796 147.617Z" fill="#D9D9D9"/>
<path d="M287.955 195.638L289.098 198.71H292.794L289.804 200.609L290.946 203.681L287.955 201.782L284.965 203.681L286.107 200.609L283.117 198.71H286.813L287.955 195.638Z" fill="#D9D9D9"/>
<path d="M988.003 266.778L989.145 269.851H992.841L989.851 271.75L990.993 274.822L988.003 272.923L985.012 274.822L986.154 271.75L983.164 269.851H986.86L988.003 266.778Z" fill="#D9D9D9"/>
<path d="M1065.33 368.154L1066.48 371.227H1070.17L1067.18 373.125L1068.32 376.198L1065.33 374.299L1062.34 376.198L1063.49 373.125L1060.49 371.227H1064.19L1065.33 368.154Z" fill="#D9D9D9"/>
<path d="M839.152 242.85L840.294 245.922H843.991L841 247.821L842.143 250.894L839.152 248.995L836.162 250.894L837.304 247.821L834.314 245.922H838.01L839.152 242.85Z" fill="#D9D9D9"/>
<path d="M344.936 128.054L346.078 131.126H349.775L346.784 133.025L347.927 136.097L344.936 134.198L341.946 136.097L343.088 133.025L340.098 131.126H343.794L344.936 128.054Z" fill="#D9D9D9"/>
<path d="M308.305 181.409L309.448 184.482H313.144L310.153 186.38L311.296 189.453L308.305 187.554L305.315 189.453L306.457 186.38L303.467 184.482H307.163L308.305 181.409Z" fill="#D9D9D9"/>
<path d="M977.031 336.317L978.173 339.389H981.869L978.879 341.288L980.021 344.36L977.031 342.461L974.04 344.36L975.183 341.288L972.192 339.389H975.888L977.031 336.317Z" fill="#D9D9D9"/>
<path d="M771.189 242.85L772.331 245.922H776.027L773.037 247.821L774.179 250.894L771.189 248.995L768.198 250.894L769.341 247.821L766.35 245.922H770.047L771.189 242.85Z" fill="#D9D9D9"/>
<path d="M796.711 323.691L797.853 326.764H801.549L798.559 328.662L799.701 331.735L796.711 329.836L793.72 331.735L794.862 328.662L791.872 326.764H795.568L796.711 323.691Z" fill="#D9D9D9"/>
<path d="M330.691 120.94L331.833 124.012H335.529L332.539 125.911L333.681 128.983L330.691 127.084L327.7 128.983L328.843 125.911L325.852 124.012H329.549L330.691 120.94Z" fill="#D9D9D9"/>
<path d="M706.742 209.015L707.884 212.087H711.58L708.59 213.986L709.732 217.058L706.742 215.159L703.751 217.058L704.893 213.986L701.903 212.087H705.599L706.742 209.015Z" fill="#D9D9D9"/>
<path d="M322.55 184.966L323.692 188.039H327.389L324.398 189.938L325.541 193.01L322.55 191.111L319.56 193.01L320.702 189.938L317.712 188.039H321.408L322.55 184.966Z" fill="#D9D9D9"/>
<path d="M322.551 165.403L323.693 168.475H327.389L324.399 170.374L325.541 173.446L322.551 171.547L319.56 173.446L320.703 170.374L317.712 168.475H321.408L322.551 165.403Z" fill="#D9D9D9"/>
<path d="M338.83 177.852L339.973 180.925H343.669L340.679 182.823L341.821 185.896L338.83 183.997L335.84 185.896L336.982 182.823L333.992 180.925H337.688L338.83 177.852Z" fill="#D9D9D9"/>
<path d="M353.076 192.08L354.218 195.153H357.914L354.924 197.052L356.066 200.124L353.076 198.225L350.085 200.124L351.227 197.052L348.237 195.153H351.933L353.076 192.08Z" fill="#D9D9D9"/>
<path d="M351.04 211.644L352.183 214.717H355.879L352.889 216.615L354.031 219.688L351.04 217.789L348.05 219.688L349.192 216.615L346.202 214.717H349.898L351.04 211.644Z" fill="#D9D9D9"/>
<path d="M371.391 206.309L372.533 209.381H376.229L373.239 211.28L374.381 214.352L371.391 212.453L368.4 214.352L369.542 211.28L366.552 209.381H370.248L371.391 206.309Z" fill="#D9D9D9"/>
<path d="M397.846 202.752L398.988 205.824H402.684L399.694 207.723L400.836 210.795L397.846 208.896L394.855 210.795L395.998 207.723L393.007 205.824H396.704L397.846 202.752Z" fill="#D9D9D9"/>
<path d="M414.126 188.523L415.269 191.596H418.965L415.975 193.495L417.117 196.567L414.126 194.668L411.136 196.567L412.278 193.495L409.288 191.596H412.984L414.126 188.523Z" fill="#D9D9D9"/>
<path d="M420.231 168.96L421.374 172.032H425.07L422.08 173.931L423.222 177.003L420.231 175.104L417.241 177.003L418.383 173.931L415.393 172.032H419.089L420.231 168.96Z" fill="#D9D9D9"/>
<path d="M401.916 163.624L403.058 166.696H406.754L403.764 168.595L404.906 171.668L401.916 169.769L398.926 171.668L400.068 168.595L397.077 166.696H400.774L401.916 163.624Z" fill="#D9D9D9"/>
<path d="M385.636 176.074L386.778 179.146H390.474L387.484 181.045L388.626 184.117L385.636 182.218L382.646 184.117L383.788 181.045L380.797 179.146H384.494L385.636 176.074Z" fill="#D9D9D9"/>
<path d="M381.566 193.859L382.708 196.931H386.404L383.414 198.83L384.556 201.902L381.566 200.004L378.575 201.902L379.717 198.83L376.727 196.931H380.423L381.566 193.859Z" fill="#D9D9D9"/>
<path d="M430.406 222.315L431.549 225.388H435.245L432.255 227.287L433.397 230.359L430.406 228.46L427.416 230.359L428.558 227.287L425.568 225.388H429.264L430.406 222.315Z" fill="#D9D9D9"/>
<path d="M450.757 216.98L451.899 220.052H455.595L452.605 221.951L453.747 225.023L450.757 223.124L447.766 225.023L448.909 221.951L445.918 220.052H449.615L450.757 216.98Z" fill="#D9D9D9"/>
<path d="M469.072 206.309L470.214 209.381H473.91L470.92 211.28L472.062 214.352L469.072 212.453L466.081 214.352L467.224 211.28L464.233 209.381H467.929L469.072 206.309Z" fill="#D9D9D9"/>
<path d="M485.352 192.08L486.494 195.153H490.19L487.2 197.052L488.342 200.124L485.352 198.225L482.361 200.124L483.504 197.052L480.513 195.153H484.209L485.352 192.08Z" fill="#D9D9D9"/>
<path d="M495.527 174.295L496.669 177.368H500.365L497.375 179.266L498.517 182.339L495.527 180.44L492.536 182.339L493.679 179.266L490.688 177.368H494.385L495.527 174.295Z" fill="#D9D9D9"/>
<path d="M501.632 156.51L502.774 159.582H506.47L503.48 161.481L504.622 164.553L501.632 162.655L498.641 164.553L499.784 161.481L496.793 159.582H500.49L501.632 156.51Z" fill="#D9D9D9"/>
<path d="M493.492 138.725L494.634 141.797H498.33L495.34 143.696L496.482 146.768L493.492 144.869L490.501 146.768L491.644 143.696L488.653 141.797H492.35L493.492 138.725Z" fill="#D9D9D9"/>
<path d="M483.317 238.322L484.459 241.394H488.155L485.165 243.293L486.307 246.366L483.317 244.467L480.326 246.366L481.469 243.293L478.478 241.394H482.175L483.317 238.322Z" fill="#D9D9D9"/>
<path d="M505.702 231.208L506.844 234.28H510.541L507.55 236.179L508.692 239.251L505.702 237.353L502.712 239.251L503.854 236.179L500.864 234.28H504.56L505.702 231.208Z" fill="#D9D9D9"/>
<path d="M524.017 222.315L525.159 225.388H528.856L525.865 227.287L527.008 230.359L524.017 228.46L521.027 230.359L522.169 227.287L519.179 225.388H522.875L524.017 222.315Z" fill="#D9D9D9"/>
<path d="M542.332 202.752L543.474 205.824H547.171L544.18 207.723L545.323 210.795L542.332 208.896L539.342 210.795L540.484 207.723L537.494 205.824H541.19L542.332 202.752Z" fill="#D9D9D9"/>
<path d="M552.507 184.966L553.65 188.039H557.346L554.356 189.938L555.498 193.01L552.507 191.111L549.517 193.01L550.659 189.938L547.669 188.039H551.365L552.507 184.966Z" fill="#D9D9D9"/>
<path d="M558.613 165.403L559.755 168.475H563.451L560.461 170.374L561.603 173.446L558.613 171.547L555.622 173.446L556.765 170.374L553.774 168.475H557.47L558.613 165.403Z" fill="#D9D9D9"/>
<path d="M548.437 149.396L549.579 152.468H553.276L550.285 154.367L551.428 157.439L548.437 155.541L545.447 157.439L546.589 154.367L543.599 152.468H547.295L548.437 149.396Z" fill="#D9D9D9"/>
<path d="M530.122 161.846L531.264 164.918H534.961L531.97 166.817L533.113 169.889L530.122 167.99L527.132 169.889L528.274 166.817L525.284 164.918H528.98L530.122 161.846Z" fill="#D9D9D9"/>
<path d="M519.947 181.409L521.089 184.482H524.786L521.795 186.38L522.938 189.453L519.947 187.554L516.957 189.453L518.099 186.38L515.109 184.482H518.805L519.947 181.409Z" fill="#D9D9D9"/>
<path d="M513.842 202.752L514.984 205.824H518.681L515.69 207.723L516.833 210.795L513.842 208.896L510.852 210.795L511.994 207.723L509.004 205.824H512.7L513.842 202.752Z" fill="#D9D9D9"/>
<path d="M534.193 238.322L535.335 241.394H539.031L536.041 243.293L537.183 246.366L534.193 244.467L531.202 246.366L532.344 243.293L529.354 241.394H533.05L534.193 238.322Z" fill="#D9D9D9"/>
<path d="M546.402 252.55L547.545 255.623H551.241L548.251 257.521L549.393 260.594L546.402 258.695L543.412 260.594L544.554 257.521L541.564 255.623H545.26L546.402 252.55Z" fill="#D9D9D9"/>
<path d="M568.788 252.55L569.93 255.623H573.626L570.636 257.521L571.778 260.594L568.788 258.695L565.797 260.594L566.939 257.521L563.949 255.623H567.645L568.788 252.55Z" fill="#D9D9D9"/>
<path d="M591.173 248.993L592.315 252.066H596.012L593.021 253.964L594.163 257.037L591.173 255.138L588.183 257.037L589.325 253.964L586.334 252.066H590.031L591.173 248.993Z" fill="#D9D9D9"/>
<path d="M605.418 232.987L606.56 236.059H610.257L607.266 237.958L608.409 241.03L605.418 239.131L602.428 241.03L603.57 237.958L600.58 236.059H604.276L605.418 232.987Z" fill="#D9D9D9"/>
<path d="M564.718 232.987L565.86 236.059H569.556L566.566 237.958L567.708 241.03L564.718 239.131L561.727 241.03L562.87 237.958L559.879 236.059H563.575L564.718 232.987Z" fill="#D9D9D9"/>
<path d="M574.893 215.201L576.035 218.274H579.732L576.741 220.172L577.883 223.245L574.893 221.346L571.903 223.245L573.045 220.172L570.054 218.274H573.751L574.893 215.201Z" fill="#D9D9D9"/>
<path d="M595.243 208.087L596.385 211.16H600.082L597.091 213.058L598.233 216.131L595.243 214.232L592.253 216.131L593.395 213.058L590.405 211.16H594.101L595.243 208.087Z" fill="#D9D9D9"/>
<path d="M615.593 216.98L616.735 220.052H620.431L617.441 221.951L618.583 225.023L615.593 223.124L612.603 225.023L613.745 221.951L610.754 220.052H614.451L615.593 216.98Z" fill="#D9D9D9"/>
<path d="M637.978 156.51L639.121 159.582H642.817L639.827 161.481L640.969 164.553L637.978 162.655L634.988 164.553L636.13 161.481L633.14 159.582H636.836L637.978 156.51Z" fill="#D9D9D9"/>
<path d="M477.212 151.174L478.354 154.247H482.05L479.06 156.146L480.202 159.218L477.212 157.319L474.221 159.218L475.364 156.146L472.373 154.247H476.07L477.212 151.174Z" fill="#D9D9D9"/>
<path d="M465.002 168.96L466.144 172.032H469.84L466.85 173.931L467.992 177.003L465.002 175.104L462.011 177.003L463.153 173.931L460.163 172.032H463.859L465.002 168.96Z" fill="#D9D9D9"/>
<path d="M458.896 190.302L460.039 193.374H463.735L460.745 195.273L461.887 198.345L458.896 196.447L455.906 198.345L457.048 195.273L454.058 193.374H457.754L458.896 190.302Z" fill="#D9D9D9"/>
<path d="M465.002 232.987L466.144 236.059H469.84L466.85 237.958L467.992 241.03L465.002 239.131L462.011 241.03L463.153 237.958L460.163 236.059H463.859L465.002 232.987Z" fill="#D9D9D9"/>
<path d="M410.056 216.98L411.198 220.052H414.895L411.904 221.951L413.046 225.023L410.056 223.124L407.066 225.023L408.208 221.951L405.218 220.052H408.914L410.056 216.98Z" fill="#D9D9D9"/>
<path d="M321.173 140.503L322.006 142.818H324.702L322.521 144.249L323.354 146.564L321.173 145.133L318.992 146.564L319.825 144.249L317.644 142.818H320.34L321.173 140.503Z" fill="#D9D9D9"/>
<path d="M315.068 206.309L315.901 208.624H318.597L316.416 210.054L317.249 212.369L315.068 210.938L312.887 212.369L313.72 210.054L311.539 208.624H314.235L315.068 206.309Z" fill="#D9D9D9"/>
<path d="M1056.51 319.901L1057.34 322.216H1060.04L1057.85 323.647L1058.69 325.962L1056.51 324.531L1054.33 325.962L1055.16 323.647L1052.98 322.216H1055.67L1056.51 319.901Z" fill="#D9D9D9"/>
<path d="M343.559 108.49L344.392 110.805H347.088L344.907 112.235L345.74 114.55L343.559 113.12L341.378 114.55L342.211 112.235L340.03 110.805H342.726L343.559 108.49Z" fill="#D9D9D9"/>
<path d="M727.287 483.719C743.132 479.85 760.118 482.765 774.139 491.757L780.48 495.825L771.637 487.371C761.552 477.73 747.186 474.018 734.023 477.653L732.849 477.977C727.827 479.363 722.503 479.538 717.315 478.487C709.443 476.892 702.319 472.565 697.249 466.299L688.653 455.675L690.565 461.227C695.817 476.474 711.415 486.027 727.287 483.719Z" fill="white"/>
<path d="M357.241 405.2C373.086 401.332 390.072 404.246 404.092 413.239L410.434 417.306L401.59 408.852C391.506 399.212 377.14 395.5 363.977 399.134L362.803 399.458C357.781 400.845 352.456 401.02 347.268 399.969C339.397 398.374 332.273 394.047 327.203 387.78L318.607 377.157L320.519 382.709C325.771 397.955 341.369 407.509 357.241 405.2Z" fill="white"/>
<path d="M1006.07 636.311C1021.91 632.443 1038.9 635.358 1052.92 644.35L1059.26 648.417L1050.42 639.963C1040.33 630.323 1025.97 626.611 1012.8 630.245L1011.63 630.569C1006.61 631.956 1001.28 632.131 996.095 631.08C988.224 629.485 981.1 625.158 976.03 618.891L967.434 608.268L969.346 613.82C974.598 629.066 990.196 638.62 1006.07 636.311Z" fill="white"/>
<path d="M808.599 569.645C824.443 565.776 841.43 568.691 855.45 577.683L861.791 581.751L852.948 573.297C842.863 563.656 828.497 559.944 815.334 563.579L814.161 563.903C809.138 565.289 803.814 565.464 798.626 564.413C790.754 562.818 783.631 558.491 778.56 552.225L769.964 541.601L771.877 547.153C777.128 562.4 792.726 571.953 808.599 569.645Z" fill="white"/>
<path d="M882.274 547.931C892.408 545.518 903.237 547.241 912.353 552.719L915.992 554.906L910.875 550.286C904.219 544.277 895.005 542.003 886.528 544.276L885.676 544.504C882.583 545.334 879.317 545.46 876.119 544.875C871.03 543.943 866.381 541.257 863.009 537.301L857.913 531.322L858.745 533.667C862.187 543.364 872.15 549.404 882.274 547.931Z" fill="white"/>
<path d="M1078.08 593.857C1088.22 591.443 1099.05 593.167 1108.16 598.645L1111.8 600.832L1106.69 596.212C1100.03 590.203 1090.82 587.928 1082.34 590.202L1081.49 590.43C1078.39 591.26 1075.13 591.386 1071.93 590.801C1066.84 589.868 1062.19 587.183 1058.82 583.227L1053.72 577.248L1054.56 579.593C1058 589.29 1067.96 595.33 1078.08 593.857Z" fill="white"/>
<path d="M251.7 407.191C261.834 404.777 272.663 406.5 281.779 411.979L285.418 414.165L280.301 409.545C273.645 403.536 264.431 401.262 255.954 403.535L255.102 403.764C252.009 404.593 248.743 404.72 245.545 404.134C240.456 403.202 235.808 400.516 232.435 396.56L227.339 390.582L228.171 392.927C231.613 402.623 241.576 408.663 251.7 407.191Z" fill="white"/>
<path d="M732.117 467.625C735.126 468.51 737.215 471.271 737.237 474.39L738.762 689.89L725.091 704.63L725.091 491.353C725.091 487.771 724.08 484.246 722.175 481.181C721.003 479.297 719.516 477.625 717.781 476.239L717.285 475.843C715.597 474.495 713.73 473.39 711.739 472.561L707.905 470.963L410.86 383.192C408.784 382.858 406.751 382.281 404.804 381.473L404.02 381.147C401.41 380.023 398.439 380.187 396.008 381.591L393.234 383.192L403.191 377.444L408.999 375.222L409.749 375.139C413.705 374.705 417.72 375.064 421.56 376.194L732.117 467.625Z" fill="#AEAEAE"/>
<path d="M729.234 466.776C733.99 468.176 737.221 472.133 737.252 476.597L738.762 689.89L725.091 704.63L725.091 491.078C725.091 487.663 724.115 484.302 722.255 481.311C721.03 479.34 719.442 477.566 717.56 476.062L717.383 475.922C715.631 474.522 713.658 473.36 711.528 472.473L707.905 470.963L411.286 383.318C411.002 383.234 410.712 383.168 410.419 383.121C408.637 382.834 406.903 382.344 405.261 381.662L404.02 381.147C401.444 380.037 398.411 380.203 396.017 381.585L393.234 383.192L403.191 377.444L408.999 375.222C413.439 374.734 417.95 375.132 422.206 376.385L729.234 466.776Z" fill="#AEAEAE"/>
<path d="M391.573 567.11L725.091 668.114L725.091 704.462L391.526 599.94L391.573 567.11Z" fill="#EAEAEA" fill-opacity="0.67"/>
<path d="M391.573 384.207C391.573 380.848 394.831 378.415 398.05 379.369L721.552 475.275C723.653 475.898 725.087 477.819 725.087 480.012L725.087 668.904L391.573 567.9L391.573 384.207Z" fill="#2E2E2E"/>
<path d="M404.806 393.409L712.592 484.531L712.592 654.044L404.806 559.907L404.806 393.409Z" fill="#9BD8D8"/>
<path d="M550.839 626.116C551.656 626.219 552.439 626.483 553.135 626.89L553.466 627.083C554.174 627.497 554.996 627.715 555.835 627.714C556.435 627.713 557.028 627.824 557.579 628.041L558.306 628.328C558.902 628.563 559.445 628.899 559.906 629.318L560.261 629.64C560.676 630.018 560.977 630.491 561.131 631.01L561.29 631.542C561.407 631.937 561.361 632.359 561.158 632.725C560.941 633.119 560.56 633.415 560.103 633.548L559.928 633.599C559.686 633.67 559.459 633.778 559.256 633.919L559.159 633.987C558.735 634.282 558.405 634.678 558.206 635.132L558.082 635.415C557.784 636.096 557.838 636.863 558.229 637.501L558.58 638.074C558.642 638.177 558.726 638.267 558.825 638.339C559.224 638.63 559.316 639.153 559.038 639.547L558.597 640.171C558.52 640.279 558.431 640.379 558.331 640.469L557.811 640.933C557.607 641.115 557.379 641.274 557.132 641.405L556.643 641.664C556.014 641.998 555.25 642.039 554.583 641.776C554.383 641.697 554.196 641.593 554.027 641.465L552.936 640.64C552.375 640.216 551.659 640.005 550.935 640.052L549.691 640.05C548.598 640.048 547.53 639.749 546.622 639.19C545.838 638.707 545.201 638.048 544.77 637.274L544.194 636.237C543.792 635.515 543.506 634.744 543.343 633.947L543.199 633.237C542.854 631.544 543.235 629.794 544.261 628.354L544.351 628.228C544.546 627.954 544.77 627.698 545.018 627.463C546.244 626.308 547.99 625.755 549.725 625.975L550.839 626.116Z" fill="white"/>
<path d="M557.441 624.607C558.037 624.699 558.609 624.859 559.137 625.081L559.488 625.228L559.365 625.569C559.247 625.898 559.008 626.197 558.676 626.429C558.482 626.565 558.261 626.675 558.022 626.755L557.913 626.792C557.531 626.92 557.121 626.986 556.708 626.987L556.589 626.987C556.354 626.987 556.12 626.97 555.89 626.935L555.671 626.901C555.151 626.821 554.65 626.686 554.183 626.499L553.491 626.223L553.522 626.152C553.716 625.716 554.079 625.333 554.562 625.054C554.749 624.946 554.952 624.856 555.165 624.784L555.193 624.775C555.653 624.621 556.151 624.551 556.646 624.573L557.441 624.607Z" fill="white"/>
<path d="M527.646 642.654L600.687 665.434L621.131 693.91C622.528 695.855 622.347 698.516 620.701 700.255L588.647 734.114C587.298 735.54 585.238 736.044 583.381 735.404L481.785 700.378C477.507 698.903 477.838 692.752 482.25 691.743L537.842 679.037C540.94 678.328 542.6 674.95 541.266 672.068L527.646 642.654Z" fill="#EAEAEA"/>
<path d="M527.647 642.654L600.688 665.434L621.389 693.99C622.831 695.98 622.612 698.721 620.872 700.457L611.82 709.487L522.973 682.378L537.537 678.862C540.586 678.126 542.212 674.799 540.919 671.944L527.647 642.654Z" fill="#858585"/>
<path d="M600.688 665.434L602.836 666.104L620.085 689.606C623.607 694.405 622.725 701.122 618.084 704.851L594.112 730.881C593.161 731.914 592.091 732.829 590.923 733.608C589.501 734.495 587.94 735.139 586.306 735.512L585.845 735.618C583.898 735.84 581.933 735.847 579.984 735.638L579.743 735.613C578.737 735.505 577.746 735.282 576.791 734.949L504.809 709.84L489.48 704.11L485.985 702.55C485.06 702.137 484.405 701.285 484.245 700.286L483.672 696.703C484.039 698.997 485.596 700.925 487.763 701.768L501.782 707.225L509.35 709.84L578.229 733.608L579.253 733.847C580.001 734.022 580.771 734.136 581.538 734.187C582.448 734.247 583.371 734.218 584.275 734.098C585.06 733.995 585.835 733.824 586.59 733.589L587.603 733.273L587.698 733.238C588.543 732.927 589.35 732.52 590.101 732.024C591.036 731.407 591.894 730.68 592.656 729.859L614.358 706.472L618.404 701.916C619.282 700.926 619.895 699.729 620.184 698.438C620.441 697.293 620.462 696.108 620.247 694.955L620.024 693.763C619.839 692.772 619.437 691.835 618.847 691.017L616.702 688.047L600.688 665.434Z" fill="#B0B0B0"/>
<path d="M557.333 438.635L712.593 484.531L712.593 654.044L557.333 606.473L557.333 438.635Z" fill="#334A4B"/>
<path d="M557.723 438.635L604.008 452.37L601.86 620.208L557.333 606.641L557.723 438.635Z" fill="#1D3844"/>
<g filter="url(#filter0_d_19_230)">
<path d="M414.18 424.9L548.543 466.273L548.543 546.507L414.18 504.711L414.18 424.9Z" fill="#D9D9D9"/>
<path d="M414.18 424.9L548.543 466.273L548.543 546.507L414.18 504.711L414.18 424.9Z" fill="#D9D9D9"/>
</g>
<path d="M414.18 431.935L548.543 472.617L548.543 546.34L414.18 504.296L414.18 431.935Z" fill="white"/>
<path d="M461.051 452.035L490.345 461.267L490.345 479.171L461.051 469.845L461.051 452.035Z" fill="#D9D9D9"/>
<path d="M461.051 452.035L490.345 461.267L490.345 479.171L461.051 469.845L461.051 452.035Z" fill="#D9D9D9"/>
<path d="M425.507 441.315L454.801 450.547L454.801 468.451L425.507 459.124L425.507 441.315Z" fill="#D9D9D9"/>
<path d="M425.507 441.315L454.801 450.547L454.801 468.451L425.507 459.124L425.507 441.315Z" fill="#D9D9D9"/>
<path d="M607.924 461.401C607.951 460.52 608.799 459.902 609.648 460.146L616.7 462.169C617.301 462.341 617.709 462.899 617.69 463.522C617.664 464.403 616.816 465.02 615.966 464.777L608.914 462.754C608.314 462.582 607.906 462.024 607.924 461.401Z" fill="white"/>
<path d="M607.885 465.16C607.911 464.279 608.759 463.662 609.609 463.905L616.661 465.928C617.261 466.1 617.669 466.658 617.651 467.281C617.624 468.162 616.776 468.779 615.927 468.536L608.875 466.513C608.274 466.341 607.866 465.783 607.885 465.16Z" fill="white"/>
<path d="M607.822 468.913C607.849 468.032 608.697 467.415 609.547 467.658L616.598 469.681C617.199 469.853 617.607 470.411 617.588 471.034C617.562 471.915 616.714 472.532 615.864 472.289L608.812 470.266C608.212 470.094 607.804 469.536 607.822 468.913Z" fill="white"/>
<path d="M607.771 472.695C607.798 471.814 608.646 471.196 609.496 471.44L616.547 473.463C617.148 473.635 617.556 474.193 617.537 474.816C617.511 475.697 616.663 476.314 615.813 476.071L608.761 474.048C608.161 473.876 607.753 473.318 607.771 472.695Z" fill="white"/>
<path d="M607.723 476.424C607.75 475.543 608.598 474.926 609.448 475.169L616.499 477.192C617.1 477.364 617.508 477.922 617.489 478.545C617.463 479.426 616.615 480.043 615.765 479.8L608.713 477.777C608.113 477.605 607.705 477.047 607.723 476.424Z" fill="white"/>
<path d="M607.684 480.184C607.711 479.302 608.558 478.685 609.408 478.929L616.46 480.951C617.06 481.123 617.469 481.681 617.45 482.304C617.423 483.185 616.575 483.803 615.726 483.559L608.674 481.537C608.073 481.364 607.665 480.806 607.684 480.184Z" fill="white"/>
<path d="M607.621 483.936C607.648 483.055 608.496 482.438 609.346 482.682L616.397 484.704C616.998 484.876 617.406 485.434 617.387 486.057C617.361 486.938 616.513 487.556 615.663 487.312L608.611 485.289C608.011 485.117 607.603 484.559 607.621 483.936Z" fill="white"/>
<path d="M607.571 487.718C607.597 486.837 608.445 486.22 609.295 486.463L616.347 488.486C616.947 488.658 617.355 489.216 617.336 489.839C617.31 490.72 616.462 491.337 615.612 491.094L608.56 489.071C607.96 488.899 607.552 488.341 607.571 487.718Z" fill="white"/>
<path d="M606.457 582.026C606.483 581.144 607.331 580.527 608.181 580.771L615.233 582.793C615.833 582.966 616.241 583.524 616.222 584.146C616.196 585.028 615.348 585.645 614.498 585.401L607.446 583.379C606.846 583.207 606.438 582.649 606.457 582.026Z" fill="white"/>
<path d="M606.417 585.785C606.444 584.904 607.292 584.286 608.141 584.53L615.193 586.553C615.794 586.725 616.202 587.283 616.183 587.906C616.157 588.787 615.309 589.404 614.459 589.161L607.407 587.138C606.807 586.966 606.398 586.408 606.417 585.785Z" fill="white"/>
<path d="M606.355 589.538C606.382 588.656 607.229 588.039 608.079 588.283L615.131 590.305C615.731 590.478 616.14 591.036 616.121 591.659C616.094 592.54 615.246 593.157 614.397 592.913L607.345 590.891C606.744 590.719 606.336 590.161 606.355 589.538Z" fill="white"/>
<path d="M606.304 593.32C606.331 592.438 607.179 591.821 608.028 592.065L615.08 594.087C615.681 594.26 616.089 594.818 616.07 595.44C616.044 596.322 615.196 596.939 614.346 596.695L607.294 594.673C606.694 594.501 606.286 593.942 606.304 593.32Z" fill="white"/>
<path d="M606.256 597.049C606.283 596.167 607.131 595.55 607.98 595.794L615.032 597.817C615.633 597.989 616.041 598.547 616.022 599.17C615.996 600.051 615.148 600.668 614.298 600.424L607.246 598.402C606.646 598.23 606.238 597.672 606.256 597.049Z" fill="white"/>
<path d="M606.217 600.808C606.244 599.927 607.092 599.31 607.941 599.553L614.993 601.576C615.594 601.748 616.002 602.306 615.983 602.929C615.956 603.81 615.109 604.427 614.259 604.184L607.207 602.161C606.607 601.989 606.198 601.431 606.217 600.808Z" fill="white"/>
<path d="M606.155 604.569C606.181 603.684 607.033 603.064 607.887 603.308L614.897 605.319C615.518 605.497 615.941 606.073 615.923 606.717C615.899 607.639 615.007 608.283 614.12 608.017L607.134 605.924C606.538 605.745 606.136 605.189 606.155 604.569Z" fill="white"/>
<path d="M606.103 608.383C606.13 607.492 607 606.877 607.852 607.148L614.95 609.409C615.53 609.594 615.917 610.143 615.896 610.75C615.864 611.639 614.994 612.25 614.144 611.978L607.047 609.714C606.471 609.53 606.085 608.986 606.103 608.383Z" fill="white"/>
<path d="M606.065 612.384C606.093 611.483 606.977 610.865 607.836 611.148L614.954 613.493C615.521 613.68 615.915 614.198 615.944 614.793C615.993 615.807 615.001 616.543 614.042 616.204L606.975 613.708C606.416 613.511 606.048 612.975 606.065 612.384Z" fill="white"/>
<path d="M606.065 612.384C606.093 611.483 606.977 610.865 607.836 611.148L614.954 613.493C615.521 613.68 615.915 614.198 615.944 614.793C615.993 615.807 615.001 616.543 614.042 616.204L606.975 613.708C606.416 613.511 606.048 612.975 606.065 612.384Z" fill="white"/>
<path d="M607.572 491.583C607.599 490.702 608.447 490.085 609.296 490.329L616.348 492.351C616.949 492.523 617.357 493.081 617.338 493.704C617.311 494.585 616.464 495.203 615.614 494.959L608.562 492.937C607.962 492.764 607.553 492.206 607.572 491.583Z" fill="white"/>
<path d="M607.533 495.343C607.559 494.461 608.407 493.844 609.257 494.088L616.309 496.11C616.909 496.282 617.317 496.84 617.299 497.463C617.272 498.345 616.424 498.962 615.574 498.718L608.523 496.696C607.922 496.524 607.514 495.965 607.533 495.343Z" fill="white"/>
<path d="M607.47 499.096C607.497 498.214 608.345 497.597 609.194 497.841L616.246 499.863C616.847 500.035 617.255 500.593 617.236 501.216C617.21 502.098 616.362 502.715 615.512 502.471L608.46 500.449C607.86 500.276 607.452 499.718 607.47 499.096Z" fill="white"/>
<path d="M607.419 502.877C607.446 501.996 608.294 501.379 609.144 501.623L616.195 503.645C616.796 503.817 617.204 504.375 617.185 504.998C617.159 505.879 616.311 506.497 615.461 506.253L608.409 504.231C607.809 504.058 607.401 503.5 607.419 502.877Z" fill="white"/>
<path d="M607.371 506.607C607.398 505.725 608.246 505.108 609.096 505.352L616.147 507.374C616.748 507.546 617.156 508.104 617.137 508.727C617.111 509.609 616.263 510.226 615.413 509.982L608.361 507.96C607.761 507.788 607.353 507.229 607.371 506.607Z" fill="white"/>
<path d="M607.332 510.366C607.359 509.485 608.206 508.867 609.056 509.111L616.108 511.133C616.708 511.306 617.117 511.864 617.098 512.486C617.071 513.368 616.223 513.985 615.374 513.741L608.322 511.719C607.721 511.547 607.313 510.989 607.332 510.366Z" fill="white"/>
<path d="M607.269 514.119C607.296 513.237 608.144 512.62 608.994 512.864L616.045 514.886C616.646 515.059 617.054 515.617 617.035 516.239C617.009 517.121 616.161 517.738 615.311 517.494L608.259 515.472C607.659 515.3 607.251 514.742 607.269 514.119Z" fill="white"/>
<path d="M607.219 517.901C607.245 517.019 608.093 516.402 608.943 516.646L615.995 518.668C616.595 518.84 617.003 519.398 616.984 520.021C616.958 520.903 616.11 521.52 615.26 521.276L608.208 519.254C607.608 519.082 607.2 518.523 607.219 517.901Z" fill="white"/>
<path d="M607.179 521.66C607.205 520.779 608.053 520.161 608.903 520.405L615.955 522.427C616.555 522.6 616.963 523.158 616.945 523.78C616.918 524.662 616.07 525.279 615.22 525.035L608.169 523.013C607.568 522.841 607.16 522.283 607.179 521.66Z" fill="white"/>
<path d="M607.139 525.419C607.166 524.538 608.014 523.921 608.863 524.164L615.915 526.187C616.516 526.359 616.924 526.917 616.905 527.54C616.878 528.421 616.031 529.038 615.181 528.795L608.129 526.772C607.529 526.6 607.12 526.042 607.139 525.419Z" fill="white"/>
<path d="M607.077 529.172C607.103 528.291 607.951 527.673 608.801 527.917L615.853 529.94C616.453 530.112 616.861 530.67 616.843 531.293C616.816 532.174 615.968 532.791 615.118 532.548L608.067 530.525C607.466 530.353 607.058 529.795 607.077 529.172Z" fill="white"/>
<path d="M607.026 532.954C607.052 532.073 607.9 531.455 608.75 531.699L615.802 533.721C616.402 533.894 616.81 534.452 616.792 535.074C616.765 535.956 615.917 536.573 615.068 536.329L608.016 534.307C607.415 534.135 607.007 533.577 607.026 532.954Z" fill="white"/>
<path d="M606.978 536.683C607.004 535.802 607.852 535.185 608.702 535.428L615.754 537.451C616.354 537.623 616.762 538.181 616.744 538.804C616.717 539.685 615.869 540.302 615.019 540.059L607.968 538.036C607.367 537.864 606.959 537.306 606.978 536.683Z" fill="white"/>
<path d="M606.938 540.442C606.965 539.561 607.813 538.944 608.663 539.187L615.714 541.21C616.315 541.382 616.723 541.94 616.704 542.563C616.678 543.444 615.83 544.062 614.98 543.818L607.928 541.795C607.328 541.623 606.92 541.065 606.938 540.442Z" fill="white"/>
<path d="M606.876 544.195C606.902 543.314 607.75 542.697 608.6 542.94L615.652 544.963C616.252 545.135 616.66 545.693 616.642 546.316C616.615 547.197 615.767 547.814 614.918 547.571L607.866 545.548C607.265 545.376 606.857 544.818 606.876 544.195Z" fill="white"/>
<path d="M606.825 547.977C606.852 547.096 607.7 546.479 608.549 546.722L615.601 548.745C616.201 548.917 616.61 549.475 616.591 550.098C616.564 550.979 615.716 551.596 614.867 551.353L607.815 549.33C607.214 549.158 606.806 548.6 606.825 547.977Z" fill="white"/>
<path d="M606.827 551.842C606.854 550.961 607.701 550.344 608.551 550.588L615.603 552.61C616.203 552.782 616.611 553.34 616.593 553.963C616.566 554.844 615.718 555.462 614.869 555.218L607.817 553.195C607.216 553.023 606.808 552.465 606.827 551.842Z" fill="white"/>
<path d="M606.787 555.602C606.814 554.72 607.662 554.103 608.512 554.347L615.563 556.369C616.164 556.541 616.572 557.099 616.553 557.722C616.527 558.604 615.679 559.221 614.829 558.977L607.777 556.955C607.177 556.783 606.769 556.224 606.787 555.602Z" fill="white"/>
<path d="M606.725 559.355C606.752 558.473 607.599 557.856 608.449 558.1L615.501 560.122C616.101 560.294 616.51 560.852 616.491 561.475C616.464 562.357 615.616 562.974 614.767 562.73L607.715 560.708C607.114 560.535 606.706 559.977 606.725 559.355Z" fill="white"/>
<path d="M606.674 563.136C606.701 562.255 607.549 561.638 608.398 561.882L615.45 563.904C616.05 564.076 616.459 564.634 616.44 565.257C616.413 566.138 615.565 566.756 614.716 566.512L607.664 564.489C607.064 564.317 606.655 563.759 606.674 563.136Z" fill="white"/>
<path d="M606.626 566.866C606.653 565.984 607.501 565.367 608.35 565.611L615.402 567.633C616.002 567.805 616.411 568.363 616.392 568.986C616.365 569.868 615.517 570.485 614.668 570.241L607.616 568.219C607.015 568.047 606.607 567.488 606.626 566.866Z" fill="white"/>
<path d="M606.587 570.625C606.613 569.743 607.461 569.126 608.311 569.37L615.363 571.392C615.963 571.565 616.371 572.123 616.352 572.745C616.326 573.627 615.478 574.244 614.628 574L607.576 571.978C606.976 571.806 606.568 571.248 606.587 570.625Z" fill="white"/>
<path d="M606.524 574.378C606.551 573.496 607.399 572.879 608.248 573.123L615.3 575.145C615.9 575.317 616.309 575.876 616.29 576.498C616.263 577.38 615.415 577.997 614.566 577.753L607.514 575.731C606.914 575.559 606.505 575.001 606.524 574.378Z" fill="white"/>
<path d="M606.473 578.16C606.5 577.278 607.348 576.661 608.197 576.905L615.249 578.927C615.85 579.099 616.258 579.657 616.239 580.28C616.212 581.162 615.364 581.779 614.515 581.535L607.463 579.513C606.863 579.341 606.454 578.782 606.473 578.16Z" fill="white"/>
<path d="M660.097 476.641C660.124 475.758 660.972 475.14 661.824 475.382L675.929 479.405C676.543 479.58 676.963 480.147 676.952 480.784C676.936 481.702 676.052 482.351 675.168 482.094L661.084 477.996C660.485 477.822 660.078 477.263 660.097 476.641Z" fill="#BAFF99"/>
<path d="M659.353 480.262C659.379 479.381 660.227 478.764 661.077 479.008L668.129 481.03C668.729 481.202 669.137 481.76 669.119 482.383C669.092 483.264 668.244 483.882 667.394 483.638L660.343 481.615C659.742 481.443 659.334 480.885 659.353 480.262Z" fill="#BAFF99"/>
<path d="M666.926 486.089C666.953 485.208 667.801 484.591 668.651 484.834L675.702 486.857C676.303 487.029 676.711 487.587 676.692 488.21C676.666 489.091 675.818 489.708 674.968 489.465L667.916 487.442C667.316 487.27 666.908 486.712 666.926 486.089Z" fill="#BAFF99"/>
<path d="M656.956 494.413C656.983 493.531 657.83 492.914 658.68 493.158L665.732 495.18C666.332 495.352 666.741 495.91 666.722 496.533C666.695 497.415 665.847 498.032 664.998 497.788L657.946 495.766C657.345 495.593 656.937 495.035 656.956 494.413Z" fill="#BAFF99"/>
<path d="M652.079 496.762C652.106 495.882 652.952 495.264 653.802 495.507L664.58 498.585C665.175 498.755 665.582 499.305 665.57 499.922C665.552 500.806 664.704 501.431 663.851 501.188L653.071 498.116C652.47 497.945 652.06 497.386 652.079 496.762Z" fill="white"/>
<path d="M652.076 500.558C652.103 499.677 652.951 499.06 653.801 499.303L660.852 501.326C661.453 501.498 661.861 502.056 661.842 502.679C661.816 503.56 660.968 504.177 660.118 503.934L653.066 501.911C652.466 501.739 652.058 501.181 652.076 500.558Z" fill="white"/>
<path d="M657.156 600.449C657.182 599.568 658.03 598.95 658.88 599.194L665.932 601.217C666.532 601.389 666.94 601.947 666.922 602.57C666.895 603.451 666.047 604.068 665.198 603.825L658.146 601.802C657.545 601.63 657.137 601.072 657.156 600.449Z" fill="#FFA901"/>
<path d="M655.167 603.714C655.194 602.834 656.038 602.216 656.887 602.454L689.922 611.73C690.532 611.901 690.951 612.464 690.939 613.097C690.922 614 690.057 614.64 689.186 614.394L656.164 605.071C655.56 604.9 655.148 604.34 655.167 603.714Z" fill="#87E2FF"/>
<path d="M684.545 627.644C684.614 626.604 685.624 625.898 686.629 626.186L696.668 629.07C697.431 629.289 697.941 630.011 697.89 630.801C697.823 631.873 696.778 632.601 695.745 632.296L685.727 629.338C684.985 629.119 684.493 628.414 684.545 627.644Z" fill="#87E2FF"/>
<path d="M642.771 624.174C642.716 623.054 643.793 622.227 644.864 622.568L677.388 632.905C678.053 633.116 678.518 633.719 678.552 634.415C678.608 635.569 677.497 636.419 676.395 636.065L643.898 625.641C643.253 625.435 642.803 624.849 642.771 624.174Z" fill="#FFA901"/>
<path d="M656.959 505.736C656.986 504.854 657.834 504.237 658.684 504.481L690.059 513.479C690.623 513.641 691.022 514.144 691.05 514.728C691.095 515.656 690.218 516.349 689.323 516.093L657.949 507.089C657.349 506.917 656.94 506.359 656.959 505.736Z" fill="white"/>
<path d="M660.303 510.645C660.33 509.764 661.178 509.146 662.027 509.39L669.079 511.413C669.68 511.585 670.088 512.143 670.069 512.766C670.042 513.647 669.195 514.264 668.345 514.02L661.293 511.998C660.693 511.826 660.284 511.268 660.303 510.645Z" fill="#87E2FF"/>
<path d="M667.868 516.602C667.895 515.721 668.743 515.104 669.592 515.347L676.644 517.37C677.245 517.542 677.653 518.1 677.634 518.723C677.607 519.604 676.76 520.221 675.91 519.978L668.858 517.955C668.258 517.783 667.849 517.225 667.868 516.602Z" fill="#87E2FF"/>
<path d="M689.371 526.436C689.398 525.554 690.246 524.937 691.095 525.181L698.147 527.203C698.748 527.375 699.156 527.933 699.137 528.556C699.11 529.438 698.262 530.055 697.413 529.811L690.361 527.789C689.761 527.617 689.352 527.058 689.371 526.436Z" fill="white"/>
<path d="M674.903 526.138C674.921 525.253 675.771 524.628 676.624 524.874L694.478 530.013C695.078 530.185 695.485 530.743 695.466 531.365C695.44 532.246 694.591 532.863 693.741 532.618L675.889 527.473C675.296 527.302 674.891 526.753 674.903 526.138Z" fill="white"/>
<path d="M674.122 529.658C674.148 528.778 674.996 528.163 675.843 528.408L687.839 531.879C688.412 532.045 688.803 532.577 688.79 533.173C688.77 534.024 687.955 534.624 687.134 534.393L675.114 531.008C674.513 530.839 674.103 530.281 674.122 529.658Z" fill="#87E2FF"/>
<path d="M680.939 538.992C680.966 538.113 681.804 537.493 682.655 537.722L701.353 542.76C701.999 542.934 702.446 543.525 702.436 544.193C702.421 545.142 701.515 545.816 700.6 545.561L681.946 540.358C681.336 540.188 680.92 539.623 680.939 538.992Z" fill="white"/>
<path d="M659.478 544.313C659.504 543.432 660.352 542.814 661.202 543.058L668.254 545.08C668.854 545.253 669.262 545.811 669.244 546.434C669.217 547.315 668.369 547.932 667.519 547.688L660.468 545.666C659.867 545.494 659.459 544.936 659.478 544.313Z" fill="#87E2FF"/>
<path d="M680.948 554.315C680.975 553.433 681.823 552.816 682.672 553.06L689.724 555.082C690.324 555.254 690.733 555.812 690.714 556.435C690.687 557.317 689.839 557.934 688.99 557.69L681.938 555.668C681.338 555.495 680.929 554.937 680.948 554.315Z" fill="white"/>
<path d="M679.883 561.48C679.91 560.6 680.753 559.982 681.602 560.218L695.236 564.011C695.883 564.191 696.31 564.807 696.25 565.473C696.174 566.332 695.337 566.907 694.505 566.673L680.883 562.839C680.277 562.669 679.864 562.107 679.883 561.48Z" fill="#87E2FF"/>
<path d="M659.75 563.364C659.776 562.48 660.625 561.86 661.478 562.102L680.929 567.623C681.594 567.812 682.04 568.438 682 569.127C681.946 570.066 681.033 570.706 680.129 570.439L660.734 564.72C660.136 564.544 659.731 563.986 659.75 563.364Z" fill="white"/>
<path d="M649.576 473.36C649.603 472.479 650.451 471.862 651.3 472.105L658.352 474.128C658.953 474.3 659.361 474.858 659.342 475.481C659.315 476.362 658.467 476.979 657.618 476.736L650.566 474.713C649.966 474.541 649.557 473.983 649.576 473.36Z" fill="#87E2FF"/>
<path d="M648.764 476.985C648.791 476.104 649.639 475.487 650.489 475.73L657.54 477.753C658.141 477.925 658.549 478.483 658.53 479.106C658.504 479.987 657.656 480.604 656.806 480.361L649.754 478.338C649.154 478.166 648.746 477.608 648.764 476.985Z" fill="#87E2FF"/>
<path d="M649.474 480.87C649.501 479.991 650.348 479.375 651.196 479.62L665.055 483.62C665.629 483.786 666.02 484.318 666.006 484.914C665.987 485.764 665.172 486.364 664.352 486.133L650.467 482.221C649.866 482.052 649.455 481.494 649.474 480.87Z" fill="#87E2FF"/>
<path d="M645.955 491.297C645.981 490.416 646.829 489.799 647.679 490.042L654.731 492.065C655.331 492.237 655.739 492.795 655.72 493.418C655.694 494.299 654.846 494.916 653.996 494.673L646.944 492.65C646.344 492.478 645.936 491.92 645.955 491.297Z" fill="white"/>
<path d="M641.164 493.57C641.19 492.688 642.038 492.071 642.888 492.315L649.94 494.337C650.54 494.51 650.948 495.068 650.93 495.69C650.903 496.572 650.055 497.189 649.205 496.945L642.154 494.923C641.553 494.751 641.145 494.193 641.164 493.57Z" fill="#87E2FF"/>
<path d="M641.128 497.356C641.154 496.475 642.002 495.857 642.852 496.101L649.904 498.123C650.504 498.296 650.912 498.854 650.893 499.477C650.867 500.358 650.019 500.975 649.169 500.731L642.117 498.709C641.517 498.537 641.109 497.979 641.128 497.356Z" fill="#87E2FF"/>
<path d="M659.26 597.319C659.287 596.436 660.131 595.815 660.984 596.051L677.475 600.601C678.162 600.791 678.62 601.441 678.565 602.15C678.493 603.082 677.584 603.709 676.684 603.448L660.254 598.681C659.651 598.506 659.241 597.945 659.26 597.319Z" fill="#BAFF99"/>
<path d="M646.011 597.249C646.038 596.368 646.886 595.75 647.735 595.994L654.787 598.017C655.387 598.189 655.796 598.747 655.777 599.37C655.75 600.251 654.902 600.868 654.053 600.625L647.001 598.602C646.401 598.43 645.992 597.872 646.011 597.249Z" fill="white"/>
<path d="M639.32 599.142C639.338 598.256 640.187 597.63 641.041 597.872L652.778 601.198C653.393 601.372 653.815 601.94 653.803 602.577C653.787 603.495 652.904 604.143 652.021 603.886L640.306 600.481C639.712 600.308 639.307 599.758 639.32 599.142Z" fill="#FF69B1"/>
<path d="M647.966 605.488C647.993 604.607 648.837 603.988 649.688 604.226L672.014 610.468C672.68 610.654 673.12 611.287 673.063 611.974C672.988 612.868 672.116 613.468 671.25 613.221L648.961 606.847C648.358 606.674 647.947 606.114 647.966 605.488Z" fill="white"/>
<path d="M678.031 617.932C678.057 617.05 678.905 616.433 679.755 616.677L686.807 618.699C687.407 618.871 687.815 619.429 687.796 620.052C687.77 620.934 686.922 621.551 686.072 621.307L679.02 619.285C678.42 619.113 678.012 618.554 678.031 617.932Z" fill="white"/>
<path d="M665.314 617.928C665.34 617.047 666.188 616.43 667.038 616.673L674.09 618.696C674.69 618.868 675.098 619.426 675.08 620.049C675.053 620.93 674.205 621.547 673.355 621.304L666.304 619.281C665.703 619.109 665.295 618.551 665.314 617.928Z" fill="white"/>
<path d="M665.3 622.023C665.315 620.996 666.304 620.271 667.291 620.563L681.893 624.889C682.609 625.101 683.082 625.782 683.03 626.525C682.959 627.531 681.975 628.207 681.007 627.917L666.418 623.546C665.747 623.345 665.289 622.722 665.3 622.023Z" fill="white"/>
<path d="M657.371 623.955C657.443 622.941 658.435 622.259 659.411 622.554L690.601 631.98C691.485 632.247 692.036 633.126 691.889 634.034C691.712 635.134 690.599 635.815 689.535 635.476L658.484 625.592C657.779 625.368 657.319 624.69 657.371 623.955Z" fill="#BAFF99"/>
<path d="M645.786 502.573C645.812 501.692 646.66 501.074 647.51 501.318L654.562 503.34C655.162 503.513 655.57 504.071 655.551 504.694C655.525 505.575 654.677 506.192 653.827 505.948L646.775 503.926C646.175 503.754 645.767 503.196 645.786 502.573Z" fill="#BAFF99"/>
<path d="M649.165 507.392C649.192 506.511 650.04 505.894 650.889 506.138L657.941 508.16C658.541 508.332 658.95 508.89 658.931 509.513C658.904 510.394 658.056 511.012 657.207 510.768L650.155 508.746C649.555 508.573 649.146 508.015 649.165 507.392Z" fill="#FF69B1"/>
<path d="M656.811 513.447C656.838 512.566 657.686 511.949 658.535 512.192L665.587 514.215C666.187 514.387 666.596 514.945 666.577 515.568C666.55 516.449 665.702 517.066 664.853 516.823L657.801 514.8C657.201 514.628 656.792 514.07 656.811 513.447Z" fill="#FF69B1"/>
<path d="M669.907 520.88C669.934 519.997 670.786 519.381 671.636 519.629L687.109 524.157C687.706 524.332 688.11 524.889 688.091 525.509C688.063 526.392 687.211 527.008 686.361 526.759L670.889 522.23C670.293 522.055 669.889 521.5 669.907 520.88Z" fill="#BAFF99"/>
<path d="M663.579 522.977C663.606 522.096 664.453 521.479 665.303 521.723L672.355 523.745C672.955 523.917 673.364 524.475 673.345 525.098C673.318 525.979 672.47 526.597 671.621 526.353L664.569 524.331C663.968 524.158 663.56 523.6 663.579 522.977Z" fill="#FF69B1"/>
<path d="M663.183 526.557C663.21 525.675 664.058 525.058 664.907 525.302L671.959 527.324C672.56 527.497 672.968 528.055 672.949 528.677C672.923 529.559 672.075 530.176 671.225 529.932L664.173 527.91C663.573 527.738 663.164 527.18 663.183 526.557Z" fill="#FF69B1"/>
<path d="M670.471 532.428C670.497 531.552 671.335 530.936 672.182 531.17L700.738 539.061C701.299 539.216 701.684 539.734 701.668 540.315C701.647 541.127 700.874 541.702 700.088 541.49L671.482 533.787C670.871 533.622 670.452 533.059 670.471 532.428Z" fill="white"/>
<path d="M652.386 534.673C652.413 533.792 653.261 533.175 654.11 533.418L661.162 535.441C661.763 535.613 662.171 536.171 662.152 536.794C662.125 537.675 661.277 538.292 660.428 538.049L653.376 536.026C652.776 535.854 652.367 535.296 652.386 534.673Z" fill="#FF6464"/>
<path d="M648.266 541.21C648.293 540.329 649.141 539.712 649.991 539.955L657.042 541.978C657.643 542.15 658.051 542.708 658.032 543.331C658.006 544.212 657.158 544.829 656.308 544.586L649.256 542.563C648.656 542.391 648.248 541.833 648.266 541.21Z" fill="#FF69B1"/>
<path d="M668.565 550.807C668.592 549.922 669.442 549.303 670.294 549.547L678.348 551.848C678.967 552.025 679.389 552.599 679.371 553.241C679.346 554.157 678.462 554.797 677.581 554.537L669.548 552.162C668.951 551.985 668.546 551.428 668.565 550.807Z" fill="#87E2FF"/>
<path d="M674.253 556.086C674.28 555.205 675.128 554.587 675.977 554.831L683.029 556.854C683.63 557.026 684.038 557.584 684.019 558.207C683.993 559.088 683.145 559.705 682.295 559.461L675.243 557.439C674.643 557.267 674.235 556.709 674.253 556.086Z" fill="#FF69B1"/>
<path d="M648.601 552.615C648.627 551.734 649.475 551.117 650.324 551.359L677.366 559.092C677.96 559.262 678.367 559.812 678.354 560.429C678.336 561.313 677.488 561.937 676.635 561.694L649.592 553.968C648.991 553.797 648.582 553.238 648.601 552.615Z" fill="#FFA901"/>
<path d="M648.538 556.364C648.565 555.484 649.41 554.866 650.26 555.105L688.391 565.864C689.035 566.045 689.46 566.66 689.401 567.325C689.324 568.185 688.486 568.761 687.653 568.525L649.534 557.72C648.931 557.549 648.52 556.989 648.538 556.364Z" fill="white"/>
<path d="M648.487 560.151C648.514 559.269 649.362 558.652 650.212 558.896L657.263 560.918C657.864 561.09 658.272 561.649 658.253 562.271C658.227 563.153 657.379 563.77 656.529 563.526L649.477 561.504C648.877 561.332 648.469 560.774 648.487 560.151Z" fill="#87E2FF"/>
<path d="M648.771 571.601C648.788 570.681 649.671 570.032 650.556 570.288L698.643 584.208C699.235 584.38 699.64 584.929 699.627 585.544C699.609 586.43 698.759 587.054 697.906 586.809L649.794 572.981C649.18 572.805 648.76 572.238 648.771 571.601Z" fill="#BAFF99"/>
<path d="M642.471 573.73C642.426 572.797 643.307 572.098 644.208 572.352L661.268 577.171C661.877 577.343 662.309 577.886 662.339 578.516C662.388 579.518 661.437 580.265 660.473 579.982L643.462 574.988C642.898 574.822 642.5 574.317 642.471 573.73Z" fill="white"/>
<path d="M635.857 575.423C635.884 574.539 636.738 573.922 637.589 574.172L650.589 577.997C651.152 578.163 651.549 578.667 651.578 579.252C651.624 580.191 650.731 580.89 649.828 580.622L636.835 576.772C636.241 576.596 635.839 576.041 635.857 575.423Z" fill="#87E2FF"/>
<path d="M638.833 470.333C638.859 469.455 639.704 468.84 640.551 469.083L647.655 471.12C648.23 471.285 648.625 471.815 648.617 472.412C648.606 473.272 647.785 473.886 646.954 473.656L639.831 471.684C639.227 471.517 638.814 470.958 638.833 470.333Z" fill="white"/>
<path d="M636.634 473.482C636.661 472.6 637.51 471.983 638.36 472.229L646.665 474.633C647.257 474.805 647.661 475.353 647.649 475.968C647.631 476.854 646.78 477.478 645.927 477.232L637.621 474.833C637.022 474.661 636.615 474.104 636.634 473.482Z" fill="white"/>
<path d="M638.731 477.851C638.757 476.97 639.605 476.353 640.455 476.596L647.507 478.619C648.107 478.791 648.515 479.349 648.496 479.972C648.47 480.853 647.622 481.47 646.772 481.227L639.72 479.204C639.12 479.032 638.712 478.474 638.731 477.851Z" fill="white"/>
<path d="M635.318 488.183C635.345 487.301 636.193 486.684 637.042 486.928L644.094 488.95C644.694 489.122 645.103 489.68 645.084 490.303C645.057 491.185 644.209 491.802 643.36 491.558L636.308 489.536C635.707 489.364 635.299 488.805 635.318 488.183Z" fill="#FFA901"/>
<path d="M630.392 490.541C630.419 489.659 631.267 489.042 632.116 489.286L639.168 491.308C639.769 491.481 640.177 492.039 640.158 492.661C640.132 493.543 639.284 494.16 638.434 493.916L631.382 491.894C630.782 491.722 630.374 491.164 630.392 490.541Z" fill="#FFA901"/>
<path d="M630.356 494.327C630.383 493.446 631.231 492.828 632.08 493.072L639.132 495.094C639.733 495.267 640.141 495.825 640.122 496.448C640.095 497.329 639.248 497.946 638.398 497.702L631.346 495.68C630.746 495.508 630.337 494.95 630.356 494.327Z" fill="#FFA901"/>
<path d="M637.98 591.155C638.007 590.272 638.855 589.654 639.706 589.897L656.71 594.754C657.324 594.929 657.744 595.495 657.732 596.132C657.716 597.05 656.834 597.699 655.95 597.442L638.967 592.509C638.368 592.335 637.961 591.777 637.98 591.155Z" fill="white"/>
<path d="M628.424 592.243C628.45 591.363 629.295 590.746 630.144 590.985L644.017 594.895C644.615 595.064 645.024 595.615 645.012 596.235C644.994 597.118 644.148 597.743 643.296 597.503L629.421 593.599C628.817 593.429 628.405 592.869 628.424 592.243Z" fill="#87E2FF"/>
<path d="M628.382 595.929C628.409 595.047 629.257 594.43 630.107 594.674L637.158 596.696C637.759 596.868 638.167 597.427 638.148 598.049C638.122 598.931 637.274 599.548 636.424 599.304L629.372 597.282C628.772 597.11 628.364 596.552 628.382 595.929Z" fill="#FF6464"/>
<path d="M637.212 602.257C637.239 601.376 638.087 600.759 638.936 601.003L645.988 603.025C646.589 603.197 646.997 603.755 646.978 604.378C646.951 605.259 646.103 605.877 645.254 605.633L638.202 603.611C637.602 603.438 637.193 602.88 637.212 602.257Z" fill="#FF6464"/>
<path d="M643.614 607.917C643.64 607.035 644.489 606.417 645.339 606.66L675.633 615.316C676.251 615.493 676.675 616.063 676.663 616.704C676.647 617.629 675.759 618.283 674.868 618.025L644.602 609.271C644.002 609.098 643.595 608.54 643.614 607.917Z" fill="#FFA901"/>
<path d="M643.575 611.653C643.601 610.77 644.453 610.153 645.303 610.401L662.959 615.551C663.549 615.723 663.952 616.27 663.939 616.884C663.921 617.77 663.069 618.394 662.216 618.146L644.558 613.002C643.961 612.829 643.556 612.273 643.575 611.653Z" fill="#FF69B1"/>
<path d="M643.392 615.412C643.419 614.525 644.275 613.906 645.128 614.158L662.896 619.397C663.522 619.581 663.949 620.161 663.939 620.811C663.924 621.768 662.999 622.44 662.081 622.161L644.362 616.761C643.771 616.581 643.373 616.027 643.392 615.412Z" fill="#FF69B1"/>
<path d="M643.087 619.621C643.158 618.613 644.145 617.936 645.115 618.229L654.726 621.131C655.438 621.346 655.908 622.026 655.855 622.766C655.784 623.774 654.797 624.451 653.827 624.158L644.216 621.256C643.504 621.041 643.035 620.361 643.087 619.621Z" fill="white"/>
<path d="M638.481 500.518C638.508 499.635 639.353 499.013 640.206 499.249L643.621 500.192C644.238 500.362 644.663 500.93 644.652 501.569C644.636 502.484 643.755 503.13 642.874 502.873L639.473 501.88C638.871 501.705 638.462 501.144 638.481 500.518Z" fill="white"/>
<path d="M638.417 504.274C638.443 503.392 639.291 502.775 640.141 503.019L646.868 504.948C647.659 505.175 648.197 505.91 648.172 506.731C648.151 507.441 647.468 507.939 646.783 507.742L639.406 505.627C638.806 505.454 638.398 504.896 638.417 504.274Z" fill="#FF6464"/>
<path d="M645.89 510.188C645.916 509.306 646.764 508.689 647.614 508.933L654.666 510.955C655.266 511.127 655.674 511.685 655.656 512.308C655.629 513.19 654.781 513.807 653.931 513.563L646.88 511.541C646.279 511.369 645.871 510.811 645.89 510.188Z" fill="#FF6464"/>
<path d="M652.47 519.755C652.497 518.873 653.345 518.256 654.195 518.5L661.246 520.522C661.847 520.694 662.255 521.252 662.236 521.875C662.21 522.756 661.362 523.374 660.512 523.13L653.46 521.108C652.86 520.935 652.452 520.377 652.47 519.755Z" fill="#FFA901"/>
<path d="M652.269 523.542C652.296 522.66 653.143 522.043 653.993 522.287L661.045 524.309C661.645 524.481 662.054 525.04 662.035 525.662C662.008 526.544 661.16 527.161 660.311 526.917L653.259 524.895C652.658 524.723 652.25 524.165 652.269 523.542Z" fill="#FF6464"/>
<path d="M659.54 529.216C659.567 528.335 660.414 527.718 661.264 527.962L668.316 529.984C668.916 530.156 669.325 530.714 669.306 531.337C669.279 532.218 668.431 532.836 667.582 532.592L660.53 530.57C659.929 530.397 659.521 529.839 659.54 529.216Z" fill="#87E2FF"/>
<path d="M659.559 533.003C659.586 532.123 660.43 531.504 661.28 531.742L678.746 536.623C679.365 536.796 679.79 537.366 679.778 538.007C679.762 538.924 678.883 539.573 677.999 539.322L660.555 534.362C659.951 534.19 659.54 533.629 659.559 533.003Z" fill="white"/>
<path d="M645.759 536.445C645.786 535.563 646.634 534.946 647.483 535.19L654.535 537.212C655.135 537.384 655.544 537.942 655.525 538.565C655.498 539.447 654.65 540.064 653.801 539.82L646.749 537.798C646.148 537.625 645.74 537.067 645.759 536.445Z" fill="#FF6464"/>
<path d="M637.264 537.903C637.291 537.022 638.139 536.405 638.988 536.648L646.04 538.671C646.64 538.843 647.049 539.401 647.03 540.024C647.003 540.905 646.155 541.522 645.306 541.279L642.105 540.361L638.254 539.256C637.654 539.084 637.245 538.526 637.264 537.903Z" fill="#FF6464"/>
<path d="M644.714 543.838C644.741 542.956 645.589 542.337 646.44 542.581L666.209 548.236C666.823 548.411 667.244 548.978 667.232 549.615C667.216 550.534 666.333 551.183 665.448 550.926L645.701 545.192C645.102 545.018 644.695 544.46 644.714 543.838Z" fill="white"/>
<path d="M644.675 547.57C644.702 546.688 645.551 546.071 646.4 546.316L672.103 553.726C672.696 553.897 673.101 554.445 673.088 555.061C673.07 555.946 672.22 556.57 671.367 556.325L645.663 548.922C645.064 548.749 644.656 548.192 644.675 547.57Z" fill="#BAFF99"/>
<path d="M637.735 560.781C637.762 559.899 638.609 559.282 639.459 559.526L646.511 561.548C647.111 561.72 647.52 562.278 647.501 562.901C647.474 563.783 646.626 564.4 645.777 564.156L638.725 562.134C638.124 561.962 637.716 561.404 637.735 560.781Z" fill="#FF6464"/>
<path d="M624.72 564.548C624.737 563.628 625.621 562.979 626.506 563.238L646.414 569.056C647.012 569.231 647.418 569.788 647.399 570.409C647.372 571.292 646.522 571.91 645.671 571.665L625.74 565.926C625.128 565.749 624.709 565.183 624.72 564.548Z" fill="white"/>
<path d="M624.694 568.298C624.721 567.416 625.57 566.798 626.42 567.043L639.83 570.899C640.398 571.062 640.8 571.57 640.829 572.159C640.874 573.096 639.986 573.796 639.083 573.534L625.681 569.651C625.082 569.477 624.675 568.92 624.694 568.298Z" fill="#87E2FF"/>
<path d="M624.883 572.185C624.91 571.303 625.758 570.686 626.607 570.93L633.659 572.952C634.26 573.124 634.668 573.683 634.649 574.305C634.622 575.187 633.774 575.804 632.925 575.56L625.873 573.538C625.273 573.366 624.864 572.808 624.883 572.185Z" fill="#FF69B1"/>
<path d="M649.272 590.585C649.299 589.703 650.147 589.086 650.997 589.33L658.048 591.352C658.649 591.524 659.057 592.082 659.038 592.705C659.012 593.587 658.164 594.204 657.314 593.96L650.262 591.938C649.662 591.766 649.254 591.207 649.272 590.585Z" fill="#FF69B1"/>
<path d="M619.202 464.713C619.223 463.867 620.04 463.274 620.853 463.514L635.741 467.898C636.303 468.063 636.687 468.583 636.679 469.168C636.667 470.025 635.843 470.63 635.019 470.387L620.134 465.992C619.57 465.826 619.187 465.3 619.202 464.713Z" fill="#87E2FF"/>
<path d="M619.201 468.558C619.219 467.671 620.07 467.043 620.926 467.286L633.586 470.881C634.195 471.054 634.615 471.614 634.61 472.246C634.601 473.169 633.716 473.827 632.827 473.569L620.188 469.9C619.593 469.727 619.188 469.176 619.201 468.558Z" fill="#87E2FF"/>
<path d="M619.171 472.328C619.19 471.438 620.046 470.811 620.902 471.06L635.521 475.314C636.125 475.489 636.54 476.046 636.535 476.675C636.526 477.6 635.636 478.257 634.747 477.993L620.149 473.664C619.559 473.489 619.158 472.941 619.171 472.328Z" fill="#87E2FF"/>
<path d="M619.131 483.621C619.15 482.733 620.006 482.11 620.859 482.363L632.431 485.797C632.998 485.965 633.384 486.49 633.376 487.08C633.365 487.944 632.535 488.556 631.704 488.315L620.111 484.952C619.521 484.781 619.118 484.234 619.131 483.621Z" fill="#FF69B1"/>
<path d="M618.751 585.728C618.735 584.828 619.594 584.174 620.459 584.428L635.347 588.802C635.943 588.977 636.344 589.535 636.32 590.154C636.285 591.027 635.439 591.631 634.599 591.384L619.716 586.992C619.153 586.826 618.762 586.313 618.751 585.728Z" fill="#FF69B1"/>
<path d="M651.493 515.861C651.511 514.975 652.362 514.349 653.216 514.593L666.291 518.336C666.88 518.505 667.285 519.047 667.278 519.659C667.268 520.549 666.416 521.182 665.559 520.937L652.483 517.2C651.887 517.03 651.48 516.479 651.493 515.861Z" fill="white"/>
<path d="M618.775 581.798C618.794 580.91 619.649 580.286 620.503 580.537L646.494 588.197C647.058 588.363 647.443 588.885 647.434 589.471C647.422 590.328 646.599 590.935 645.775 590.696L619.756 583.131C619.165 582.959 618.762 582.412 618.775 581.798Z" fill="#FFA901"/>
<ellipse cx="615.815" cy="766.737" rx="28.4534" ry="11.9232" fill="#ABABAB"/>
<g filter="url(#filter1_d_19_230)">
<ellipse cx="617.3" cy="805.094" rx="38.1664" ry="9.33613" fill="#FEFEFE"/>
</g>
<ellipse cx="616.859" cy="804.495" rx="20.076" ry="2.63609" fill="#E0E0E0"/>
<g filter="url(#filter2_i_19_230)">
<path d="M587.591 768.087H644.04L639.283 789.022C638.58 792.117 637.14 794.997 635.086 797.418C631.88 801.197 627.368 803.631 622.449 804.236L621.434 804.361C617.476 804.848 613.43 804.826 609.476 804.307C604.545 803.66 599.978 801.194 596.761 797.403C594.714 794.991 593.268 792.128 592.541 789.05L587.591 768.087Z" fill="white"/>
</g>
<path d="M642.211 768.762C642.211 773.608 630.939 776.636 615.224 776.636C599.51 776.636 588.961 773.608 588.961 768.762C588.961 763.917 599.072 759.201 614.786 759.201C630.501 759.201 642.211 763.917 642.211 768.762Z" fill="#59311A"/>
<path d="M641.983 776.973L643.012 772.249C648.688 771.215 653.472 776.508 651.87 782.051L651.828 782.195C651.665 782.762 651.438 783.308 651.152 783.823L650.886 784.304C649.989 785.922 648.751 787.325 647.258 788.415L635.355 797.108L639.469 789.347L644.303 785.988C644.963 785.529 645.559 784.986 646.075 784.37L646.62 783.721C647.18 783.053 647.607 782.284 647.878 781.456L648.097 780.784C648.355 779.993 648.329 779.137 648.022 778.364C647.281 776.495 645.141 775.609 643.296 776.406L641.983 776.973Z" fill="#FFFEFE"/>
<defs>
<filter id="filter0_d_19_230" x="410.18" y="424.9" width="142.364" height="129.607" filterUnits="userSpaceOnUse" color-interpolation-filters="sRGB">
<feFlood flood-opacity="0" result="BackgroundImageFix"/>
<feColorMatrix in="SourceAlpha" type="matrix" values="0 0 0 0 0 0 0 0 0 0 0 0 0 0 0 0 0 0 127 0" result="hardAlpha"/>
<feOffset dy="4"/>
<feGaussianBlur stdDeviation="2"/>
<feComposite in2="hardAlpha" operator="out"/>
<feColorMatrix type="matrix" values="0 0 0 0 0 0 0 0 0 0 0 0 0 0 0 0 0 0 0.25 0"/>
<feBlend mode="normal" in2="BackgroundImageFix" result="effect1_dropShadow_19_230"/>
<feBlend mode="normal" in="SourceGraphic" in2="effect1_dropShadow_19_230" result="shape"/>
</filter>
<filter id="filter1_d_19_230" x="575.134" y="795.758" width="84.3328" height="26.6722" filterUnits="userSpaceOnUse" color-interpolation-filters="sRGB">
<feFlood flood-opacity="0" result="BackgroundImageFix"/>
<feColorMatrix in="SourceAlpha" type="matrix" values="0 0 0 0 0 0 0 0 0 0 0 0 0 0 0 0 0 0 127 0" result="hardAlpha"/>
<feOffset dy="4"/>
<feGaussianBlur stdDeviation="2"/>
<feComposite in2="hardAlpha" operator="out"/>
<feColorMatrix type="matrix" values="0 0 0 0 0 0 0 0 0 0 0 0 0 0 0 0 0 0 0.25 0"/>
<feBlend mode="normal" in2="BackgroundImageFix" result="effect1_dropShadow_19_230"/>
<feBlend mode="normal" in="SourceGraphic" in2="effect1_dropShadow_19_230" result="shape"/>
</filter>
<filter id="filter2_i_19_230" x="587.591" y="768.087" width="56.4497" height="40.6246" filterUnits="userSpaceOnUse" color-interpolation-filters="sRGB">
<feFlood flood-opacity="0" result="BackgroundImageFix"/>
<feBlend mode="normal" in="SourceGraphic" in2="BackgroundImageFix" result="shape"/>
<feColorMatrix in="SourceAlpha" type="matrix" values="0 0 0 0 0 0 0 0 0 0 0 0 0 0 0 0 0 0 127 0" result="hardAlpha"/>
<feOffset dy="4"/>
<feGaussianBlur stdDeviation="2"/>
<feComposite in2="hardAlpha" operator="arithmetic" k2="-1" k3="1"/>
<feColorMatrix type="matrix" values="0 0 0 0 0 0 0 0 0 0 0 0 0 0 0 0 0 0 0.25 0"/>
<feBlend mode="normal" in2="shape" result="effect1_innerShadow_19_230"/>
</filter>
</defs>
</svg>
