<?xml-stylesheet type="text/css" href="../../src/pages/HomeIntro.css"?>

<svg width="738" height="628" viewBox="0 0 738 628" fill="none" xmlns="http://www.w3.org/2000/svg">
<path d="M192.31 321.804L594.171 437.946L425.974 553.696L16.182 420.103L192.31 321.804Z" fill="#D6D5D8"/>
<path d="M16.1753 420.076L425.853 553.208L429.135 566.552L19.089 431.923L16.1753 420.076Z" fill="#737373"/>
<path d="M425.853 553.209L593.939 437.948L593.939 452.458L429.204 566.831L425.853 553.209Z" fill="#565058"/>
<path d="M192.681 408.278L273.895 439.423L245.5 460.977L163.165 428.1L192.681 408.278Z" fill="#F5F4F4"/>
<path d="M273.895 439.424L274.258 441.822L245.656 462.005L245.5 460.978L273.895 439.424Z" fill="#D9D9D9"/>
<path d="M163.321 429.128L163.165 428.1L245.501 460.978L245.656 462.005L163.321 429.128Z" fill="#D1D0D0"/>
<path d="M194.376 432.711L227.658 446.264L223.652 450.084L190.213 436.432L194.376 432.711Z" fill="#E8E8E8"/>
<path d="M187.976 430.18L193.62 432.447L189.456 436.169L183.513 433.819L187.976 430.18Z" fill="#E8E8E8"/>
<path d="M182.648 428.109L187.22 429.917L182.757 433.556L178.028 431.65L182.648 428.109Z" fill="#E8E8E8"/>
<path d="M177.621 426.121L181.735 427.748L177.114 431.289L172.842 429.564L177.621 426.121Z" fill="#E8E8E8"/>
<path d="M172.592 424.133L176.706 425.76L171.927 429.202L167.672 427.591L172.592 424.133Z" fill="#E8E8E8"/>
<path d="M177.247 420.82L187.269 424.568L183.425 427.557L173.368 423.581L177.247 420.82Z" fill="#D9D9D9"/>
<path d="M181.412 418.048L188.987 420.774L185.789 423.299L178.044 420.402L181.412 418.048Z" fill="#D9D9D9"/>
<path d="M185.349 415.358L190.959 417.397L188.013 419.703L182.199 417.571L185.349 415.358Z" fill="#D9D9D9"/>
<path d="M188.943 412.912L192.424 414.146L189.726 416.192L186.086 414.861L188.943 412.912Z" fill="#D9D9D9"/>
<path d="M192.058 410.787L195.382 411.922L193.054 413.579L189.713 412.329L192.058 410.787Z" fill="#D9D9D9"/>
<path d="M188.184 424.93L192.597 426.639L188.911 429.726L184.339 427.919L188.184 424.93Z" fill="#D9D9D9"/>
<path d="M193.575 426.838L198.339 428.757L194.673 432.119L189.826 430.166L193.575 426.838Z" fill="#D9D9D9"/>
<path d="M189.69 421.06L193.839 422.526L190.886 425.249L186.565 423.574L189.69 421.06Z" fill="#D9D9D9"/>
<path d="M284.054 444.539L327.437 461.065L302.682 484.694L258.103 465.456L284.054 444.539Z" fill="#9FA0AA"/>
<path d="M258.103 465.456L302.682 484.694L302.8 485.448L258.222 466.21L258.103 465.456Z" fill="#8F8C8D"/>
<path d="M327.437 461.065L327.776 463.219L302.8 485.448L302.682 484.694L327.437 461.065Z" fill="#776D6D"/>
<path d="M254.435 376.727L281.454 390.558L237.216 410.869L213.763 395.401L254.435 376.727Z" fill="white"/>
<path d="M214.051 397.652L213.705 395.446L237.158 410.79L237.505 412.996L214.051 397.652Z" fill="#FBF5D5"/>
<path d="M281.459 390.605L281.843 393.056L237.524 413.119L237.158 410.79L281.459 390.605Z" fill="#BBB4B4"/>
<path d="M273.977 426.537L258.479 393.372L259.349 392.179L275.056 425.545L273.977 426.537Z" fill="#F4D88F"/>
<path d="M274.001 426.49L275.005 425.482L276.316 425.754L276.624 427.034L275.62 428.042L274.309 427.769L274.001 426.49Z" fill="#BB6E26"/>
<path d="M276.259 425.736L260.504 392.5L259.35 392.179L274.928 425.509L276.259 425.736Z" fill="#FA9A0A"/>
<path d="M258.78 394.461L258.479 393.372L273.977 426.537L274.358 427.791L258.78 394.461Z" fill="#FFE896"/>
<path d="M258.601 390.392L260.504 392.5L259.991 392.358L260.004 393.079L259.252 392.439L259.2 393.716L258.655 393.278L258.7 394.295L258.022 390.805L258.601 390.392Z" fill="#FFE9BF"/>
<path d="M257.77 389.586L258.602 390.392L258.022 390.805L257.77 389.586Z" fill="#6F6565"/>
<path d="M688.607 165.887L701.322 157.987V401.112L688.607 409.101V165.887Z" fill="#311F3A"/>
<path d="M688.609 166.101L701.323 158.516L153.081 7.894e-06L133.552 5.68755L688.609 166.101Z" fill="#311F3A"/>
<path d="M133.125 5.26845L688.45 165.438L688.45 408.967L133.125 249.095L133.125 5.26845Z" fill="#031134"/>
<path d="M133.533 177.863L688.932 337.735L688.932 409.385L133.533 249.491L133.533 177.863Z" fill="#295C79" fill-opacity="0.53"/>
<path d="M133.573 153.649L151.529 158.214V158.214C158.298 159.298 165.225 157.767 170.906 153.932L187.202 142.932V166.153V166.153C189.788 167.999 193.254 168.025 195.867 166.218L216.77 151.764L215.334 174.688V174.688C218.797 176.9 223.264 176.756 226.576 174.324L246.218 159.901L242.388 179.749V179.749C245.596 183.218 250.797 183.962 254.85 181.532L278.18 167.543L271.477 188.978V188.978C275.52 191.97 280.984 192.179 285.243 189.503L304.875 177.169L296.727 200.192L307.748 198.207V171.396C307.748 168.757 310.259 166.841 312.805 167.538L327.859 171.661L340.612 175.153C344.957 176.343 347.97 180.293 347.97 184.798V211.803L360.54 216.268V159.901L363.891 160.794V157.321L373.827 159.901V163.275L393.938 168.733V144.222L399.923 145.611V139.558L425.421 145.611L467.08 166.649V251.299L487.071 257.65V220.734L503.112 202.276L525.018 205.749L526.455 191.558L514.125 179.848L512.808 170.024L519.153 164.069H530.046L531.602 159.306H537.827L539.383 154.344H542.496L543.094 146.504H545.249L544.89 152.657L547.045 153.252L547.523 146.107L554.107 148.29V156.527L556.741 158.81V162.184L561.409 164.069L562.008 168.237L572.183 171.214L576.134 177.169L572.183 187.688L554.107 195.131L553.509 203.07L562.008 205.749L561.409 229.864L576.134 234.627V287.521L584.513 290.498V256.162L617.193 262.612L619.109 232.841L668.428 240.681V229.864L688.659 238.894V338.033L175.351 189.817L133.573 178.359V153.649Z" fill="#F5E976"/>
<path d="M133.573 156.329L155.24 161.588C161.917 162.658 168.822 161.219 174.094 157.659L190.913 146.306V169.527C193.4 171.302 197.07 171.326 199.59 169.584L220.481 155.138L219.045 178.062C222.379 180.193 227.07 180.06 230.222 177.746L249.929 163.275L246.099 183.123C249.164 186.438 254.856 187.128 258.938 184.68L281.891 170.917L275.188 192.352C279.082 195.234 284.893 195.428 289.054 192.814L308.586 180.543L300.438 203.566L311.459 201.581V173.646C311.459 171.618 313.853 170.183 316.177 170.819L346.752 179.193C349.694 179.998 351.681 182.278 351.681 184.846V215.177L364.25 219.642V163.275L367.602 164.168V160.695L377.538 163.275V166.649L397.649 172.107V147.596L403.634 148.985V142.932L429.132 148.985L470.791 170.024V254.673L490.782 261.024V224.108L506.823 205.65L528.729 209.123L530.166 194.932L517.836 183.222L516.519 173.398L522.863 167.443H533.757L535.313 162.68H541.538L543.094 157.718H546.207L546.805 149.878H548.96L548.601 156.031L550.755 156.626L551.234 149.481L557.818 151.665V159.901L560.452 162.184V165.558L565.12 167.443L565.719 171.611L575.894 174.588L579.844 180.543L575.894 191.062L557.818 198.505L557.22 206.444L565.719 209.123L565.12 233.238L579.844 238.001V290.895L588.224 293.872V259.536L620.904 265.986L622.82 236.215L672.139 244.055V233.238L688.659 240.681V338.033L179.062 190.889L133.573 178.359V156.329Z" fill="#D8A84C"/>
<path d="M133.573 159.306L158.951 164.268C165.628 165.337 172.532 163.898 177.805 160.339L194.624 148.985V172.207C197.111 173.982 200.781 174.006 203.301 172.263L224.192 157.817L222.756 180.741C226.09 182.872 230.781 182.74 233.933 180.425L253.64 165.955L249.81 185.802C252.875 189.117 258.567 189.807 262.649 187.359L285.602 173.596L278.899 195.031C282.793 197.914 288.604 198.107 292.765 195.493L312.297 183.222L304.149 206.245L315.17 204.26V176.326C315.17 174.297 317.564 172.862 319.888 173.499L350.463 181.872C353.405 182.678 355.392 184.957 355.392 187.526V217.856L367.961 222.322V165.955L371.313 166.848V163.375L381.249 165.955V169.329L401.36 174.787V150.275L407.345 151.665V145.611L432.843 151.665L474.502 172.703V257.353L494.493 263.704V226.787L510.534 208.329L532.44 211.803L533.877 197.612L521.547 185.902L520.23 176.077L526.574 170.123H537.468L539.024 165.359H545.249L546.805 160.397H549.917L550.516 152.558H552.671L552.312 158.71L554.466 159.306L554.945 152.161L561.529 154.344V162.581L564.163 164.863V168.237L568.831 170.123L569.43 174.291L579.605 177.268L583.555 183.222L579.605 193.741L561.529 201.184L560.931 209.123L569.43 211.803L568.831 235.917L583.555 240.681V293.574L591.935 296.551V262.215L624.615 268.666L626.531 238.894L675.85 246.734V238.298L688.659 244.055V338.033L183.252 192.099L133.573 178.359V159.306Z" fill="#121313"/>
<ellipse cx="176.668" cy="61.1599" rx="26.5752" ry="21.2368" fill="#FFF2C4"/>
<path d="M206.441 87.4564L207.141 89.2766H209.407L207.574 90.4015L208.274 92.2217L206.441 91.0968L204.608 92.2217L205.308 90.4015L203.475 89.2766H205.741L206.441 87.4564Z" fill="#D9D9D9"/>
<path d="M176.504 115.906L177.204 117.726H179.47L177.637 118.851L178.337 120.671L176.504 119.546L174.671 120.671L175.371 118.851L173.538 117.726H175.804L176.504 115.906Z" fill="#D9D9D9"/>
<path d="M605.603 158.054L606.303 159.874H608.569L606.736 160.999L607.436 162.819L605.603 161.694L603.77 162.819L604.47 160.999L602.637 159.874H604.903L605.603 158.054Z" fill="#D9D9D9"/>
<path d="M653.003 218.114L653.703 219.934H655.969L654.136 221.059L654.836 222.879L653.003 221.754L651.17 222.879L651.87 221.059L650.037 219.934H652.303L653.003 218.114Z" fill="#D9D9D9"/>
<path d="M514.364 143.877L515.064 145.697H517.33L515.497 146.822L516.197 148.643L514.364 147.518L512.531 148.643L513.231 146.822L511.398 145.697H513.664L514.364 143.877Z" fill="#D9D9D9"/>
<path d="M211.431 75.8658L212.131 77.686H214.397L212.564 78.8109L213.264 80.6311L211.431 79.5062L209.598 80.6311L210.298 78.8109L208.465 77.686H210.731L211.431 75.8658Z" fill="#D9D9D9"/>
<path d="M188.978 107.476L189.678 109.297H191.944L190.111 110.422L190.811 112.242L188.978 111.117L187.145 112.242L187.845 110.422L186.012 109.297H188.278L188.978 107.476Z" fill="#D9D9D9"/>
<path d="M598.878 199.252L599.578 201.072H601.844L600.011 202.197L600.711 204.017L598.878 202.892L597.045 204.017L597.745 202.197L595.912 201.072H598.178L598.878 199.252Z" fill="#D9D9D9"/>
<path d="M472.705 143.877L473.405 145.697H475.671L473.838 146.822L474.538 148.643L472.705 147.518L470.872 148.643L471.573 146.822L469.74 145.697H472.005L472.705 143.877Z" fill="#D9D9D9"/>
<path d="M488.349 191.772L489.049 193.592H491.315L489.482 194.717L490.182 196.537L488.349 195.412L486.516 196.537L487.216 194.717L485.383 193.592H487.649L488.349 191.772Z" fill="#D9D9D9"/>
<path d="M202.699 71.651L203.399 73.4712H205.665L203.832 74.5961L204.532 76.4164L202.699 75.2914L200.866 76.4164L201.566 74.5961L199.733 73.4712H201.999L202.699 71.651Z" fill="#D9D9D9"/>
<path d="M433.202 123.831L433.902 125.651H436.168L434.335 126.776L435.035 128.597L433.202 127.472L431.369 128.597L432.069 126.776L430.236 125.651H432.502L433.202 123.831Z" fill="#D9D9D9"/>
<path d="M197.709 109.584L198.409 111.404H200.675L198.842 112.529L199.542 114.349L197.709 113.224L195.876 114.349L196.576 112.529L194.743 111.404H197.009L197.709 109.584Z" fill="#D9D9D9"/>
<path d="M197.71 97.9933L198.41 99.8135H200.676L198.843 100.938L199.543 102.759L197.71 101.634L195.877 102.759L196.577 100.938L194.744 99.8135H197.01L197.71 97.9933Z" fill="#D9D9D9"/>
<path d="M207.689 105.369L208.389 107.189H210.654L208.821 108.314L209.521 110.134L207.689 109.01L205.856 110.134L206.556 108.314L204.723 107.189H206.988L207.689 105.369Z" fill="#D9D9D9"/>
<path d="M216.42 113.799L217.12 115.619H219.386L217.553 116.744L218.253 118.564L216.42 117.439L214.587 118.564L215.287 116.744L213.454 115.619H215.72L216.42 113.799Z" fill="#D9D9D9"/>
<path d="M215.173 125.389L215.873 127.209H218.138L216.305 128.334L217.006 130.155L215.173 129.03L213.34 130.155L214.04 128.334L212.207 127.209H214.473L215.173 125.389Z" fill="#D9D9D9"/>
<path d="M227.646 122.228L228.346 124.048H230.612L228.779 125.173L229.479 126.994L227.646 125.869L225.813 126.994L226.513 125.173L224.68 124.048H226.946L227.646 122.228Z" fill="#D9D9D9"/>
<path d="M243.862 120.121L244.562 121.941H246.828L244.995 123.066L245.695 124.886L243.862 123.761L242.029 124.886L242.73 123.066L240.897 121.941H243.162L243.862 120.121Z" fill="#D9D9D9"/>
<path d="M253.842 111.691L254.542 113.511H256.807L254.974 114.636L255.675 116.457L253.842 115.332L252.009 116.457L252.709 114.636L250.876 113.511H253.141L253.842 111.691Z" fill="#D9D9D9"/>
<path d="M257.584 100.101L258.284 101.921H260.55L258.717 103.046L259.417 104.866L257.584 103.741L255.751 104.866L256.451 103.046L254.618 101.921H256.884L257.584 100.101Z" fill="#D9D9D9"/>
<path d="M246.357 96.9396L247.057 98.7598H249.323L247.49 99.8847L248.19 101.705L246.357 100.58L244.524 101.705L245.224 99.8847L243.391 98.7598H245.657L246.357 96.9396Z" fill="#D9D9D9"/>
<path d="M236.378 104.315L237.078 106.136H239.344L237.511 107.261L238.211 109.081L236.378 107.956L234.545 109.081L235.245 107.261L233.412 106.136H235.678L236.378 104.315Z" fill="#D9D9D9"/>
<path d="M233.883 114.852L234.583 116.673H236.849L235.016 117.797L235.716 119.618L233.883 118.493L232.05 119.618L232.75 117.797L230.917 116.673H233.183L233.883 114.852Z" fill="#D9D9D9"/>
<path d="M263.821 131.711L264.521 133.532H266.786L264.953 134.657L265.654 136.477L263.821 135.352L261.988 136.477L262.688 134.657L260.855 133.532H263.12L263.821 131.711Z" fill="#D9D9D9"/>
<path d="M276.294 128.55L276.995 130.371H279.26L277.427 131.495L278.127 133.316L276.294 132.191L274.461 133.316L275.162 131.495L273.329 130.371H275.594L276.294 128.55Z" fill="#D9D9D9"/>
<path d="M287.521 122.228L288.221 124.048H290.487L288.654 125.173L289.354 126.994L287.521 125.869L285.688 126.994L286.388 125.173L284.555 124.048H286.821L287.521 122.228Z" fill="#D9D9D9"/>
<path d="M297.5 113.799L298.2 115.619H300.466L298.633 116.744L299.333 118.564L297.5 117.439L295.667 118.564L296.367 116.744L294.534 115.619H296.8L297.5 113.799Z" fill="#D9D9D9"/>
<path d="M303.737 103.262L304.437 105.082H306.702L304.869 106.207L305.57 108.027L303.737 106.902L301.904 108.027L302.604 106.207L300.771 105.082H303.036L303.737 103.262Z" fill="#D9D9D9"/>
<path d="M307.479 92.7248L308.179 94.545H310.444L308.611 95.67L309.312 97.4902L307.479 96.3652L305.646 97.4902L306.346 95.67L304.513 94.545H306.778L307.479 92.7248Z" fill="#D9D9D9"/>
<path d="M302.489 82.1879L303.189 84.0081H305.455L303.622 85.1331L304.322 86.9533L302.489 85.8283L300.656 86.9533L301.356 85.1331L299.523 84.0081H301.789L302.489 82.1879Z" fill="#D9D9D9"/>
<path d="M296.252 141.195L296.952 143.015H299.218L297.385 144.14L298.085 145.96L296.252 144.835L294.419 145.96L295.119 144.14L293.286 143.015H295.552L296.252 141.195Z" fill="#D9D9D9"/>
<path d="M309.973 136.98L310.674 138.8H312.939L311.106 139.925L311.806 141.745L309.973 140.62L308.14 141.745L308.841 139.925L307.008 138.8H309.273L309.973 136.98Z" fill="#D9D9D9"/>
<path d="M321.2 131.711L321.9 133.532H324.166L322.333 134.657L323.033 136.477L321.2 135.352L319.367 136.477L320.067 134.657L318.234 133.532H320.5L321.2 131.711Z" fill="#D9D9D9"/>
<path d="M332.426 120.121L333.126 121.941H335.392L333.559 123.066L334.259 124.886L332.426 123.761L330.593 124.886L331.293 123.066L329.46 121.941H331.726L332.426 120.121Z" fill="#D9D9D9"/>
<path d="M338.663 109.584L339.363 111.404H341.629L339.796 112.529L340.496 114.349L338.663 113.224L336.83 114.349L337.53 112.529L335.697 111.404H337.963L338.663 109.584Z" fill="#D9D9D9"/>
<path d="M342.405 97.9933L343.105 99.8135H345.371L343.538 100.938L344.238 102.759L342.405 101.634L340.572 102.759L341.272 100.938L339.439 99.8135H341.705L342.405 97.9933Z" fill="#D9D9D9"/>
<path d="M336.168 88.5101L336.868 90.3303H339.134L337.301 91.4552L338.001 93.2754L336.168 92.1505L334.335 93.2754L335.035 91.4552L333.202 90.3303H335.468L336.168 88.5101Z" fill="#D9D9D9"/>
<path d="M324.942 95.8859L325.642 97.7061H327.908L326.075 98.831L326.775 100.651L324.942 99.5263L323.109 100.651L323.809 98.831L321.976 97.7061H324.242L324.942 95.8859Z" fill="#D9D9D9"/>
<path d="M318.705 107.476L319.405 109.297H321.671L319.838 110.422L320.538 112.242L318.705 111.117L316.872 112.242L317.572 110.422L315.739 109.297H318.005L318.705 107.476Z" fill="#D9D9D9"/>
<path d="M314.963 120.121L315.663 121.941H317.929L316.096 123.066L316.796 124.886L314.963 123.761L313.13 124.886L313.83 123.066L311.997 121.941H314.263L314.963 120.121Z" fill="#D9D9D9"/>
<path d="M327.437 141.195L328.137 143.015H330.403L328.57 144.14L329.27 145.96L327.437 144.835L325.604 145.96L326.304 144.14L324.471 143.015H326.737L327.437 141.195Z" fill="#D9D9D9"/>
<path d="M334.921 149.624L335.621 151.444H337.887L336.054 152.569L336.754 154.389L334.921 153.265L333.088 154.389L333.788 152.569L331.955 151.444H334.221L334.921 149.624Z" fill="#D9D9D9"/>
<path d="M348.642 149.624L349.343 151.444H351.608L349.775 152.569L350.475 154.389L348.642 153.265L346.809 154.389L347.51 152.569L345.677 151.444H347.942L348.642 149.624Z" fill="#D9D9D9"/>
<path d="M362.364 147.517L363.064 149.337H365.329L363.496 150.462L364.197 152.282L362.364 151.157L360.531 152.282L361.231 150.462L359.398 149.337H361.663L362.364 147.517Z" fill="#D9D9D9"/>
<path d="M371.095 138.034L371.795 139.854H374.061L372.228 140.979L372.928 142.799L371.095 141.674L369.262 142.799L369.962 140.979L368.129 139.854H370.395L371.095 138.034Z" fill="#D9D9D9"/>
<path d="M346.148 138.034L346.848 139.854H349.114L347.281 140.979L347.981 142.799L346.148 141.674L344.315 142.799L345.015 140.979L343.182 139.854H345.448L346.148 138.034Z" fill="#D9D9D9"/>
<path d="M352.384 127.497L353.084 129.317H355.35L353.517 130.442L354.217 132.262L352.384 131.137L350.551 132.262L351.251 130.442L349.418 129.317H351.684L352.384 127.497Z" fill="#D9D9D9"/>
<path d="M364.858 123.282L365.559 125.102H367.824L365.991 126.227L366.691 128.047L364.858 126.922L363.025 128.047L363.726 126.227L361.893 125.102H364.158L364.858 123.282Z" fill="#D9D9D9"/>
<path d="M377.332 128.55L378.032 130.371H380.298L378.465 131.495L379.165 133.316L377.332 132.191L375.499 133.316L376.199 131.495L374.366 130.371H376.632L377.332 128.55Z" fill="#D9D9D9"/>
<path d="M391.053 92.7248L391.753 94.545H394.019L392.186 95.67L392.886 97.4902L391.053 96.3652L389.22 97.4902L389.92 95.67L388.087 94.545H390.353L391.053 92.7248Z" fill="#D9D9D9"/>
<path d="M292.51 89.5637L293.21 91.3839H295.476L293.643 92.5089L294.343 94.3291L292.51 93.2042L290.677 94.3291L291.377 92.5089L289.544 91.3839H291.81L292.51 89.5637Z" fill="#D9D9D9"/>
<path d="M285.026 100.101L285.726 101.921H287.992L286.159 103.046L286.859 104.866L285.026 103.741L283.193 104.866L283.893 103.046L282.06 101.921H284.326L285.026 100.101Z" fill="#D9D9D9"/>
<path d="M281.284 112.745L281.984 114.565H284.25L282.417 115.69L283.117 117.51L281.284 116.385L279.451 117.51L280.151 115.69L278.318 114.565H280.584L281.284 112.745Z" fill="#D9D9D9"/>
<path d="M285.026 138.034L285.726 139.854H287.992L286.159 140.979L286.859 142.799L285.026 141.674L283.193 142.799L283.893 140.979L282.06 139.854H284.326L285.026 138.034Z" fill="#D9D9D9"/>
<path d="M251.347 128.55L252.047 130.371H254.313L252.48 131.495L253.18 133.316L251.347 132.191L249.514 133.316L250.214 131.495L248.381 130.371H250.647L251.347 128.55Z" fill="#D9D9D9"/>
<path d="M196.865 83.2416L197.376 84.613H199.028L197.691 85.4606L198.202 86.832L196.865 85.9845L195.528 86.832L196.039 85.4606L194.702 84.613H196.354L196.865 83.2416Z" fill="#D9D9D9"/>
<path d="M193.123 122.228L193.634 123.6H195.286L193.95 124.447L194.46 125.819L193.123 124.971L191.786 125.819L192.297 124.447L190.96 123.6H192.613L193.123 122.228Z" fill="#D9D9D9"/>
<path d="M647.593 189.526L648.103 190.898H649.756L648.419 191.746L648.93 193.117L647.593 192.269L646.256 193.117L646.767 191.746L645.43 190.898H647.082L647.593 189.526Z" fill="#D9D9D9"/>
<path d="M210.587 64.2752L211.098 65.6466H212.75L211.413 66.4942L211.924 67.8656L210.587 67.018L209.25 67.8656L209.761 66.4942L208.424 65.6466H210.076L210.587 64.2752Z" fill="#D9D9D9"/>
<path d="M445.796 286.58V286.58C455.529 284.284 465.969 286.046 474.701 291.459L478.401 293.753L473.209 288.955C466.867 283.096 458.004 280.831 449.89 282.996L449.117 283.202C446.094 284.009 442.892 284.109 439.759 283.496V283.496C434.883 282.541 430.439 279.91 427.233 276.08L422.115 269.966L423.108 272.754C426.434 282.086 436.055 287.95 445.796 286.58V286.58Z" fill="white"/>
<path d="M218.973 240.062V240.062C228.706 237.765 239.146 239.528 247.879 244.941L251.578 247.234L246.386 242.437C240.044 236.577 231.181 234.312 223.068 236.477L222.294 236.684C219.271 237.49 216.069 237.591 212.936 236.978V236.978C208.061 236.023 203.616 233.392 200.41 229.561L195.292 223.448L196.285 226.235C199.611 235.568 209.232 241.431 218.973 240.062V240.062Z" fill="white"/>
<path d="M616.676 376.984V376.984C626.409 374.688 636.85 376.45 645.582 381.863L649.281 384.157L644.089 379.359C637.748 373.5 628.885 371.235 620.771 373.4L619.998 373.606C616.975 374.413 613.772 374.513 610.64 373.9V373.9C605.764 372.945 601.32 370.314 598.113 366.484L592.995 360.37L593.989 363.158C597.315 372.49 606.936 378.354 616.676 376.984V376.984Z" fill="white"/>
<path d="M495.636 337.488V337.488C505.369 335.191 515.809 336.953 524.541 342.366L528.241 344.66L523.049 339.863C516.707 334.003 507.844 331.738 499.73 333.903L498.957 334.109C495.934 334.916 492.732 335.017 489.599 334.403V334.403C484.723 333.448 480.279 330.817 477.073 326.987L471.955 320.873L472.948 323.661C476.274 332.993 485.895 338.857 495.636 337.488V337.488Z" fill="white"/>
<path d="M540.796 324.623V324.623C547.02 323.191 553.675 324.232 559.346 327.526L561.464 328.756L558.47 326.143C554.29 322.495 548.607 321.109 543.383 322.463L542.83 322.607C540.966 323.09 539 323.163 537.068 322.821V322.821C533.918 322.263 531.021 320.632 528.891 318.216L525.864 314.783L526.257 315.855C528.437 321.791 534.582 325.497 540.796 324.623V324.623Z" fill="white"/>
<path d="M660.819 351.832V351.832C667.043 350.399 673.698 351.441 679.37 354.735L681.487 355.965L678.494 353.352C674.313 349.704 668.63 348.318 663.406 349.672L662.853 349.816C660.989 350.299 659.024 350.372 657.092 350.029V350.029C653.942 349.472 651.044 347.841 648.914 345.425L645.887 341.992L646.281 343.064C648.46 348.999 654.606 352.706 660.819 351.832V351.832Z" fill="white"/>
<path d="M154.281 241.241V241.241C160.506 239.808 167.16 240.849 172.832 244.144L174.949 245.374L171.956 242.761C167.775 239.113 162.092 237.727 156.868 239.081L156.315 239.224C154.452 239.707 152.486 239.78 150.554 239.438V239.438C147.404 238.881 144.507 237.249 142.377 234.834L139.349 231.401L139.743 232.473C141.922 238.408 148.068 242.115 154.281 241.241V241.241Z" fill="white"/>
<path d="M446.707 276.462C449.757 277.33 451.887 280.116 451.91 283.267L452.829 408.727L444.449 417.46L444.449 291.159C444.449 289.003 443.823 286.882 442.646 285.053V285.053C441.938 283.953 441.046 282.981 440.01 282.181L439.647 281.901C438.624 281.111 437.498 280.466 436.302 279.985L433.915 279.024L251.839 227.023V227.023C250.567 226.825 249.318 226.482 248.119 226.001L247.647 225.812V225.812C246.041 225.143 244.231 225.24 242.734 226.075L241.035 227.023L247.138 223.618L250.698 222.301V222.301C253.428 222.012 256.199 222.252 258.858 223.008L446.707 276.462Z" fill="#AEAEAE"/>
<path d="M446.989 276.543C449.904 277.372 451.884 279.716 451.904 282.361L452.829 408.727L444.449 417.46L444.449 290.94C444.449 288.917 443.851 286.926 442.711 285.154C441.96 283.986 440.987 282.935 439.833 282.044L439.725 281.961C438.651 281.132 437.441 280.443 436.136 279.918L433.915 279.024L252.1 227.098C251.926 227.048 251.749 227.009 251.569 226.981C250.477 226.811 249.414 226.521 248.407 226.117L247.647 225.812C246.068 225.154 244.209 225.252 242.741 226.071L241.035 227.023L247.138 223.618L250.698 222.301C253.42 222.012 256.185 222.248 258.794 222.99L446.989 276.543Z" fill="#AEAEAE"/>
<path d="M240.017 335.986L444.45 395.826L444.45 417.361L239.989 355.436L240.017 335.986Z" fill="#EAEAEA" fill-opacity="0.67"/>
<path d="M240.017 230.328C240.017 226.985 243.25 224.547 246.463 225.468L440.878 281.177C442.996 281.783 444.447 283.708 444.447 285.912L444.447 396.294L240.017 336.454L240.017 230.328Z" fill="#2E2E2E"/>
<path d="M248.128 233.076L436.788 287.062L436.788 387.49L248.128 331.719L248.128 233.076Z" fill="#9BD8D8"/>
<path d="M337.64 370.944C338.141 371.005 338.621 371.162 339.048 371.402L339.252 371.518C339.686 371.762 340.189 371.892 340.703 371.891V371.891C341.071 371.89 341.434 371.956 341.771 372.084L342.22 372.255C342.584 372.394 342.915 372.592 343.197 372.84L343.42 373.036C343.672 373.258 343.854 373.535 343.949 373.84L344.047 374.16C344.119 374.393 344.09 374.643 343.966 374.86V374.86C343.833 375.093 343.6 375.269 343.322 375.347L343.211 375.378C343.063 375.419 342.924 375.483 342.8 375.567L342.741 375.606C342.481 375.782 342.278 376.017 342.156 376.287L342.08 376.454V376.454C341.898 376.856 341.93 377.31 342.168 377.685L342.386 378.029C342.424 378.09 342.475 378.143 342.535 378.185V378.185C342.78 378.358 342.835 378.67 342.663 378.906L342.396 379.271C342.349 379.335 342.294 379.394 342.233 379.448L341.917 379.721C341.79 379.83 341.649 379.925 341.496 380.003L341.203 380.153C340.814 380.353 340.345 380.378 339.935 380.222V380.222C339.813 380.175 339.699 380.114 339.596 380.038L338.925 379.548C338.582 379.297 338.144 379.173 337.7 379.2V379.2L336.938 379.199C336.267 379.198 335.613 379.021 335.057 378.69V378.69C334.576 378.404 334.184 378.012 333.919 377.551L333.564 376.934C333.32 376.511 333.146 376.057 333.047 375.588L332.957 375.157C332.746 374.159 332.98 373.123 333.609 372.27L333.663 372.197C333.783 372.034 333.921 371.881 334.075 371.741V371.741C334.825 371.057 335.889 370.73 336.942 370.859L337.64 370.944Z" fill="white"/>
<path d="M341.688 370.05C342.053 370.105 342.403 370.199 342.726 370.33L342.942 370.418L342.867 370.621C342.795 370.815 342.648 370.992 342.445 371.13V371.13C342.326 371.21 342.19 371.275 342.044 371.323L341.977 371.345C341.743 371.42 341.492 371.46 341.24 371.46L341.164 371.46C341.021 371.46 340.878 371.45 340.738 371.429L340.602 371.409C340.284 371.362 339.978 371.282 339.692 371.172L339.266 371.008L339.286 370.964C339.404 370.707 339.627 370.48 339.923 370.315V370.315C340.038 370.251 340.162 370.197 340.293 370.155L340.31 370.149C340.592 370.058 340.896 370.017 341.198 370.03L341.688 370.05V370.05Z" fill="white"/>
<path d="M323.425 380.742L368.196 394.238L379.659 409.67C381.123 411.642 380.936 414.385 379.217 416.141L361.646 434.08C360.307 435.447 358.303 435.931 356.487 435.325L301.635 417.047C297.302 415.603 297.627 409.377 302.087 408.392L327.209 402.842C330.354 402.147 332.032 398.709 330.642 395.807L323.425 380.742Z" fill="#EAEAEA"/>
<path d="M323.425 380.742L368.196 394.238L379.773 409.675C381.285 411.69 381.058 414.515 379.244 416.264L375.019 420.338L320.56 404.277L327.078 402.756C330.174 402.033 331.819 398.648 330.471 395.772L323.425 380.742Z" fill="#858585"/>
<path d="M368.196 394.238L369.512 394.635L380.052 408.515C382.209 411.356 381.677 415.402 378.859 417.591V417.591L364.171 433.006C363.584 433.622 362.926 434.167 362.21 434.628V434.628V434.628C361.338 435.154 360.386 435.534 359.392 435.754L359.098 435.819V435.819C357.904 435.951 356.7 435.955 355.505 435.831L355.359 435.816C354.741 435.752 354.132 435.619 353.543 435.421L309.426 420.547L300.03 417.152L298.482 416.484C297.545 416.08 296.878 415.227 296.711 414.221L296.47 412.764V412.764C296.695 414.121 297.628 415.257 298.917 415.742L307.571 418.997L312.21 420.547L354.429 434.628L355.055 434.77C355.515 434.874 355.988 434.941 356.458 434.971V434.971C357.015 435.007 357.581 434.989 358.134 434.919V434.919C358.616 434.857 359.092 434.756 359.557 434.616L360.175 434.43L360.244 434.405C360.755 434.223 361.244 433.985 361.701 433.693V433.693C362.278 433.325 362.809 432.89 363.282 432.397L376.575 418.552L379.071 415.834C379.599 415.26 379.968 414.559 380.144 413.8V413.8C380.303 413.116 380.316 412.408 380.183 411.719L380.047 411.015C379.934 410.433 379.691 409.884 379.336 409.408L378.012 407.635L368.196 394.238Z" fill="#B0B0B0"/>
<path d="M341.621 259.871L436.789 287.062L436.789 387.49L341.621 359.307L341.621 259.871Z" fill="#334A4B"/>
<path d="M341.86 259.871L370.231 268.008L368.914 367.444L341.621 359.406L341.86 259.871Z" fill="#1D3844"/>
<g filter="url(#filter0_d_19_230)">
<path d="M253.874 251.733L336.233 276.245L336.233 323.78L253.874 299.018L253.874 251.733Z" fill="#D9D9D9"/>
<path d="M253.874 251.733L336.233 276.245L336.233 323.78L253.874 299.018L253.874 251.733Z" fill="#D9D9D9"/>
</g>
<path d="M253.874 255.901L336.233 280.003L336.233 323.68L253.874 298.772L253.874 255.901Z" fill="white"/>
<path d="M282.604 267.81L300.561 273.279L300.561 283.886L282.604 278.361L282.604 267.81Z" fill="#D9D9D9"/>
<path d="M282.604 267.81L300.561 273.279L300.561 283.886L282.604 278.361L282.604 267.81Z" fill="#D9D9D9"/>
<path d="M260.818 261.458L278.774 266.928L278.774 277.535L260.818 272.01L260.818 261.458Z" fill="#D9D9D9"/>
<path d="M260.818 261.458L278.774 266.928L278.774 277.535L260.818 272.01L260.818 261.458Z" fill="#D9D9D9"/>
<path d="M372.632 273.349C372.648 272.829 373.145 272.464 373.648 272.604L378.02 273.816C378.382 273.916 378.629 274.251 378.617 274.624V274.624C378.601 275.144 378.104 275.509 377.601 275.369L373.229 274.157C372.867 274.057 372.62 273.722 372.632 273.349V273.349Z" fill="white"/>
<path d="M372.607 275.576C372.624 275.056 373.121 274.692 373.624 274.831L377.996 276.043C378.357 276.143 378.605 276.478 378.593 276.852V276.852C378.577 277.371 378.079 277.736 377.577 277.596L373.204 276.385C372.843 276.284 372.596 275.949 372.607 275.576V275.576Z" fill="white"/>
<path d="M372.569 277.799C372.585 277.279 373.083 276.915 373.585 277.054L377.958 278.266C378.319 278.366 378.566 278.701 378.555 279.075V279.075C378.538 279.595 378.041 279.959 377.538 279.82L373.166 278.608C372.805 278.508 372.558 278.173 372.569 277.799V277.799Z" fill="white"/>
<path d="M372.538 280.04C372.554 279.52 373.052 279.155 373.554 279.295L377.926 280.507C378.288 280.607 378.535 280.942 378.523 281.316V281.316C378.507 281.835 378.01 282.2 377.507 282.06L373.135 280.849C372.774 280.748 372.526 280.413 372.538 280.04V280.04Z" fill="white"/>
<path d="M372.509 282.249C372.525 281.729 373.022 281.365 373.525 281.504L377.897 282.716C378.258 282.816 378.506 283.151 378.494 283.525V283.525C378.478 284.045 377.98 284.409 377.478 284.27L373.106 283.058C372.744 282.958 372.497 282.623 372.509 282.249V282.249Z" fill="white"/>
<path d="M372.484 284.476C372.501 283.957 372.998 283.592 373.501 283.731L377.873 284.943C378.234 285.044 378.481 285.378 378.47 285.752V285.752C378.454 286.272 377.956 286.636 377.454 286.497L373.081 285.285C372.72 285.185 372.473 284.85 372.484 284.476V284.476Z" fill="white"/>
<path d="M372.446 286.7C372.462 286.18 372.96 285.815 373.462 285.955L377.834 287.167C378.196 287.267 378.443 287.602 378.431 287.976V287.976C378.415 288.495 377.918 288.86 377.415 288.72L373.043 287.508C372.682 287.408 372.434 287.073 372.446 286.7V286.7Z" fill="white"/>
<path d="M372.415 288.94C372.431 288.421 372.928 288.056 373.431 288.195L377.803 289.407C378.165 289.508 378.412 289.842 378.4 290.216V290.216C378.384 290.736 377.887 291.1 377.384 290.961L373.012 289.749C372.65 289.649 372.403 289.314 372.415 288.94V288.94Z" fill="white"/>
<path d="M371.732 344.813C371.748 344.293 372.246 343.929 372.748 344.068L377.121 345.28C377.482 345.38 377.729 345.715 377.718 346.089V346.089C377.701 346.609 377.204 346.973 376.701 346.834L372.329 345.622C371.968 345.522 371.72 345.187 371.732 344.813V344.813Z" fill="white"/>
<path d="M371.708 347.04C371.724 346.52 372.221 346.156 372.724 346.295L377.096 347.507C377.458 347.608 377.705 347.942 377.694 348.316V348.316C377.677 348.836 377.18 349.2 376.677 349.061L372.305 347.849C371.944 347.749 371.696 347.414 371.708 347.04V347.04Z" fill="white"/>
<path d="M371.67 349.264C371.686 348.744 372.183 348.379 372.686 348.519L377.058 349.731C377.42 349.831 377.667 350.166 377.655 350.54V350.54C377.639 351.059 377.142 351.424 376.639 351.284L372.267 350.072C371.905 349.972 371.658 349.637 371.67 349.264V349.264Z" fill="white"/>
<path d="M371.639 351.504C371.655 350.984 372.152 350.62 372.655 350.759L377.027 351.971C377.389 352.072 377.636 352.406 377.624 352.78V352.78C377.608 353.3 377.111 353.664 376.608 353.525L372.236 352.313C371.874 352.213 371.627 351.878 371.639 351.504V351.504Z" fill="white"/>
<path d="M371.609 353.714C371.626 353.194 372.123 352.829 372.626 352.969L376.998 354.181C377.359 354.281 377.607 354.616 377.595 354.99V354.99C377.579 355.509 377.081 355.874 376.579 355.734L372.206 354.522C371.845 354.422 371.598 354.087 371.609 353.714V353.714Z" fill="white"/>
<path d="M371.585 355.941C371.602 355.421 372.099 355.057 372.601 355.196L376.974 356.408C377.335 356.508 377.582 356.843 377.571 357.217V357.217C377.555 357.736 377.057 358.101 376.555 357.962L372.182 356.75C371.821 356.649 371.574 356.314 371.585 355.941V355.941Z" fill="white"/>
<path d="M371.547 358.169C371.563 357.647 372.063 357.281 372.568 357.421L376.915 358.626C377.289 358.729 377.545 359.075 377.534 359.461V359.461C377.519 360.005 376.996 360.386 376.472 360.234L372.138 358.979C371.779 358.875 371.535 358.541 371.547 358.169V358.169Z" fill="white"/>
<path d="M371.515 360.428C371.532 359.902 372.042 359.539 372.546 359.694L376.945 361.049C377.296 361.156 377.531 361.486 377.517 361.851V361.851C377.498 362.375 376.988 362.736 376.484 362.581L372.086 361.224C371.738 361.117 371.504 360.79 371.515 360.428V360.428Z" fill="white"/>
<path d="M371.492 362.798C371.509 362.266 372.028 361.901 372.536 362.063L376.948 363.468C377.29 363.577 377.53 363.888 377.548 364.245V364.245C377.578 364.845 376.996 365.282 376.426 365.087L372.043 363.591C371.705 363.476 371.481 363.153 371.492 362.798V362.798Z" fill="white"/>
<path d="M371.492 362.798C371.509 362.266 372.028 361.901 372.536 362.063L376.948 363.468C377.29 363.577 377.53 363.888 377.548 364.245V364.245C377.578 364.845 376.996 365.282 376.426 365.087L372.043 363.591C371.705 363.476 371.481 363.153 371.492 362.798V362.798Z" fill="white"/>
<path d="M372.416 291.23C372.432 290.711 372.929 290.346 373.432 290.485L377.804 291.697C378.166 291.798 378.413 292.132 378.401 292.506V292.506C378.385 293.026 377.888 293.39 377.385 293.251L373.013 292.039C372.651 291.939 372.404 291.604 372.416 291.23V291.23Z" fill="white"/>
<path d="M372.392 293.457C372.408 292.938 372.905 292.573 373.408 292.713L377.78 293.924C378.142 294.025 378.389 294.36 378.377 294.733V294.733C378.361 295.253 377.864 295.618 377.361 295.478L372.989 294.266C372.627 294.166 372.38 293.831 372.392 293.457V293.457Z" fill="white"/>
<path d="M372.353 295.681C372.37 295.161 372.867 294.797 373.37 294.936L377.742 296.148C378.103 296.248 378.35 296.583 378.339 296.957V296.957C378.323 297.476 377.825 297.841 377.323 297.702L372.95 296.49C372.589 296.389 372.342 296.055 372.353 295.681V295.681Z" fill="white"/>
<path d="M372.322 297.921C372.338 297.402 372.836 297.037 373.338 297.177L377.711 298.388C378.072 298.489 378.319 298.824 378.308 299.197V299.197C378.291 299.717 377.794 300.081 377.291 299.942L372.919 298.73C372.558 298.63 372.311 298.295 372.322 297.921V297.921Z" fill="white"/>
<path d="M372.293 300.131C372.309 299.611 372.806 299.247 373.309 299.386L377.681 300.598C378.043 300.698 378.29 301.033 378.278 301.407V301.407C378.262 301.926 377.765 302.291 377.262 302.152L372.89 300.94C372.528 300.839 372.281 300.505 372.293 300.131V300.131Z" fill="white"/>
<path d="M372.269 302.358C372.285 301.838 372.782 301.474 373.285 301.613L377.657 302.825C378.018 302.925 378.266 303.26 378.254 303.634V303.634C378.238 304.154 377.74 304.518 377.238 304.379L372.866 303.167C372.504 303.067 372.257 302.732 372.269 302.358V302.358Z" fill="white"/>
<path d="M372.23 304.581C372.246 304.062 372.744 303.697 373.246 303.836L377.619 305.048C377.98 305.149 378.227 305.484 378.216 305.857V305.857C378.199 306.377 377.702 306.741 377.199 306.602L372.827 305.39C372.466 305.29 372.219 304.955 372.23 304.581V304.581Z" fill="white"/>
<path d="M372.199 306.822C372.215 306.302 372.713 305.938 373.215 306.077L377.587 307.289C377.949 307.389 378.196 307.724 378.184 308.098V308.098C378.168 308.618 377.671 308.982 377.168 308.843L372.796 307.631C372.435 307.531 372.187 307.196 372.199 306.822V306.822Z" fill="white"/>
<path d="M372.175 309.049C372.191 308.529 372.688 308.165 373.191 308.304L377.563 309.516C377.925 309.616 378.172 309.951 378.16 310.325V310.325C378.144 310.845 377.647 311.209 377.144 311.07L372.772 309.858C372.41 309.758 372.163 309.423 372.175 309.049V309.049Z" fill="white"/>
<path d="M372.15 311.276C372.167 310.757 372.664 310.392 373.167 310.531L377.539 311.743C377.9 311.844 378.148 312.178 378.136 312.552V312.552C378.12 313.072 377.622 313.436 377.12 313.297L372.747 312.085C372.386 311.985 372.139 311.65 372.15 311.276V311.276Z" fill="white"/>
<path d="M372.112 313.5C372.128 312.98 372.626 312.615 373.128 312.755L377.501 313.967C377.862 314.067 378.109 314.402 378.098 314.776V314.776C378.081 315.295 377.584 315.66 377.081 315.52L372.709 314.308C372.348 314.208 372.1 313.873 372.112 313.5V313.5Z" fill="white"/>
<path d="M372.081 315.74C372.097 315.221 372.594 314.856 373.097 314.995L377.469 316.207C377.831 316.308 378.078 316.642 378.066 317.016V317.016C378.05 317.536 377.553 317.9 377.05 317.761L372.678 316.549C372.316 316.449 372.069 316.114 372.081 315.74V315.74Z" fill="white"/>
<path d="M372.052 317.95C372.068 317.43 372.565 317.065 373.068 317.205L377.44 318.417C377.801 318.517 378.049 318.852 378.037 319.226V319.226C378.021 319.745 377.523 320.11 377.021 319.97L372.648 318.758C372.287 318.658 372.04 318.323 372.052 317.95V317.95Z" fill="white"/>
<path d="M372.027 320.177C372.044 319.657 372.541 319.293 373.043 319.432L377.416 320.644C377.777 320.744 378.024 321.079 378.013 321.453V321.453C377.997 321.972 377.499 322.337 376.997 322.198L372.624 320.986C372.263 320.885 372.016 320.551 372.027 320.177V320.177Z" fill="white"/>
<path d="M371.989 322.4C372.005 321.881 372.503 321.516 373.005 321.655L377.377 322.867C377.739 322.968 377.986 323.302 377.974 323.676V323.676C377.958 324.196 377.461 324.56 376.958 324.421L372.586 323.209C372.225 323.109 371.977 322.774 371.989 322.4V322.4Z" fill="white"/>
<path d="M371.958 324.641C371.974 324.121 372.471 323.757 372.974 323.896L377.346 325.108C377.708 325.208 377.955 325.543 377.943 325.917V325.917C377.927 326.436 377.43 326.801 376.927 326.662L372.555 325.45C372.193 325.349 371.946 325.015 371.958 324.641V324.641Z" fill="white"/>
<path d="M371.959 326.931C371.975 326.411 372.472 326.047 372.975 326.186L377.347 327.398C377.709 327.498 377.956 327.833 377.944 328.207V328.207C377.928 328.726 377.431 329.091 376.928 328.952L372.556 327.74C372.194 327.639 371.947 327.305 371.959 326.931V326.931Z" fill="white"/>
<path d="M371.935 329.158C371.951 328.638 372.448 328.274 372.951 328.413L377.323 329.625C377.685 329.725 377.932 330.06 377.92 330.434V330.434C377.904 330.954 377.407 331.318 376.904 331.179L372.532 329.967C372.17 329.867 371.923 329.532 371.935 329.158V329.158Z" fill="white"/>
<path d="M371.896 331.381C371.913 330.862 372.41 330.497 372.913 330.637L377.285 331.848C377.646 331.949 377.893 332.284 377.882 332.657V332.657C377.866 333.177 377.368 333.541 376.866 333.402L372.493 332.19C372.132 332.09 371.885 331.755 371.896 331.381V331.381Z" fill="white"/>
<path d="M371.865 333.622C371.881 333.102 372.379 332.738 372.881 332.877L377.254 334.089C377.615 334.189 377.862 334.524 377.851 334.898V334.898C377.834 335.418 377.337 335.782 376.834 335.643L372.462 334.431C372.101 334.331 371.853 333.996 371.865 333.622V333.622Z" fill="white"/>
<path d="M371.836 335.831C371.852 335.312 372.349 334.947 372.852 335.086L377.224 336.298C377.586 336.399 377.833 336.734 377.821 337.107V337.107C377.805 337.627 377.308 337.991 376.805 337.852L372.433 336.64C372.071 336.54 371.824 336.205 371.836 335.831V335.831Z" fill="white"/>
<path d="M371.811 338.059C371.828 337.539 372.325 337.174 372.828 337.314L377.2 338.526C377.561 338.626 377.809 338.961 377.797 339.334V339.334C377.781 339.854 377.283 340.219 376.781 340.079L372.408 338.867C372.047 338.767 371.8 338.432 371.811 338.059V338.059Z" fill="white"/>
<path d="M371.773 340.282C371.789 339.762 372.287 339.398 372.789 339.537L377.162 340.749C377.523 340.849 377.77 341.184 377.759 341.558V341.558C377.742 342.078 377.245 342.442 376.742 342.303L372.37 341.091C372.009 340.991 371.762 340.656 371.773 340.282V340.282Z" fill="white"/>
<path d="M371.742 342.523C371.758 342.003 372.256 341.638 372.758 341.778L377.13 342.99C377.492 343.09 377.739 343.425 377.727 343.798V343.798C377.711 344.318 377.214 344.683 376.711 344.543L372.339 343.331C371.978 343.231 371.73 342.896 371.742 342.523V342.523Z" fill="white"/>
<path d="M404.611 282.378C404.627 281.857 405.125 281.492 405.629 281.631L414.325 284.027C414.694 284.129 414.949 284.469 414.942 284.851V284.851C414.932 285.393 414.414 285.777 413.89 285.629L405.207 283.187C404.846 283.086 404.599 282.751 404.611 282.378V282.378Z" fill="#BAFF99"/>
<path d="M404.155 284.523C404.171 284.003 404.668 283.639 405.171 283.778L409.543 284.99C409.905 285.09 410.152 285.425 410.14 285.799V285.799C410.124 286.319 409.627 286.683 409.124 286.544L404.752 285.332C404.39 285.232 404.143 284.897 404.155 284.523V284.523Z" fill="#BAFF99"/>
<path d="M408.797 287.975C408.813 287.455 409.311 287.091 409.813 287.23L414.186 288.442C414.547 288.542 414.794 288.877 414.783 289.251V289.251C414.766 289.771 414.269 290.135 413.766 289.996L409.394 288.784C409.033 288.684 408.786 288.349 408.797 287.975V287.975Z" fill="#BAFF99"/>
<path d="M402.686 292.906C402.702 292.387 403.199 292.022 403.702 292.161L408.074 293.373C408.436 293.474 408.683 293.808 408.671 294.182V294.182C408.655 294.702 408.158 295.066 407.655 294.927L403.283 293.715C402.921 293.615 402.674 293.28 402.686 292.906V292.906Z" fill="#BAFF99"/>
<path d="M399.696 294.298C399.713 293.779 400.209 293.415 400.712 293.553L407.368 295.39C407.726 295.489 407.973 295.819 407.965 296.19V296.19C407.954 296.711 407.457 297.08 406.952 296.941L400.295 295.108C399.933 295.008 399.685 294.673 399.696 294.298V294.298Z" fill="white"/>
<path d="M399.695 296.547C399.711 296.028 400.208 295.663 400.711 295.802L405.083 297.014C405.445 297.115 405.692 297.449 405.68 297.823V297.823C405.664 298.343 405.167 298.707 404.664 298.568L400.292 297.356C399.93 297.256 399.683 296.921 399.695 296.547V296.547Z" fill="white"/>
<path d="M402.809 355.728C402.825 355.208 403.322 354.844 403.825 354.983L408.197 356.195C408.559 356.295 408.806 356.63 408.794 357.004V357.004C408.778 357.524 408.281 357.888 407.778 357.749L403.406 356.537C403.044 356.437 402.797 356.102 402.809 355.728V355.728Z" fill="#FFA901"/>
<path d="M401.59 357.662C401.606 357.143 402.101 356.778 402.603 356.915L422.903 362.424C423.27 362.524 423.523 362.861 423.516 363.24V363.24C423.506 363.773 422.998 364.151 422.482 364.011L402.191 358.473C401.827 358.374 401.578 358.038 401.59 357.662V357.662Z" fill="#87E2FF"/>
<path d="M419.598 371.837C419.64 371.224 420.232 370.808 420.826 370.972L427.039 372.697C427.499 372.825 427.807 373.259 427.776 373.733V373.733C427.735 374.365 427.123 374.794 426.512 374.62L420.311 372.85C419.864 372.722 419.566 372.299 419.598 371.837V371.837Z" fill="#87E2FF"/>
<path d="M393.99 369.784C393.957 369.122 394.589 368.632 395.224 368.827L415.22 374.969C415.621 375.092 415.903 375.454 415.924 375.871V375.871C415.958 376.553 415.306 377.057 414.652 376.854L394.672 370.66C394.284 370.539 394.011 370.189 393.99 369.784V369.784Z" fill="#FFA901"/>
<path d="M402.688 299.615C402.704 299.095 403.202 298.731 403.704 298.87L422.987 304.215C423.326 304.309 423.567 304.61 423.584 304.96V304.96C423.612 305.508 423.097 305.919 422.567 305.772L403.285 300.424C402.923 300.323 402.676 299.989 402.688 299.615V299.615Z" fill="white"/>
<path d="M404.738 302.523C404.754 302.004 405.251 301.639 405.754 301.778L410.126 302.99C410.488 303.091 410.735 303.425 410.723 303.799V303.799C410.707 304.319 410.21 304.683 409.707 304.544L405.335 303.332C404.973 303.232 404.726 302.897 404.738 302.523V302.523Z" fill="#87E2FF"/>
<path d="M409.375 306.053C409.391 305.533 409.888 305.168 410.391 305.308L414.763 306.52C415.125 306.62 415.372 306.955 415.36 307.329V307.329C415.344 307.848 414.847 308.213 414.344 308.073L409.972 306.861C409.61 306.761 409.363 306.426 409.375 306.053V306.053Z" fill="#87E2FF"/>
<path d="M422.555 311.879C422.571 311.359 423.069 310.994 423.571 311.134L427.944 312.346C428.305 312.446 428.552 312.781 428.541 313.154V313.154C428.524 313.674 428.027 314.039 427.524 313.899L423.152 312.687C422.791 312.587 422.543 312.252 422.555 311.879V311.879Z" fill="white"/>
<path d="M413.687 311.702C413.698 311.18 414.196 310.811 414.701 310.952L425.695 314.01C426.056 314.111 426.302 314.445 426.291 314.818V314.818C426.274 315.338 425.777 315.703 425.274 315.563L414.281 312.5C413.924 312.401 413.679 312.072 413.687 311.702V311.702Z" fill="white"/>
<path d="M413.208 313.788C413.224 313.269 413.721 312.906 414.222 313.046L421.625 315.116C421.97 315.213 422.207 315.532 422.198 315.889V315.889C422.186 316.391 421.708 316.745 421.223 316.613L413.807 314.595C413.444 314.496 413.196 314.162 413.208 313.788V313.788Z" fill="#87E2FF"/>
<path d="M417.387 319.318C417.403 318.8 417.894 318.433 418.398 318.565L429.91 321.562C430.299 321.664 430.569 322.018 430.563 322.419V322.419C430.554 322.978 430.022 323.377 429.481 323.231L417.993 320.134C417.627 320.035 417.375 319.697 417.387 319.318V319.318Z" fill="white"/>
<path d="M404.232 322.47C404.248 321.95 404.745 321.586 405.248 321.725L409.62 322.937C409.981 323.037 410.229 323.372 410.217 323.746V323.746C410.201 324.266 409.703 324.63 409.201 324.491L404.829 323.279C404.467 323.179 404.22 322.844 404.232 322.47V322.47Z" fill="#87E2FF"/>
<path d="M417.392 328.395C417.408 327.876 417.905 327.511 418.408 327.651L422.78 328.863C423.142 328.963 423.389 329.298 423.377 329.671V329.671C423.361 330.191 422.864 330.556 422.361 330.416L417.989 329.204C417.627 329.104 417.38 328.769 417.392 328.395V328.395Z" fill="white"/>
<path d="M416.739 332.641C416.755 332.122 417.25 331.757 417.752 331.892L426.159 334.152C426.548 334.257 426.807 334.628 426.77 335.028V335.028C426.724 335.533 426.234 335.872 425.742 335.738L417.342 333.453C416.977 333.354 416.728 333.017 416.739 332.641V332.641Z" fill="#87E2FF"/>
<path d="M404.398 333.757C404.414 333.235 404.912 332.869 405.417 333.008L417.39 336.293C417.79 336.403 418.061 336.779 418.036 337.192V337.192C418.003 337.745 417.467 338.123 416.933 337.971L404.992 334.568C404.632 334.465 404.386 334.13 404.398 333.757V333.757Z" fill="white"/>
<path d="M398.163 280.434C398.179 279.914 398.676 279.55 399.179 279.689L403.551 280.901C403.913 281.001 404.16 281.336 404.148 281.71V281.71C404.132 282.229 403.635 282.594 403.132 282.455L398.76 281.243C398.398 281.142 398.151 280.808 398.163 280.434V280.434Z" fill="#87E2FF"/>
<path d="M397.665 282.581C397.681 282.062 398.179 281.697 398.681 281.837L403.054 283.049C403.415 283.149 403.662 283.484 403.651 283.857V283.857C403.634 284.377 403.137 284.742 402.634 284.602L398.262 283.39C397.901 283.29 397.653 282.955 397.665 282.581V282.581Z" fill="#87E2FF"/>
<path d="M398.1 284.883C398.116 284.364 398.613 284.001 399.115 284.141L407.659 286.525C408.005 286.621 408.242 286.94 408.233 287.298V287.298C408.221 287.799 407.743 288.154 407.258 288.021L398.699 285.691C398.337 285.592 398.089 285.257 398.1 284.883V284.883Z" fill="#87E2FF"/>
<path d="M395.943 291.061C395.959 290.541 396.456 290.176 396.959 290.316L401.331 291.528C401.693 291.628 401.94 291.963 401.928 292.337V292.337C401.912 292.856 401.415 293.221 400.912 293.081L396.54 291.869C396.178 291.769 395.931 291.434 395.943 291.061V291.061Z" fill="white"/>
<path d="M393.006 292.407C393.022 291.887 393.52 291.523 394.022 291.662L398.395 292.874C398.756 292.974 399.003 293.309 398.992 293.683V293.683C398.975 294.203 398.478 294.567 397.975 294.428L393.603 293.216C393.242 293.116 392.995 292.781 393.006 292.407V292.407Z" fill="#87E2FF"/>
<path d="M392.984 294.65C393 294.13 393.498 293.766 394 293.905L398.372 295.117C398.734 295.217 398.981 295.552 398.969 295.926V295.926C398.953 296.446 398.456 296.81 397.953 296.671L393.581 295.459C393.22 295.359 392.972 295.024 392.984 294.65V294.65Z" fill="#87E2FF"/>
<path d="M404.098 353.873C404.115 353.353 404.61 352.986 405.114 353.121L415.273 355.831C415.687 355.941 415.964 356.332 415.93 356.758V356.758C415.886 357.306 415.354 357.676 414.822 357.527L404.698 354.688C404.335 354.586 404.087 354.249 404.098 353.873V353.873Z" fill="#BAFF99"/>
<path d="M395.977 353.832C395.993 353.312 396.491 352.948 396.993 353.087L401.366 354.299C401.727 354.399 401.974 354.734 401.963 355.108V355.108C401.946 355.628 401.449 355.992 400.946 355.853L396.574 354.641C396.213 354.541 395.966 354.206 395.977 353.832V353.832Z" fill="white"/>
<path d="M391.876 354.954C391.887 354.431 392.385 354.061 392.89 354.2L400.135 356.184C400.505 356.286 400.76 356.626 400.753 357.008V357.008C400.743 357.55 400.225 357.933 399.702 357.786L392.471 355.754C392.113 355.653 391.868 355.324 391.876 354.954V354.954Z" fill="#FF69B1"/>
<path d="M397.176 358.713C397.192 358.194 397.687 357.828 398.19 357.964L411.925 361.676C412.326 361.785 412.593 362.165 412.557 362.577V362.577C412.512 363.104 412.001 363.457 411.49 363.316L397.775 359.525C397.412 359.425 397.164 359.089 397.176 358.713V358.713Z" fill="white"/>
<path d="M415.604 366.086C415.62 365.566 416.117 365.201 416.62 365.341L420.992 366.553C421.354 366.653 421.601 366.988 421.589 367.361V367.361C421.573 367.881 421.076 368.246 420.573 368.106L416.201 366.894C415.839 366.794 415.592 366.459 415.604 366.086V366.086Z" fill="white"/>
<path d="M407.809 366.084C407.825 365.564 408.322 365.199 408.825 365.339L413.197 366.551C413.559 366.651 413.806 366.986 413.794 367.359V367.359C413.778 367.879 413.281 368.244 412.778 368.104L408.406 366.892C408.044 366.792 407.797 366.457 407.809 366.084V366.084Z" fill="white"/>
<path d="M407.8 368.508C407.81 367.902 408.39 367.474 408.974 367.641L417.981 370.22C418.413 370.344 418.7 370.753 418.667 371.199V371.199C418.623 371.792 418.047 372.191 417.475 372.025L408.475 369.418C408.071 369.301 407.794 368.928 407.8 368.508V368.508Z" fill="white"/>
<path d="M402.941 369.651C402.985 369.054 403.566 368.652 404.143 368.82L423.318 374.421C423.852 374.577 424.187 375.108 424.095 375.654V375.654C423.988 376.299 423.336 376.699 422.708 376.506L403.613 370.631C403.188 370.5 402.909 370.093 402.941 369.651V369.651Z" fill="#BAFF99"/>
<path d="M395.839 297.741C395.855 297.221 396.353 296.857 396.855 296.996L401.228 298.208C401.589 298.308 401.836 298.643 401.825 299.017V299.017C401.808 299.537 401.311 299.901 400.808 299.762L396.436 298.55C396.075 298.45 395.827 298.115 395.839 297.741V297.741Z" fill="#BAFF99"/>
<path d="M397.911 300.596C397.927 300.077 398.424 299.712 398.927 299.851L403.299 301.063C403.66 301.164 403.908 301.498 403.896 301.872V301.872C403.88 302.392 403.382 302.756 402.88 302.617L398.508 301.405C398.146 301.305 397.899 300.97 397.911 300.596V300.596Z" fill="#FF69B1"/>
<path d="M402.597 304.184C402.613 303.664 403.111 303.299 403.613 303.439L407.986 304.651C408.347 304.751 408.594 305.086 408.583 305.459V305.459C408.566 305.979 408.069 306.344 407.566 306.204L403.194 304.992C402.833 304.892 402.586 304.557 402.597 304.184V304.184Z" fill="#FF69B1"/>
<path d="M410.625 308.587C410.641 308.066 411.141 307.702 411.644 307.844L421.177 310.541C421.537 310.643 421.782 310.977 421.77 311.349V311.349C421.753 311.87 421.253 312.234 420.75 312.091L411.217 309.394C410.858 309.292 410.613 308.959 410.625 308.587V308.587Z" fill="#BAFF99"/>
<path d="M406.746 309.83C406.762 309.31 407.259 308.945 407.762 309.085L412.134 310.297C412.496 310.397 412.743 310.732 412.731 311.106V311.106C412.715 311.625 412.218 311.99 411.715 311.85L407.343 310.638C406.981 310.538 406.734 310.203 406.746 309.83V309.83Z" fill="#FF69B1"/>
<path d="M406.503 311.95C406.519 311.431 407.017 311.066 407.519 311.205L411.892 312.417C412.253 312.518 412.5 312.853 412.489 313.226V313.226C412.472 313.746 411.975 314.11 411.472 313.971L407.1 312.759C406.739 312.659 406.491 312.324 406.503 311.95V311.95Z" fill="#FF69B1"/>
<path d="M410.97 315.429C410.986 314.913 411.478 314.549 411.978 314.682L429.531 319.371C429.869 319.461 430.102 319.771 430.092 320.12V320.12C430.079 320.598 429.626 320.938 429.161 320.817L411.579 316.241C411.212 316.145 410.958 315.807 410.97 315.429V315.429Z" fill="white"/>
<path d="M399.885 316.759C399.901 316.239 400.398 315.875 400.901 316.014L405.273 317.226C405.635 317.326 405.882 317.661 405.87 318.035V318.035C405.854 318.554 405.357 318.919 404.854 318.78L400.482 317.568C400.12 317.467 399.873 317.133 399.885 316.759V316.759Z" fill="#FF6464"/>
<path d="M397.36 320.632C397.376 320.112 397.873 319.747 398.376 319.887L402.748 321.099C403.11 321.199 403.357 321.534 403.345 321.908V321.908C403.329 322.427 402.832 322.792 402.329 322.652L397.957 321.44C397.595 321.34 397.348 321.005 397.36 320.632V320.632Z" fill="#FF69B1"/>
<path d="M409.802 326.317C409.818 325.796 410.317 325.43 410.821 325.569L415.808 326.947C416.181 327.05 416.436 327.394 416.425 327.779V327.779C416.41 328.319 415.891 328.698 415.37 328.549L410.395 327.127C410.035 327.024 409.79 326.69 409.802 326.317V326.317Z" fill="#87E2FF"/>
<path d="M413.289 329.445C413.305 328.925 413.802 328.561 414.305 328.7L418.677 329.912C419.038 330.012 419.286 330.347 419.274 330.721V330.721C419.258 331.241 418.76 331.605 418.258 331.466L413.886 330.254C413.524 330.154 413.277 329.819 413.289 329.445V329.445Z" fill="#FF69B1"/>
<path d="M397.565 327.388C397.581 326.869 398.078 326.504 398.58 326.643L415.205 331.238C415.563 331.337 415.81 331.667 415.802 332.037V332.037C415.791 332.558 415.293 332.927 414.789 332.788L398.163 328.198C397.801 328.098 397.553 327.762 397.565 327.388V327.388Z" fill="#FFA901"/>
<path d="M397.526 329.61C397.543 329.091 398.038 328.726 398.541 328.863L421.963 335.25C422.351 335.356 422.609 335.726 422.572 336.125V336.125C422.525 336.631 422.034 336.97 421.542 336.835L398.127 330.42C397.763 330.321 397.515 329.985 397.526 329.61V329.61Z" fill="white"/>
<path d="M397.495 331.853C397.511 331.333 398.009 330.969 398.511 331.108L402.884 332.32C403.245 332.42 403.492 332.755 403.481 333.129V333.129C403.464 333.649 402.967 334.013 402.464 333.874L398.092 332.662C397.731 332.562 397.484 332.227 397.495 331.853V331.853Z" fill="#87E2FF"/>
<path d="M397.669 338.637C397.679 338.094 398.197 337.71 398.721 337.857L428.247 346.118C428.604 346.218 428.849 346.548 428.841 346.917V346.917C428.83 347.439 428.332 347.808 427.827 347.668L398.286 339.462C397.916 339.359 397.662 339.019 397.669 338.637V338.637Z" fill="#BAFF99"/>
<path d="M393.807 339.9C393.779 339.349 394.296 338.935 394.83 339.08L405.34 341.95C405.706 342.05 405.967 342.374 405.986 342.752V342.752C406.016 343.344 405.458 343.786 404.886 343.624L394.405 340.65C394.066 340.554 393.825 340.252 393.807 339.9V339.9Z" fill="white"/>
<path d="M389.754 340.901C389.77 340.38 390.271 340.015 390.774 340.159L398.793 342.439C399.132 342.535 399.372 342.837 399.39 343.187V343.187C399.418 343.742 398.894 344.156 398.358 344.003L390.343 341.708C389.986 341.605 389.742 341.272 389.754 340.901V340.901Z" fill="#87E2FF"/>
<path d="M391.577 278.64C391.593 278.123 392.089 277.759 392.59 277.898L396.994 279.119C397.34 279.215 397.579 279.533 397.574 279.891V279.891C397.567 280.398 397.086 280.761 396.594 280.629L392.179 279.448C391.815 279.351 391.566 279.015 391.577 278.64V278.64Z" fill="white"/>
<path d="M390.23 280.506C390.246 279.986 390.744 279.622 391.247 279.762L396.387 281.201C396.744 281.3 396.988 281.629 396.981 281.998V281.998C396.97 282.52 396.471 282.889 395.966 282.749L390.825 281.314C390.464 281.213 390.218 280.879 390.23 280.506V280.506Z" fill="white"/>
<path d="M391.515 283.095C391.531 282.575 392.028 282.21 392.531 282.35L396.903 283.562C397.265 283.662 397.512 283.997 397.5 284.371V284.371C397.484 284.89 396.987 285.255 396.484 285.115L392.112 283.903C391.75 283.803 391.503 283.468 391.515 283.095V283.095Z" fill="white"/>
<path d="M389.423 289.215C389.439 288.696 389.936 288.331 390.439 288.471L394.811 289.683C395.173 289.783 395.42 290.118 395.408 290.491V290.491C395.392 291.011 394.895 291.376 394.392 291.236L390.02 290.024C389.658 289.924 389.411 289.589 389.423 289.215V289.215Z" fill="#FFA901"/>
<path d="M386.404 290.613C386.42 290.093 386.917 289.728 387.42 289.868L391.792 291.08C392.154 291.18 392.401 291.515 392.389 291.888V291.888C392.373 292.408 391.876 292.773 391.373 292.633L387.001 291.421C386.639 291.321 386.392 290.986 386.404 290.613V290.613Z" fill="#FFA901"/>
<path d="M386.382 292.856C386.398 292.336 386.895 291.971 387.398 292.111L391.77 293.323C392.131 293.423 392.379 293.758 392.367 294.132V294.132C392.351 294.651 391.853 295.016 391.351 294.876L386.979 293.664C386.617 293.564 386.37 293.229 386.382 292.856V292.856Z" fill="#FFA901"/>
<path d="M391.055 350.222C391.071 349.701 391.568 349.336 392.072 349.475L402.545 352.366C402.914 352.468 403.169 352.808 403.162 353.19V353.19C403.151 353.732 402.634 354.115 402.111 353.968L391.65 351.031C391.289 350.93 391.043 350.595 391.055 350.222V350.222Z" fill="white"/>
<path d="M385.197 350.866C385.213 350.348 385.708 349.983 386.211 350.12L394.764 352.45C395.124 352.548 395.372 352.879 395.364 353.25V353.25C395.353 353.771 394.857 354.14 394.353 354.003L385.798 351.677C385.435 351.578 385.185 351.242 385.197 350.866V350.866Z" fill="#87E2FF"/>
<path d="M385.172 353.05C385.188 352.53 385.685 352.166 386.188 352.305L390.56 353.517C390.922 353.617 391.169 353.952 391.157 354.326V354.326C391.141 354.845 390.644 355.21 390.141 355.071L385.769 353.859C385.407 353.758 385.16 353.424 385.172 353.05V353.05Z" fill="#FF6464"/>
<path d="M390.584 356.799C390.6 356.28 391.097 355.915 391.6 356.054L395.972 357.266C396.334 357.367 396.581 357.702 396.569 358.075V358.075C396.553 358.595 396.056 358.959 395.553 358.82L391.181 357.608C390.819 357.508 390.572 357.173 390.584 356.799V356.799Z" fill="#FF6464"/>
<path d="M394.508 360.152C394.524 359.632 395.022 359.267 395.525 359.406L414.144 364.548C414.516 364.651 414.772 364.993 414.765 365.378V365.378C414.755 365.924 414.234 366.31 413.707 366.163L395.104 360.962C394.743 360.861 394.496 360.526 394.508 360.152V360.152Z" fill="#FFA901"/>
<path d="M394.484 362.365C394.5 361.845 394.999 361.481 395.502 361.622L406.375 364.687C406.73 364.788 406.974 365.116 406.966 365.484V365.484C406.955 366.007 406.455 366.376 405.95 366.233L395.077 363.172C394.718 363.071 394.472 362.738 394.484 362.365V362.365Z" fill="#FF69B1"/>
<path d="M394.372 364.592C394.388 364.069 394.891 363.704 395.395 363.848L406.336 366.966C406.713 367.073 406.972 367.421 406.966 367.812V367.812C406.957 368.376 406.414 368.774 405.871 368.614L394.957 365.399C394.601 365.294 394.36 364.962 394.372 364.592V364.592Z" fill="#FF69B1"/>
<path d="M394.186 367.083C394.229 366.49 394.807 366.09 395.381 366.258L401.328 367.994C401.758 368.119 402.043 368.528 402.01 368.972V368.972C401.967 369.566 401.388 369.965 400.815 369.798L394.867 368.062C394.438 367.937 394.153 367.528 394.186 367.083V367.083Z" fill="white"/>
<path d="M391.362 296.524C391.378 296.003 391.873 295.636 392.378 295.771L394.522 296.343C394.893 296.442 395.151 296.782 395.143 297.165V297.165C395.134 297.706 394.617 298.088 394.095 297.94L391.96 297.338C391.597 297.236 391.35 296.899 391.362 296.524V296.524Z" fill="white"/>
<path d="M391.322 298.749C391.338 298.229 391.836 297.864 392.338 298.004L396.527 299.165C396.996 299.295 397.317 299.729 397.301 300.214V300.214V300.214C397.288 300.637 396.884 300.934 396.475 300.82L391.919 299.557C391.558 299.457 391.31 299.122 391.322 298.749V298.749Z" fill="#FF6464"/>
<path d="M395.903 302.252C395.919 301.733 396.416 301.368 396.919 301.507L401.291 302.719C401.653 302.82 401.9 303.155 401.888 303.528V303.528C401.872 304.048 401.375 304.412 400.872 304.273L396.5 303.061C396.138 302.961 395.891 302.626 395.903 302.252V302.252Z" fill="#FF6464"/>
<path d="M399.936 307.92C399.953 307.401 400.45 307.036 400.953 307.175L405.325 308.387C405.686 308.488 405.934 308.822 405.922 309.196V309.196C405.906 309.716 405.408 310.08 404.906 309.941L400.533 308.729C400.172 308.629 399.925 308.294 399.936 307.92V307.92Z" fill="#FFA901"/>
<path d="M399.813 310.164C399.829 309.644 400.326 309.28 400.829 309.419L405.201 310.631C405.563 310.731 405.81 311.066 405.798 311.44V311.44C405.782 311.96 405.285 312.324 404.782 312.185L400.41 310.973C400.048 310.873 399.801 310.538 399.813 310.164V310.164Z" fill="#FF6464"/>
<path d="M404.27 313.526C404.286 313.006 404.783 312.642 405.286 312.781L409.658 313.993C410.02 314.093 410.267 314.428 410.255 314.802V314.802C410.239 315.322 409.742 315.686 409.239 315.547L404.867 314.335C404.505 314.235 404.258 313.9 404.27 313.526V313.526Z" fill="#87E2FF"/>
<path d="M404.281 315.77C404.298 315.25 404.793 314.885 405.296 315.021L416.052 317.927C416.424 318.027 416.682 318.369 416.674 318.753V318.753C416.664 319.294 416.149 319.678 415.626 319.534L404.882 316.581C404.519 316.482 404.27 316.145 404.281 315.77V315.77Z" fill="white"/>
<path d="M395.823 317.808C395.839 317.289 396.336 316.924 396.839 317.063L401.211 318.275C401.572 318.376 401.82 318.71 401.808 319.084V319.084C401.792 319.604 401.294 319.968 400.792 319.829L396.419 318.617C396.058 318.517 395.811 318.182 395.823 317.808V317.808Z" fill="#FF6464"/>
<path d="M390.615 318.673C390.632 318.153 391.129 317.788 391.632 317.928L396.004 319.14C396.365 319.24 396.613 319.575 396.601 319.948V319.948C396.585 320.468 396.087 320.833 395.585 320.693L393.582 320.138L391.212 319.481C390.851 319.381 390.604 319.046 390.615 318.673V318.673Z" fill="#FF6464"/>
<path d="M395.182 322.189C395.198 321.668 395.696 321.303 396.199 321.442L408.367 324.807C408.737 324.909 408.991 325.249 408.984 325.631V325.631C408.974 326.173 408.456 326.557 407.932 326.41L395.777 322.998C395.417 322.897 395.17 322.562 395.182 322.189V322.189Z" fill="white"/>
<path d="M395.158 324.4C395.174 323.88 395.672 323.515 396.175 323.655L411.979 328.059C412.336 328.158 412.581 328.488 412.574 328.857V328.857C412.563 329.379 412.064 329.748 411.559 329.607L395.754 325.208C395.393 325.107 395.147 324.773 395.158 324.4V324.4Z" fill="#BAFF99"/>
<path d="M390.904 332.226C390.921 331.707 391.418 331.342 391.92 331.481L396.293 332.693C396.654 332.794 396.901 333.129 396.89 333.502V333.502C396.873 334.022 396.376 334.386 395.874 334.247L391.501 333.035C391.14 332.935 390.893 332.6 390.904 332.226V332.226Z" fill="#FF6464"/>
<path d="M382.927 334.458C382.937 333.916 383.456 333.532 383.979 333.68L396.233 337.142C396.593 337.243 396.839 337.578 396.827 337.95V337.95C396.811 338.471 396.312 338.836 395.809 338.696L383.542 335.282C383.173 335.179 382.92 334.839 382.927 334.458V334.458Z" fill="white"/>
<path d="M382.911 336.68C382.927 336.16 383.425 335.795 383.928 335.935L392.198 338.234C392.54 338.328 392.783 338.632 392.801 338.985V338.985C392.828 339.539 392.307 339.954 391.772 339.804L383.506 337.489C383.145 337.388 382.899 337.053 382.911 336.68V336.68Z" fill="#87E2FF"/>
<path d="M383.027 338.983C383.043 338.463 383.54 338.099 384.043 338.238L388.415 339.45C388.777 339.55 389.024 339.885 389.012 340.259V340.259C388.996 340.778 388.499 341.143 387.996 341.004L383.624 339.792C383.262 339.691 383.015 339.356 383.027 338.983V338.983Z" fill="#FF69B1"/>
<path d="M397.976 349.884C397.993 349.364 398.49 349 398.992 349.139L403.365 350.351C403.726 350.451 403.973 350.786 403.962 351.16V351.16C403.945 351.679 403.448 352.044 402.946 351.905L398.573 350.693C398.212 350.592 397.965 350.258 397.976 349.884V349.884Z" fill="#FF69B1"/>
<path d="M379.544 275.311C379.557 274.812 380.036 274.462 380.517 274.599L389.69 277.21C390.029 277.306 390.262 277.618 390.257 277.969V277.969C390.249 278.475 389.766 278.833 389.278 278.693L380.107 276.076C379.767 275.979 379.535 275.664 379.544 275.311V275.311Z" fill="#87E2FF"/>
<path d="M379.543 277.589C379.555 277.065 380.054 276.695 380.56 276.834L388.37 278.977C388.737 279.078 388.992 279.414 388.988 279.793V279.793C388.983 280.338 388.464 280.727 387.938 280.579L380.14 278.391C379.781 278.291 379.535 277.96 379.543 277.589V277.589Z" fill="#87E2FF"/>
<path d="M379.525 279.822C379.537 279.297 380.039 278.927 380.545 279.069L389.556 281.603C389.92 281.706 390.172 282.04 390.168 282.417V282.417C390.163 282.963 389.641 283.351 389.114 283.201L380.116 280.621C379.761 280.519 379.518 280.19 379.525 279.822V279.822Z" fill="#87E2FF"/>
<path d="M379.501 286.512C379.512 285.989 380.014 285.621 380.519 285.765L387.661 287.814C388.003 287.912 388.237 288.227 388.232 288.581V288.581C388.225 289.091 387.739 289.453 387.247 289.315L380.093 287.309C379.737 287.209 379.493 286.881 379.501 286.512V286.512Z" fill="#FF69B1"/>
<path d="M379.268 347.007C379.258 346.476 379.762 346.089 380.274 346.235L389.449 348.84C389.808 348.942 390.051 349.277 390.036 349.649V349.649C390.015 350.164 389.519 350.52 389.022 350.378L379.85 347.763C379.511 347.666 379.274 347.359 379.268 347.007V347.007Z" fill="#FF69B1"/>
<path d="M399.337 305.614C399.348 305.091 399.847 304.721 400.352 304.861L408.416 307.092C408.771 307.19 409.016 307.516 409.012 307.883V307.883C409.006 308.408 408.507 308.782 407.999 308.642L399.935 306.414C399.576 306.315 399.329 305.985 399.337 305.614V305.614Z" fill="white"/>
<path d="M379.283 344.678C379.294 344.154 379.796 343.786 380.301 343.929L396.282 348.482C396.621 348.578 396.854 348.891 396.849 349.243V349.243C396.842 349.749 396.359 350.107 395.871 349.97L379.875 345.475C379.519 345.375 379.275 345.046 379.283 344.678V344.678Z" fill="#FFA901"/>
<ellipse cx="377.468" cy="454.256" rx="17.4407" ry="7.06396" fill="#ABABAB"/>
<g filter="url(#filter1_d_19_230)">
<ellipse cx="378.378" cy="476.98" rx="23.3944" ry="5.53122" fill="#FEFEFE"/>
</g>
<ellipse cx="378.108" cy="476.625" rx="12.3057" ry="1.56176" fill="#E0E0E0"/>
<g filter="url(#filter2_i_19_230)">
<path d="M360.168 455.056H394.769L391.878 467.354C391.431 469.255 390.523 471.017 389.234 472.485V472.485C387.296 474.693 384.61 476.106 381.692 476.453L380.88 476.55C378.475 476.836 376.043 476.826 373.64 476.521L373.392 476.49C370.468 476.119 367.779 474.691 365.834 472.476V472.476C364.55 471.013 363.639 469.263 363.177 467.372L360.168 455.056Z" fill="white"/>
</g>
<path d="M393.648 455.455C393.648 458.326 386.738 460.12 377.106 460.12C367.474 460.12 361.008 458.326 361.008 455.455C361.008 452.585 367.205 449.791 376.837 449.791C386.47 449.791 393.648 452.585 393.648 455.455Z" fill="#59311A"/>
<path d="M393.508 460.32L394.138 457.521L394.286 457.495C397.691 456.895 400.536 460.091 399.545 463.404V463.404C399.443 463.746 399.302 464.075 399.125 464.385L398.959 464.673C398.414 465.625 397.666 466.446 396.77 467.078L389.446 472.249L391.967 467.651L394.944 465.651C395.339 465.386 395.697 465.069 396.01 464.71L396.361 464.305C396.697 463.918 396.955 463.469 397.119 462.983L397.245 462.61C397.41 462.122 397.393 461.59 397.197 461.113V461.113C396.747 460.015 395.488 459.493 394.392 459.951L393.508 460.32Z" fill="#FFFEFE"/>
<defs>
<filter id="filter0_d_19_230" x="249.874" y="251.733" width="90.3591" height="80.0465" filterUnits="userSpaceOnUse" color-interpolation-filters="sRGB">
<feFlood flood-opacity="0" result="BackgroundImageFix"/>
<feColorMatrix in="SourceAlpha" type="matrix" values="0 0 0 0 0 0 0 0 0 0 0 0 0 0 0 0 0 0 127 0" result="hardAlpha"/>
<feOffset dy="4"/>
<feGaussianBlur stdDeviation="2"/>
<feComposite in2="hardAlpha" operator="out"/>
<feColorMatrix type="matrix" values="0 0 0 0 0 0 0 0 0 0 0 0 0 0 0 0 0 0 0.25 0"/>
<feBlend mode="normal" in2="BackgroundImageFix" result="effect1_dropShadow_19_230"/>
<feBlend mode="normal" in="SourceGraphic" in2="effect1_dropShadow_19_230" result="shape"/>
</filter>
<filter id="filter1_d_19_230" x="350.984" y="471.449" width="54.7888" height="19.0624" filterUnits="userSpaceOnUse" color-interpolation-filters="sRGB">
<feFlood flood-opacity="0" result="BackgroundImageFix"/>
<feColorMatrix in="SourceAlpha" type="matrix" values="0 0 0 0 0 0 0 0 0 0 0 0 0 0 0 0 0 0 127 0" result="hardAlpha"/>
<feOffset dy="4"/>
<feGaussianBlur stdDeviation="2"/>
<feComposite in2="hardAlpha" operator="out"/>
<feColorMatrix type="matrix" values="0 0 0 0 0 0 0 0 0 0 0 0 0 0 0 0 0 0 0.25 0"/>
<feBlend mode="normal" in2="BackgroundImageFix" result="effect1_dropShadow_19_230"/>
<feBlend mode="normal" in="SourceGraphic" in2="effect1_dropShadow_19_230" result="shape"/>
</filter>
<filter id="filter2_i_19_230" x="360.168" y="455.056" width="34.6013" height="25.7019" filterUnits="userSpaceOnUse" color-interpolation-filters="sRGB">
<feFlood flood-opacity="0" result="BackgroundImageFix"/>
<feBlend mode="normal" in="SourceGraphic" in2="BackgroundImageFix" result="shape"/>
<feColorMatrix in="SourceAlpha" type="matrix" values="0 0 0 0 0 0 0 0 0 0 0 0 0 0 0 0 0 0 127 0" result="hardAlpha"/>
<feOffset dy="4"/>
<feGaussianBlur stdDeviation="2"/>
<feComposite in2="hardAlpha" operator="arithmetic" k2="-1" k3="1"/>
<feColorMatrix type="matrix" values="0 0 0 0 0 0 0 0 0 0 0 0 0 0 0 0 0 0 0.25 0"/>
<feBlend mode="normal" in2="shape" result="effect1_innerShadow_19_230"/>
</filter>
</defs>
</svg>
